<svg width="693" height="503" viewBox="0 0 693 503" fill="none" xmlns="http://www.w3.org/2000/svg">
<path d="M575.336 417.754V221.746L468.371 114.767H314.35C314.192 113.584 313.59 112.506 312.666 111.75C311.742 110.995 310.566 110.619 309.375 110.698C308.185 110.777 307.069 111.306 306.254 112.178C305.438 113.05 304.985 114.198 304.985 115.392C304.985 116.585 305.438 117.734 306.254 118.606C307.069 119.477 308.185 120.006 309.375 120.086C310.566 120.165 311.742 119.789 312.666 119.034C313.59 118.278 314.192 117.2 314.35 116.017H467.854L574.087 222.263V417.765C572.903 417.924 571.824 418.526 571.068 419.451C570.312 420.376 569.935 421.553 570.015 422.745C570.094 423.937 570.623 425.054 571.495 425.87C572.368 426.686 573.517 427.14 574.712 427.14C575.906 427.14 577.056 426.686 577.928 425.87C578.8 425.054 579.329 423.937 579.409 422.745C579.488 421.553 579.112 420.376 578.355 419.451C577.599 418.526 576.52 417.924 575.336 417.765V417.754Z" fill="#4B6884"/>
<path d="M692.171 214.898V4.83551H101.349V0L91.8921 5.46019L101.349 10.9204V6.08487H690.922V214.382L586.617 318.704V492.925C585.434 493.083 584.354 493.686 583.598 494.61C582.842 495.535 582.465 496.712 582.545 497.904C582.624 499.096 583.154 500.213 584.026 501.029C584.898 501.845 586.048 502.299 587.242 502.299C588.436 502.299 589.586 501.845 590.458 501.029C591.33 500.213 591.86 499.096 591.939 497.904C592.018 496.712 591.642 495.535 590.886 494.61C590.13 493.686 589.05 493.083 587.866 492.925V319.22L692.171 214.898Z" fill="#4B6884"/>
<path d="M209.494 34H199.578C199.468 34 199.36 34.0215 199.259 34.0634C199.158 34.1053 199.066 34.1666 198.989 34.244C198.912 34.3213 198.85 34.4131 198.808 34.5142C198.766 34.6152 198.745 34.7235 198.745 34.8329C198.745 34.9423 198.766 35.0506 198.808 35.1516C198.85 35.2527 198.912 35.3445 198.989 35.4219C199.066 35.4992 199.158 35.5606 199.259 35.6024C199.36 35.6443 199.468 35.6658 199.578 35.6658H209.494C209.604 35.6658 209.712 35.6443 209.813 35.6024C209.914 35.5606 210.006 35.4992 210.083 35.4219C210.16 35.3445 210.222 35.2527 210.264 35.1516C210.305 35.0506 210.327 34.9423 210.327 34.8329C210.327 34.7235 210.305 34.6152 210.264 34.5142C210.222 34.4131 210.16 34.3213 210.083 34.244C210.006 34.1666 209.914 34.1053 209.813 34.0634C209.712 34.0215 209.604 34 209.494 34Z" fill="#4B6884"/>
<path d="M274.246 46.9162C274.087 46.7939 273.889 46.7334 273.688 46.7457C273.488 46.758 273.299 46.8424 273.155 46.9832C273.012 47.1241 272.925 47.312 272.909 47.5122C272.893 47.7125 272.951 47.9116 273.07 48.073L280.083 55.0872C280.239 55.2428 280.451 55.3302 280.671 55.3302C280.892 55.3302 281.103 55.2428 281.259 55.0872C281.415 54.9304 281.502 54.7183 281.502 54.4972C281.502 54.2761 281.415 54.064 281.259 53.9072L274.246 46.9162Z" fill="#4B6884"/>
<path d="M169.829 34H159.913C159.804 34 159.696 34.0215 159.595 34.0634C159.494 34.1053 159.402 34.1666 159.325 34.244C159.247 34.3213 159.186 34.4131 159.144 34.5142C159.102 34.6152 159.081 34.7235 159.081 34.8329C159.081 34.9423 159.102 35.0506 159.144 35.1516C159.186 35.2527 159.247 35.3445 159.325 35.4219C159.402 35.4992 159.494 35.5606 159.595 35.6024C159.696 35.6443 159.804 35.6658 159.913 35.6658H169.829C170.05 35.6658 170.262 35.5781 170.418 35.4219C170.575 35.2657 170.662 35.0538 170.662 34.8329C170.662 34.612 170.575 34.4002 170.418 34.244C170.262 34.0878 170.05 34 169.829 34Z" fill="#4B6884"/>
<path d="M229.326 34H219.41C219.189 34 218.978 34.0878 218.821 34.244C218.665 34.4002 218.578 34.612 218.578 34.8329C218.578 35.0538 218.665 35.2657 218.821 35.4219C218.978 35.5781 219.189 35.6658 219.41 35.6658H229.326C229.436 35.6658 229.544 35.6443 229.645 35.6024C229.746 35.5606 229.838 35.4992 229.915 35.4219C229.993 35.3445 230.054 35.2527 230.096 35.1516C230.138 35.0506 230.159 34.9423 230.159 34.8329C230.159 34.7235 230.138 34.6152 230.096 34.5142C230.054 34.4131 229.993 34.3213 229.915 34.244C229.838 34.1666 229.746 34.1053 229.645 34.0634C229.544 34.0215 229.436 34 229.326 34Z" fill="#4B6884"/>
<path d="M261.334 34H259.075C258.854 34 258.642 34.0878 258.486 34.244C258.33 34.4002 258.242 34.612 258.242 34.8329C258.242 35.0538 258.33 35.2657 258.486 35.4219C258.642 35.5781 258.854 35.6658 259.075 35.6658H260.644L266.042 41.0643C266.119 41.1424 266.211 41.2044 266.312 41.2468C266.413 41.2891 266.522 41.3109 266.632 41.3109C266.741 41.3109 266.85 41.2891 266.951 41.2468C267.053 41.2044 267.144 41.1424 267.221 41.0643C267.371 40.909 267.455 40.7017 267.455 40.4859C267.455 40.2701 267.371 40.0627 267.221 39.9075L261.334 34Z" fill="#4B6884"/>
<path d="M249.159 34H239.243C239.022 34 238.81 34.0878 238.654 34.244C238.498 34.4002 238.41 34.612 238.41 34.8329C238.41 35.0538 238.498 35.2657 238.654 35.4219C238.81 35.5781 239.022 35.6658 239.243 35.6658H249.159C249.38 35.6658 249.592 35.5781 249.748 35.4219C249.904 35.2657 249.992 35.0538 249.992 34.8329C249.992 34.612 249.904 34.4002 249.748 34.244C249.592 34.0878 249.38 34 249.159 34Z" fill="#4B6884"/>
<path d="M189.662 34H179.738C179.629 34 179.52 34.0215 179.419 34.0634C179.318 34.1053 179.226 34.1666 179.149 34.244C179.072 34.3213 179.01 34.4131 178.968 34.5142C178.927 34.6152 178.905 34.7235 178.905 34.8329C178.905 34.9423 178.927 35.0506 178.968 35.1516C179.01 35.2527 179.072 35.3445 179.149 35.4219C179.226 35.4992 179.318 35.5606 179.419 35.6024C179.52 35.6443 179.629 35.6658 179.738 35.6658H189.654C189.763 35.6658 189.872 35.6443 189.973 35.6024C190.074 35.5606 190.165 35.4992 190.243 35.4219C190.32 35.3445 190.381 35.2527 190.423 35.1516C190.465 35.0506 190.487 34.9423 190.487 34.8329C190.487 34.7235 190.465 34.6152 190.423 34.5142C190.381 34.4131 190.32 34.3213 190.243 34.244C190.165 34.1666 190.074 34.1053 189.973 34.0634C189.872 34.0215 189.763 34 189.654 34H189.662Z" fill="#4B6884"/>
<path d="M50.8355 34H40.9193C40.8099 34 40.7017 34.0215 40.6007 34.0634C40.4996 34.1053 40.4078 34.1666 40.3304 34.244C40.2531 34.3213 40.1917 34.4131 40.1499 34.5142C40.108 34.6152 40.0865 34.7235 40.0865 34.8329C40.0865 34.9423 40.108 35.0506 40.1499 35.1516C40.1917 35.2527 40.2531 35.3445 40.3304 35.4219C40.4078 35.4992 40.4996 35.5606 40.6007 35.6024C40.7017 35.6443 40.8099 35.6658 40.9193 35.6658H50.8355C50.9449 35.6658 51.0532 35.6443 51.1542 35.6024C51.2552 35.5606 51.347 35.4992 51.4244 35.4219C51.5017 35.3445 51.563 35.2527 51.6049 35.1516C51.6467 35.0506 51.6683 34.9423 51.6683 34.8329C51.6683 34.7235 51.6467 34.6152 51.6049 34.5142C51.563 34.4131 51.5017 34.3213 51.4244 34.244C51.347 34.1666 51.2552 34.1053 51.1542 34.0634C51.0532 34.0215 50.9449 34 50.8355 34Z" fill="#4B6884"/>
<path d="M31.0031 34H21.087C20.9776 34 20.8693 34.0215 20.7683 34.0634C20.6673 34.1053 20.5755 34.1666 20.4982 34.244C20.4208 34.3213 20.3595 34.4131 20.3176 34.5142C20.2758 34.6152 20.2543 34.7235 20.2543 34.8329C20.2543 34.9423 20.2758 35.0506 20.3176 35.1516C20.3595 35.2527 20.4208 35.3445 20.4982 35.4219C20.5755 35.4992 20.6673 35.5606 20.7683 35.6024C20.8693 35.6443 20.9776 35.6658 21.087 35.6658H31.0031C31.1125 35.6658 31.2208 35.6443 31.3219 35.6024C31.4229 35.5606 31.5147 35.4992 31.592 35.4219C31.6693 35.3445 31.7307 35.2527 31.7725 35.1516C31.8144 35.0506 31.8359 34.9423 31.8359 34.8329C31.8359 34.7235 31.8144 34.6152 31.7725 34.5142C31.7307 34.4131 31.6693 34.3213 31.592 34.244C31.5147 34.1666 31.4229 34.1053 31.3219 34.0634C31.2208 34.0215 31.1125 34 31.0031 34Z" fill="#4B6884"/>
<path d="M11.1709 34H1.25466C1.1453 34 1.03699 34.0215 0.93595 34.0634C0.834913 34.1053 0.743089 34.1666 0.665758 34.244C0.588428 34.3213 0.527121 34.4131 0.48527 34.5142C0.443419 34.6152 0.421875 34.7235 0.421875 34.8329C0.421875 34.9423 0.443419 35.0506 0.48527 35.1516C0.527121 35.2527 0.588428 35.3445 0.665758 35.4219C0.743089 35.4992 0.834913 35.5606 0.93595 35.6024C1.03699 35.6443 1.1453 35.6658 1.25466 35.6658H11.1709C11.2802 35.6658 11.3885 35.6443 11.4895 35.6024C11.5906 35.5606 11.6824 35.4992 11.7597 35.4219C11.837 35.3445 11.8984 35.2527 11.9403 35.1516C11.9821 35.0506 12.0036 34.9423 12.0036 34.8329C12.0036 34.7235 11.9821 34.6152 11.9403 34.5142C11.8984 34.4131 11.837 34.3213 11.7597 34.244C11.6824 34.1666 11.5906 34.1053 11.4895 34.0634C11.3885 34.0215 11.2802 34 11.1709 34Z" fill="#4B6884"/>
<path d="M130.165 34H120.249C120.139 34 120.031 34.0215 119.93 34.0634C119.829 34.1053 119.737 34.1666 119.66 34.244C119.582 34.3213 119.521 34.4131 119.479 34.5142C119.437 34.6152 119.416 34.7235 119.416 34.8329C119.416 34.9423 119.437 35.0506 119.479 35.1516C119.521 35.2527 119.582 35.3445 119.66 35.4219C119.737 35.4992 119.829 35.5606 119.93 35.6024C120.031 35.6443 120.139 35.6658 120.249 35.6658H130.165C130.386 35.6658 130.597 35.5781 130.754 35.4219C130.91 35.2657 130.998 35.0538 130.998 34.8329C130.998 34.612 130.91 34.4002 130.754 34.244C130.597 34.0878 130.386 34 130.165 34Z" fill="#4B6884"/>
<path d="M110.34 34H100.424C100.203 34 99.9915 34.0878 99.8353 34.244C99.6791 34.4002 99.5914 34.612 99.5914 34.8329C99.5914 35.0538 99.6791 35.2657 99.8353 35.4219C99.9915 35.5781 100.203 35.6658 100.424 35.6658H110.34C110.561 35.6658 110.773 35.5781 110.929 35.4219C111.085 35.2657 111.173 35.0538 111.173 34.8329C111.173 34.612 111.085 34.4002 110.929 34.244C110.773 34.0878 110.561 34 110.34 34Z" fill="#4B6884"/>
<path d="M70.6679 34H60.7517C60.5308 34 60.319 34.0878 60.1628 34.244C60.0067 34.4002 59.9189 34.612 59.9189 34.8329C59.9189 35.0538 60.0067 35.2657 60.1628 35.4219C60.319 35.5781 60.5308 35.6658 60.7517 35.6658H70.6679C70.7772 35.6658 70.8855 35.6443 70.9865 35.6024C71.0875 35.5606 71.1794 35.4992 71.2567 35.4219C71.3341 35.3445 71.3953 35.2527 71.4372 35.1516C71.479 35.0506 71.5006 34.9423 71.5006 34.8329C71.5006 34.7235 71.479 34.6152 71.4372 34.5142C71.3953 34.4131 71.3341 34.3213 71.2567 34.244C71.1794 34.1666 71.0875 34.1053 70.9865 34.0634C70.8855 34.0215 70.7772 34 70.6679 34Z" fill="#4B6884"/>
<path d="M90.5004 34H80.584C80.3631 34 80.1513 34.0878 79.9951 34.244C79.8389 34.4002 79.7511 34.612 79.7511 34.8329C79.7511 35.0538 79.8389 35.2657 79.9951 35.4219C80.1513 35.5781 80.3631 35.6658 80.584 35.6658H90.5004C90.7212 35.6658 90.9331 35.5781 91.0892 35.4219C91.2454 35.2657 91.3331 35.0538 91.3331 34.8329C91.3331 34.612 91.2454 34.4002 91.0892 34.244C90.9331 34.0878 90.7212 34 90.5004 34Z" fill="#4B6884"/>
<path d="M149.997 34H140.081C139.972 34 139.863 34.0215 139.762 34.0634C139.661 34.1053 139.569 34.1666 139.492 34.244C139.415 34.3213 139.353 34.4131 139.312 34.5142C139.27 34.6152 139.248 34.7235 139.248 34.8329C139.248 34.9423 139.27 35.0506 139.312 35.1516C139.353 35.2527 139.415 35.3445 139.492 35.4219C139.569 35.4992 139.661 35.5606 139.762 35.6024C139.863 35.6443 139.972 35.6658 140.081 35.6658H149.997C150.218 35.6658 150.43 35.5781 150.586 35.4219C150.742 35.2657 150.83 35.0538 150.83 34.8329C150.83 34.612 150.742 34.4002 150.586 34.244C150.43 34.0878 150.218 34 149.997 34Z" fill="#4B6884"/>
<path d="M465.973 79.8887H462.888L457.556 85.2216C457.4 85.3781 457.312 85.5903 457.312 85.8116C457.312 86.0329 457.4 86.2451 457.556 86.4016C457.713 86.558 457.925 86.6459 458.146 86.6459C458.368 86.6459 458.58 86.558 458.736 86.4016L463.579 81.5545H465.957C466.178 81.5545 466.39 81.4667 466.546 81.3105C466.702 81.1543 466.79 80.9425 466.79 80.7216C466.79 80.5007 466.702 80.2888 466.546 80.1326C466.39 79.9764 466.178 79.8887 465.957 79.8887H465.973Z" fill="#4B6884"/>
<path d="M436.537 106.264L436.344 106.457H427.392C427.171 106.457 426.959 106.545 426.803 106.701C426.647 106.857 426.559 107.069 426.559 107.29C426.559 107.511 426.647 107.723 426.803 107.879C426.959 108.035 427.171 108.123 427.392 108.123H437.03L437.713 107.441C437.79 107.363 437.851 107.271 437.893 107.17C437.934 107.069 437.956 106.961 437.955 106.851C437.955 106.742 437.934 106.634 437.892 106.533C437.85 106.432 437.788 106.34 437.711 106.263C437.633 106.185 437.541 106.124 437.44 106.082C437.339 106.041 437.231 106.019 437.121 106.02C437.012 106.02 436.904 106.041 436.803 106.083C436.702 106.125 436.61 106.187 436.533 106.264H436.537Z" fill="#4B6884"/>
<path d="M450.563 92.2365L443.549 99.2469C443.424 99.4059 443.361 99.6053 443.371 99.8076C443.382 100.01 443.467 100.201 443.608 100.346C443.75 100.491 443.94 100.579 444.142 100.594C444.344 100.609 444.545 100.549 444.706 100.427L451.719 93.4126C451.804 93.3371 451.872 93.2451 451.919 93.1424C451.967 93.0396 451.993 92.9282 451.996 92.815C452 92.7018 451.98 92.5891 451.938 92.4839C451.896 92.3786 451.833 92.283 451.753 92.2029C451.673 92.1229 451.577 92.0599 451.472 92.018C451.367 91.9761 451.254 91.9562 451.141 91.9593C451.028 91.9624 450.916 91.9887 450.813 92.0363C450.711 92.084 450.619 92.1521 450.543 92.2365H450.563Z" fill="#4B6884"/>
<path d="M485.802 79.8887H475.889C475.78 79.8887 475.671 79.9102 475.57 79.9521C475.469 79.9939 475.377 80.0553 475.3 80.1326C475.223 80.21 475.161 80.3018 475.12 80.4028C475.078 80.5039 475.056 80.6122 475.056 80.7216C475.056 80.8309 475.078 80.9393 475.12 81.0403C475.161 81.1414 475.223 81.2332 475.3 81.3105C475.377 81.3879 475.469 81.4492 475.57 81.4911C475.671 81.5329 475.78 81.5545 475.889 81.5545H485.802C485.911 81.5545 486.019 81.5329 486.12 81.4911C486.221 81.4492 486.313 81.3879 486.39 81.3105C486.468 81.2332 486.529 81.1414 486.571 81.0403C486.613 80.9393 486.634 80.8309 486.634 80.7216C486.634 80.6122 486.613 80.5039 486.571 80.4028C486.529 80.3018 486.468 80.21 486.39 80.1326C486.313 80.0553 486.221 79.9939 486.12 79.9521C486.019 79.9102 485.911 79.8887 485.802 79.8887Z" fill="#4B6884"/>
<path d="M288.272 60.941C288.113 60.8154 287.914 60.7521 287.711 60.7629C287.509 60.7738 287.318 60.858 287.173 60.9999C287.028 61.1417 286.94 61.3315 286.925 61.5336C286.911 61.7357 286.97 61.9363 287.092 62.0978L294.105 69.112C294.176 69.2077 294.267 69.2871 294.371 69.3448C294.475 69.4025 294.591 69.4371 294.71 69.4464C294.828 69.4557 294.948 69.4394 295.06 69.3986C295.172 69.3577 295.274 69.2934 295.358 69.2098C295.443 69.1263 295.509 69.0255 295.552 68.9142C295.595 68.803 295.613 68.6839 295.606 68.5649C295.598 68.446 295.566 68.33 295.51 68.2248C295.454 68.1196 295.376 68.0277 295.281 67.9552L288.272 60.941Z" fill="#4B6884"/>
<path d="M545.298 79.8887H535.386C535.277 79.8887 535.168 79.9102 535.067 79.9521C534.966 79.9939 534.874 80.0553 534.797 80.1326C534.72 80.21 534.658 80.3018 534.617 80.4028C534.575 80.5039 534.553 80.6122 534.553 80.7216C534.553 80.8309 534.575 80.9393 534.617 81.0403C534.658 81.1414 534.72 81.2332 534.797 81.3105C534.874 81.3879 534.966 81.4492 535.067 81.4911C535.168 81.5329 535.277 81.5545 535.386 81.5545H545.298C545.519 81.5545 545.731 81.4667 545.887 81.3105C546.043 81.1543 546.131 80.9425 546.131 80.7216C546.131 80.5007 546.043 80.2888 545.887 80.1326C545.731 79.9764 545.519 79.8887 545.298 79.8887Z" fill="#4B6884"/>
<path d="M525.47 79.8887H515.546C515.325 79.8887 515.113 79.9764 514.957 80.1326C514.801 80.2888 514.713 80.5007 514.713 80.7216C514.713 80.9425 514.801 81.1543 514.957 81.3105C515.113 81.4667 515.325 81.5545 515.546 81.5545H525.466C525.575 81.5545 525.684 81.5329 525.785 81.4911C525.886 81.4492 525.977 81.3879 526.055 81.3105C526.132 81.2332 526.194 81.1414 526.235 81.0403C526.277 80.9393 526.299 80.8309 526.299 80.7216C526.299 80.6122 526.277 80.5039 526.235 80.4028C526.194 80.3018 526.132 80.21 526.055 80.1326C525.977 80.0553 525.886 79.9939 525.785 79.9521C525.684 79.9102 525.575 79.8887 525.466 79.8887H525.47Z" fill="#4B6884"/>
<path d="M505.634 79.8887H495.717C495.497 79.8887 495.285 79.9764 495.129 80.1326C494.972 80.2888 494.885 80.5007 494.885 80.7216C494.885 80.9425 494.972 81.1543 495.129 81.3105C495.285 81.4667 495.497 81.5545 495.717 81.5545H505.634C505.855 81.5545 506.066 81.4667 506.223 81.3105C506.379 81.1543 506.466 80.9425 506.466 80.7216C506.466 80.5007 506.379 80.2888 506.223 80.1326C506.066 79.9764 505.855 79.8887 505.634 79.8887Z" fill="#4B6884"/>
<path d="M338.146 106.454H333.778L330.343 103.018C330.265 102.941 330.174 102.879 330.073 102.837C329.972 102.795 329.863 102.774 329.754 102.773C329.645 102.773 329.536 102.795 329.435 102.836C329.334 102.878 329.242 102.939 329.165 103.016C329.087 103.094 329.026 103.185 328.984 103.286C328.942 103.387 328.92 103.496 328.92 103.605C328.92 103.714 328.941 103.823 328.983 103.924C329.024 104.025 329.086 104.117 329.163 104.194L333.088 108.12H338.146C338.367 108.12 338.579 108.032 338.735 107.876C338.891 107.72 338.979 107.508 338.979 107.287C338.979 107.066 338.891 106.854 338.735 106.698C338.579 106.542 338.367 106.454 338.146 106.454Z" fill="#4B6884"/>
<path d="M417.475 106.455H407.559C407.338 106.455 407.126 106.543 406.97 106.699C406.814 106.855 406.726 107.067 406.726 107.288C406.726 107.509 406.814 107.721 406.97 107.877C407.126 108.033 407.338 108.121 407.559 108.121H417.475C417.696 108.121 417.908 108.033 418.064 107.877C418.22 107.721 418.308 107.509 418.308 107.288C418.308 107.067 418.22 106.855 418.064 106.699C417.908 106.543 417.696 106.455 417.475 106.455Z" fill="#4B6884"/>
<path d="M302.294 74.9657C302.138 74.8097 301.926 74.7223 301.705 74.7227C301.484 74.723 301.272 74.8111 301.116 74.9676C300.961 75.1241 300.873 75.3361 300.874 75.557C300.874 75.7779 300.962 75.9897 301.118 76.1456L308.124 83.156C308.283 83.2816 308.482 83.3449 308.685 83.334C308.887 83.3232 309.078 83.239 309.223 83.0971C309.368 82.9552 309.456 82.7655 309.471 82.5633C309.486 82.3612 309.426 82.1607 309.304 81.9992L302.294 74.9657Z" fill="#4B6884"/>
<path d="M316.317 88.9934C316.158 88.8515 315.951 88.7757 315.738 88.7816C315.525 88.7875 315.323 88.8747 315.173 89.0252C315.022 89.1758 314.935 89.3782 314.929 89.5911C314.923 89.8039 314.999 90.0109 315.141 90.1696L322.154 97.1837C322.31 97.3394 322.521 97.4268 322.742 97.4268C322.962 97.4268 323.174 97.3394 323.33 97.1837C323.486 97.027 323.573 96.8149 323.573 96.5938C323.573 96.3727 323.486 96.1606 323.33 96.0038L316.317 88.9934Z" fill="#4B6884"/>
<path d="M397.643 106.455H387.727C387.506 106.455 387.294 106.543 387.138 106.699C386.982 106.855 386.894 107.067 386.894 107.288C386.894 107.509 386.982 107.721 387.138 107.877C387.294 108.033 387.506 108.121 387.727 108.121H397.643C397.864 108.121 398.076 108.033 398.232 107.877C398.388 107.721 398.476 107.509 398.476 107.288C398.476 107.067 398.388 106.855 398.232 106.699C398.076 106.543 397.864 106.455 397.643 106.455Z" fill="#4B6884"/>
<path d="M377.811 106.455H367.883C367.662 106.455 367.45 106.543 367.294 106.699C367.138 106.855 367.05 107.067 367.05 107.288C367.05 107.509 367.138 107.721 367.294 107.877C367.45 108.033 367.662 108.121 367.883 108.121H377.799C378.02 108.121 378.232 108.033 378.388 107.877C378.544 107.721 378.632 107.509 378.632 107.288C378.632 107.067 378.544 106.855 378.388 106.699C378.232 106.543 378.02 106.455 377.799 106.455H377.811Z" fill="#4B6884"/>
<path d="M357.978 106.455H348.062C347.841 106.455 347.63 106.543 347.473 106.699C347.317 106.855 347.229 107.067 347.229 107.288C347.229 107.509 347.317 107.721 347.473 107.877C347.63 108.033 347.841 108.121 348.062 108.121H357.978C358.199 108.121 358.411 108.033 358.567 107.877C358.723 107.721 358.811 107.509 358.811 107.288C358.811 107.067 358.723 106.855 358.567 106.699C358.411 106.543 358.199 106.455 357.978 106.455Z" fill="#4B6884"/>
<path d="M648.488 82.7301L646.526 82.1478C646.36 82.098 646.218 81.9905 646.125 81.8448C646.031 81.6991 645.993 81.5249 646.017 81.3535C646.143 80.4025 646.168 79.441 646.094 78.4846C646.078 78.3112 646.125 78.1379 646.226 77.9963C646.328 77.8547 646.476 77.7543 646.646 77.7134L648.65 77.2583C648.743 77.2362 648.831 77.1959 648.908 77.1399C648.985 77.0839 649.05 77.0132 649.1 76.9319C649.15 76.8506 649.183 76.7602 649.198 76.6661C649.213 76.5719 649.209 76.4757 649.186 76.383L648.82 74.8406C648.798 74.7479 648.758 74.6604 648.702 74.5833C648.646 74.5061 648.575 74.4408 648.494 74.391C648.412 74.3412 648.322 74.308 648.228 74.2931C648.134 74.2783 648.037 74.2822 647.945 74.3046L645.955 74.7828C645.787 74.824 645.609 74.8031 645.455 74.7237C645.3 74.6444 645.18 74.512 645.115 74.3509C644.749 73.4632 644.29 72.6166 643.746 71.8252C643.647 71.6829 643.602 71.5101 643.619 71.3377C643.636 71.1652 643.714 71.0045 643.839 70.8843L645.327 69.4768C645.466 69.3439 645.546 69.1616 645.552 68.9695C645.557 68.7774 645.486 68.5911 645.354 68.4511L644.271 67.2943C644.138 67.1555 643.955 67.0747 643.763 67.0697C643.571 67.0646 643.385 67.1356 643.245 67.2673L641.761 68.6747C641.634 68.7936 641.47 68.8635 641.297 68.872C641.124 68.8804 640.953 68.8269 640.816 68.721C640.056 68.1352 639.235 67.6324 638.368 67.221C638.212 67.1458 638.088 67.0178 638.017 66.8597C637.947 66.7016 637.934 66.5236 637.982 66.3572L638.565 64.3945C638.62 64.2104 638.599 64.012 638.508 63.8428C638.417 63.6736 638.263 63.5475 638.079 63.4922L636.564 63.0449C636.472 63.0177 636.377 63.0088 636.282 63.0188C636.188 63.0287 636.096 63.0572 636.012 63.1028C635.929 63.1483 635.855 63.2099 635.796 63.284C635.736 63.3581 635.692 63.4433 635.665 63.5346L635.083 65.4973C635.032 65.6629 634.923 65.8049 634.777 65.8981C634.631 65.9913 634.457 66.0296 634.285 66.0063C633.334 65.8787 632.373 65.8529 631.417 65.9292C631.243 65.9452 631.07 65.8983 630.928 65.7971C630.787 65.6958 630.686 65.547 630.645 65.3778L630.144 63.3765C630.122 63.2839 630.083 63.1966 630.027 63.1195C629.971 63.0424 629.901 62.977 629.82 62.9272C629.739 62.8774 629.649 62.8441 629.555 62.8292C629.461 62.8143 629.365 62.8182 629.273 62.8405L627.731 63.2261C627.638 63.2483 627.551 63.2886 627.473 63.3446C627.396 63.4006 627.331 63.4713 627.281 63.5526C627.231 63.6339 627.198 63.7242 627.183 63.8184C627.169 63.9126 627.172 64.0088 627.195 64.1014L627.669 66.0912C627.71 66.2598 627.689 66.4377 627.61 66.5921C627.531 66.7465 627.398 66.8671 627.237 66.9318C626.35 67.2989 625.504 67.7577 624.712 68.3007C624.57 68.4004 624.398 68.4456 624.225 68.4279C624.053 68.4102 623.893 68.3308 623.775 68.2043L622.364 66.7197C622.298 66.6505 622.22 66.5949 622.133 66.5561C622.046 66.5173 621.952 66.496 621.857 66.4935C621.761 66.491 621.667 66.5073 621.578 66.5415C621.489 66.5757 621.407 66.6271 621.338 66.6927L620.182 67.7763C620.043 67.9092 619.962 68.0915 619.957 68.2836C619.952 68.4757 620.023 68.662 620.155 68.802L621.562 70.2866C621.682 70.4124 621.752 70.577 621.76 70.7504C621.769 70.9237 621.715 71.0944 621.608 71.2313C621.023 71.9917 620.52 72.8126 620.108 73.6799C620.033 73.8359 619.905 73.9602 619.747 74.0308C619.589 74.1014 619.411 74.1137 619.245 74.0655L617.282 73.4833C617.192 73.456 617.096 73.447 617.002 73.4566C616.907 73.4663 616.816 73.4946 616.732 73.5397C616.649 73.5848 616.575 73.646 616.515 73.7197C616.456 73.7934 616.411 73.8781 616.384 73.9691L615.933 75.4846C615.906 75.5757 615.897 75.6713 615.907 75.7659C615.917 75.8605 615.945 75.9522 615.991 76.0357C616.036 76.1192 616.098 76.1929 616.172 76.2525C616.246 76.3121 616.331 76.3565 616.423 76.383L618.385 76.9653C618.551 77.0159 618.693 77.1242 618.787 77.2705C618.88 77.4168 618.918 77.5916 618.894 77.7635C618.769 78.7145 618.743 79.676 618.817 80.6324C618.832 80.8056 618.785 80.9785 618.684 81.1199C618.583 81.2614 618.434 81.362 618.266 81.4036L616.303 81.8856C616.211 81.9074 616.123 81.9472 616.046 82.0029C615.969 82.0585 615.904 82.1288 615.854 82.2098C615.804 82.2908 615.771 82.3809 615.756 82.4748C615.741 82.5687 615.745 82.6647 615.767 82.7571L616.133 84.2995C616.179 84.4863 616.297 84.6474 616.461 84.7477C616.625 84.8481 616.822 84.8797 617.009 84.8355L619.002 84.3574C619.171 84.3182 619.347 84.3406 619.501 84.4205C619.654 84.5004 619.774 84.6326 619.839 84.7931C620.207 85.6788 620.665 86.5239 621.207 87.315C621.306 87.4572 621.351 87.63 621.334 87.8025C621.317 87.9749 621.24 88.1356 621.115 88.2559L619.627 89.6672C619.488 89.7994 619.407 89.9811 619.402 90.1725C619.397 90.364 619.468 90.5497 619.6 90.689L620.687 91.8458C620.752 91.9152 620.83 91.971 620.916 92.0101C621.003 92.0492 621.096 92.0708 621.191 92.0737C621.286 92.0765 621.381 92.0606 621.47 92.0268C621.558 91.993 621.64 91.942 621.709 91.8767L623.193 90.4692C623.319 90.3497 623.483 90.2793 623.657 90.2708C623.83 90.2623 624.001 90.3163 624.137 90.423C624.898 91.0088 625.718 91.5116 626.586 91.923C626.742 91.9976 626.867 92.1255 626.938 92.2838C627.008 92.4421 627.02 92.6204 626.971 92.7867L626.389 94.7495C626.362 94.8406 626.353 94.9362 626.363 95.0308C626.373 95.1254 626.401 95.2171 626.447 95.3006C626.492 95.3841 626.554 95.4578 626.628 95.5174C626.702 95.577 626.787 95.6214 626.879 95.6479L628.39 96.0991C628.575 96.153 628.773 96.1318 628.942 96.0401C629.111 95.9483 629.237 95.7935 629.292 95.6094L629.874 93.6466C629.924 93.4805 630.031 93.3377 630.177 93.2442C630.323 93.1507 630.497 93.1129 630.669 93.1376C631.619 93.2632 632.581 93.289 633.537 93.2148C633.71 93.1988 633.884 93.2457 634.025 93.3469C634.167 93.4482 634.267 93.597 634.308 93.7662L634.786 95.7559C634.808 95.8486 634.849 95.9361 634.905 96.0132C634.961 96.0904 635.031 96.1557 635.113 96.2055C635.194 96.2553 635.284 96.2885 635.378 96.3034C635.473 96.3182 635.569 96.3143 635.661 96.2919L637.204 95.9256C637.39 95.8799 637.551 95.7621 637.651 95.598C637.75 95.4339 637.781 95.2369 637.736 95.0502L637.261 93.0567C637.221 92.8886 637.243 92.7116 637.322 92.558C637.401 92.4045 637.533 92.2845 637.693 92.2199C638.579 91.8505 639.425 91.3919 640.218 90.851C640.361 90.7521 640.534 90.707 640.706 90.724C640.878 90.741 641.039 90.8188 641.159 90.9435L642.566 92.432C642.699 92.5708 642.882 92.6515 643.074 92.6566C643.266 92.6616 643.452 92.5906 643.592 92.459L644.749 91.3716C644.887 91.2393 644.968 91.0577 644.973 90.8662C644.978 90.6747 644.907 90.489 644.776 90.3497L643.368 88.8651C643.25 88.7385 643.181 88.5741 643.172 88.4012C643.164 88.2283 643.217 88.0579 643.322 87.9204C643.908 87.1599 644.411 86.3391 644.822 85.4718C644.897 85.3153 645.024 85.1905 645.183 85.1198C645.341 85.0491 645.519 85.0372 645.686 85.0862L647.648 85.6684C647.739 85.6957 647.835 85.7046 647.93 85.6947C648.025 85.6848 648.117 85.6563 648.201 85.6108C648.284 85.5653 648.358 85.5037 648.418 85.4296C648.478 85.3554 648.523 85.2702 648.55 85.1787L648.997 83.6671C649.029 83.5723 649.041 83.4719 649.032 83.3722C649.024 83.2726 648.994 83.1758 648.947 83.0879C648.899 83 648.834 82.9229 648.755 82.8613C648.676 82.7998 648.585 82.7551 648.488 82.7301ZM635.962 69.9704C635.984 69.8975 636.021 69.8299 636.07 69.7722C636.12 69.7144 636.181 69.6676 636.249 69.6349C636.318 69.6022 636.393 69.5842 636.469 69.5823C636.545 69.5803 636.62 69.5943 636.691 69.6233C638.065 70.2086 639.303 71.0729 640.327 72.1615C641.35 73.25 642.136 74.5391 642.636 75.9473C642.661 76.0188 642.671 76.0949 642.665 76.1705C642.659 76.2462 642.637 76.3197 642.601 76.3862C642.564 76.4528 642.514 76.511 642.454 76.5569C642.394 76.6029 642.324 76.6356 642.25 76.6529L634.964 78.3997C634.86 78.4252 634.751 78.4189 634.65 78.3818C634.55 78.3447 634.463 78.2784 634.401 78.1915C634.282 78.0229 634.142 77.8701 633.984 77.7365C633.905 77.6699 633.847 77.5813 633.817 77.4819C633.788 77.3825 633.788 77.2766 633.818 77.1774L635.962 69.9704ZM625.938 70.9807C627.124 70.0732 628.486 69.4222 629.936 69.069C631.387 68.7159 632.896 68.6683 634.366 68.9292C634.441 68.9429 634.512 68.9721 634.574 69.015C634.637 69.058 634.69 69.1137 634.73 69.1784C634.769 69.2432 634.795 69.3156 634.805 69.391C634.814 69.4663 634.808 69.5429 634.786 69.6156L632.646 76.8226C632.619 76.9238 632.563 77.0146 632.484 77.0834C632.405 77.1521 632.307 77.1956 632.203 77.2082C632.001 77.2332 631.803 77.2838 631.613 77.3586C631.514 77.3978 631.404 77.4062 631.3 77.3829C631.196 77.3595 631.101 77.3054 631.027 77.2275L625.872 71.7866C625.818 71.7328 625.776 71.668 625.748 71.5965C625.721 71.5251 625.71 71.4486 625.714 71.3722C625.719 71.2959 625.74 71.2215 625.776 71.1539C625.812 71.0864 625.862 71.0273 625.923 70.9807H625.938ZM633.699 79.9152C633.628 80.1562 633.487 80.3707 633.294 80.5315C633.101 80.6923 632.865 80.7923 632.615 80.8186C632.365 80.845 632.113 80.7965 631.891 80.6795C631.669 80.5625 631.486 80.3821 631.367 80.1612C631.247 79.9403 631.196 79.6889 631.219 79.4388C631.243 79.1886 631.34 78.9511 631.498 78.7563C631.657 78.5614 631.87 78.418 632.11 78.3442C632.35 78.2705 632.606 78.2697 632.847 78.3419C633.166 78.4407 633.433 78.6614 633.589 78.9562C633.746 79.2509 633.78 79.5956 633.684 79.9152H633.699ZM621.782 80.9486C621.592 79.4797 621.706 77.9873 622.117 76.5644C622.528 75.1414 623.228 73.8183 624.172 72.6773C624.221 72.6182 624.282 72.57 624.35 72.5362C624.419 72.5023 624.494 72.4835 624.571 72.4809C624.647 72.4784 624.724 72.4922 624.795 72.5214C624.865 72.5506 624.929 72.5946 624.982 72.6504L630.144 78.1221C630.215 78.1954 630.263 78.2875 630.283 78.3872C630.302 78.487 630.293 78.5904 630.256 78.6851L630.187 78.8818C630.156 78.988 630.133 79.0962 630.117 79.2057C630.102 79.3133 630.055 79.4139 629.983 79.4944C629.91 79.5748 629.814 79.6315 629.709 79.6568L622.422 81.4036C622.349 81.4198 622.273 81.4206 622.199 81.4061C622.126 81.3916 622.056 81.3621 621.995 81.3193C621.933 81.2766 621.881 81.2216 621.842 81.1578C621.802 81.094 621.777 81.0228 621.766 80.9486H621.782ZM628.991 89.1427C628.97 89.2155 628.934 89.283 628.885 89.3407C628.836 89.3983 628.775 89.4449 628.706 89.4774C628.638 89.5098 628.563 89.5273 628.487 89.5288C628.412 89.5303 628.336 89.5157 628.267 89.4859C626.916 88.9132 625.697 88.0706 624.684 87.0096C623.671 85.9486 622.885 84.6918 622.376 83.3162C622.349 83.244 622.338 83.1669 622.343 83.0901C622.349 83.0134 622.37 82.9386 622.407 82.8708C622.443 82.803 622.494 82.7437 622.555 82.6968C622.616 82.65 622.686 82.6166 622.761 82.599L630.086 80.8406C630.186 80.8176 630.29 80.8235 630.386 80.8577C630.483 80.8918 630.567 80.9528 630.63 81.0334C630.726 81.1529 630.833 81.2627 630.95 81.3612C631.031 81.4263 631.09 81.5138 631.121 81.6126C631.152 81.7114 631.153 81.8171 631.124 81.9165L628.991 89.1427ZM638.908 88.225C637.73 89.0997 636.385 89.7243 634.957 90.0605C633.529 90.3967 632.047 90.4374 630.603 90.18C630.528 90.1664 630.457 90.1372 630.395 90.0942C630.332 90.0513 630.279 89.9956 630.239 89.9308C630.2 89.8661 630.174 89.7936 630.164 89.7183C630.155 89.643 630.161 89.5664 630.183 89.4936L632.323 82.2789C632.352 82.1771 632.411 82.0862 632.492 82.0176C632.573 81.949 632.672 81.9058 632.778 81.8933C632.928 81.8737 633.076 81.8401 633.221 81.7931C633.318 81.7599 633.423 81.755 633.524 81.7789C633.624 81.8028 633.715 81.8545 633.788 81.928L638.981 87.4037C639.035 87.4608 639.076 87.5289 639.101 87.6033C639.125 87.6778 639.134 87.7567 639.126 87.8347C639.117 87.9128 639.092 87.9881 639.052 88.0554C639.011 88.1228 638.957 88.1807 638.892 88.225H638.908ZM642.829 82.626C642.401 84.0699 641.676 85.4083 640.7 86.5553C640.649 86.6116 640.587 86.6566 640.518 86.6873C640.449 86.7181 640.373 86.734 640.298 86.734C640.222 86.734 640.147 86.7181 640.077 86.6873C640.008 86.6566 639.946 86.6116 639.895 86.5553L634.736 81.1183C634.663 81.0408 634.615 80.9434 634.597 80.8384C634.579 80.7335 634.592 80.6256 634.636 80.5283C634.682 80.4254 634.722 80.3198 634.755 80.2121C634.755 80.1465 634.79 80.0771 634.806 80.0116C634.825 79.9146 634.872 79.8251 634.94 79.7535C635.008 79.6818 635.095 79.6309 635.191 79.6067L642.516 77.8483C642.591 77.8303 642.668 77.8284 642.743 77.8425C642.818 77.8566 642.889 77.8865 642.952 77.9303C643.015 77.974 643.068 78.0306 643.107 78.0962C643.146 78.1619 643.171 78.2351 643.18 78.3111C643.35 79.7593 643.225 81.2272 642.813 82.626H642.829Z" fill="#4B6884"/>
<path d="M607.324 61.3137H608.249C608.327 61.3145 608.402 61.3427 608.462 61.3935C608.521 61.4443 608.56 61.5143 608.573 61.5913C608.639 62.02 608.751 62.4403 608.908 62.8445C608.932 62.9155 608.931 62.9924 608.905 63.0625C608.879 63.1326 608.83 63.1918 608.766 63.2302L607.968 63.6929C607.93 63.7141 607.897 63.7425 607.871 63.7766C607.844 63.8107 607.825 63.8497 607.814 63.8914C607.803 63.9331 607.8 63.9765 607.806 64.0192C607.812 64.062 607.826 64.1031 607.848 64.1402L608.203 64.7572C608.247 64.8315 608.319 64.8856 608.402 64.9079C608.486 64.9302 608.575 64.919 608.65 64.8767L609.448 64.414C609.516 64.3752 609.596 64.3617 609.672 64.3758C609.749 64.3899 609.819 64.4307 609.868 64.4911C610.141 64.8289 610.448 65.1366 610.786 65.4088C610.846 65.4586 610.887 65.528 610.901 65.6049C610.915 65.6818 610.902 65.7612 610.863 65.8291L610.404 66.6273C610.382 66.6644 610.368 66.7056 610.362 66.7483C610.356 66.791 610.359 66.8345 610.37 66.8761C610.381 66.9178 610.401 66.9568 610.427 66.9909C610.453 67.025 610.486 67.0535 610.524 67.0746L611.137 67.4294C611.174 67.4514 611.215 67.4658 611.258 67.4716C611.301 67.4775 611.344 67.4748 611.386 67.4637C611.427 67.4526 611.466 67.4332 611.5 67.4068C611.534 67.3804 611.563 67.3474 611.584 67.3099L612.047 66.5117C612.086 66.4481 612.145 66.3998 612.215 66.3746C612.285 66.3493 612.362 66.3487 612.432 66.3728C612.837 66.5271 613.257 66.6382 613.685 66.7045C613.762 66.7172 613.832 66.7566 613.883 66.8159C613.934 66.8751 613.962 66.9504 613.963 67.0284V67.9538C613.963 68.0408 613.997 68.1241 614.059 68.1856C614.12 68.2471 614.204 68.2816 614.291 68.2816H615.004C615.09 68.2806 615.173 68.2456 615.233 68.1842C615.294 68.1229 615.328 68.0401 615.328 67.9538V67.0284C615.329 66.9498 615.357 66.8741 615.409 66.8148C615.461 66.7554 615.532 66.7163 615.609 66.7045C616.036 66.6382 616.455 66.527 616.858 66.3728C616.931 66.3444 617.012 66.3428 617.086 66.3682C617.16 66.3936 617.223 66.4444 617.263 66.5117L617.722 67.3099C617.743 67.3474 617.772 67.3804 617.806 67.4068C617.84 67.4332 617.879 67.4526 617.921 67.4637C617.962 67.4748 618.006 67.4775 618.048 67.4716C618.091 67.4658 618.132 67.4514 618.169 67.4294L618.786 67.0746C618.824 67.0535 618.857 67.025 618.883 66.9909C618.909 66.9568 618.929 66.9178 618.94 66.8761C618.951 66.8345 618.954 66.791 618.948 66.7483C618.942 66.7056 618.928 66.6644 618.906 66.6273L618.443 65.8291C618.404 65.761 618.391 65.6811 618.405 65.6039C618.42 65.5268 618.462 65.4576 618.524 65.4088C618.86 65.1365 619.167 64.8288 619.438 64.4911C619.487 64.4307 619.557 64.3899 619.634 64.3758C619.711 64.3617 619.79 64.3752 619.858 64.414L620.66 64.8767C620.735 64.9188 620.823 64.9299 620.906 64.9076C620.989 64.8852 621.06 64.8312 621.103 64.7572L621.462 64.1402C621.504 64.0648 621.515 63.9758 621.493 63.8922C621.471 63.8087 621.417 63.7371 621.342 63.6929L620.544 63.2302C620.479 63.1923 620.43 63.1332 620.404 63.0629C620.378 62.9926 620.377 62.9154 620.402 62.8445C620.557 62.4398 620.67 62.0197 620.737 61.5913C620.749 61.514 620.788 61.4435 620.847 61.3926C620.907 61.3417 620.983 61.3137 621.061 61.3137H621.982C622.069 61.3137 622.153 61.2792 622.214 61.2177C622.275 61.1562 622.31 61.0728 622.31 60.9859V60.2918C622.31 60.2049 622.275 60.1215 622.214 60.0601C622.153 59.9986 622.069 59.9641 621.982 59.9641H621.061C620.982 59.9639 620.906 59.9354 620.846 59.8837C620.787 59.832 620.748 59.7606 620.737 59.6826C620.669 59.2555 620.557 58.8368 620.402 58.4332C620.378 58.3623 620.379 58.2854 620.405 58.2152C620.431 58.1451 620.48 58.0859 620.544 58.0476L621.342 57.5887C621.417 57.5445 621.471 57.4729 621.493 57.3894C621.515 57.3058 621.504 57.2168 621.462 57.1414L621.103 56.5244C621.06 56.4504 620.989 56.3964 620.906 56.374C620.823 56.3517 620.735 56.3628 620.66 56.4049L619.858 56.8676C619.79 56.9068 619.71 56.9201 619.633 56.9052C619.556 56.8904 619.486 56.8483 619.438 56.7867C619.167 56.4501 618.86 56.1437 618.524 55.8728C618.462 55.824 618.42 55.7548 618.405 55.6777C618.391 55.6005 618.404 55.5206 618.443 55.4525L618.906 54.6504C618.928 54.6136 618.942 54.5728 618.948 54.5303C618.953 54.4879 618.951 54.4447 618.94 54.4034C618.928 54.362 618.909 54.3234 618.883 54.2896C618.856 54.2559 618.824 54.2278 618.786 54.207L618.169 53.8483C618.094 53.806 618.005 53.7948 617.921 53.8171C617.838 53.8395 617.766 53.8935 617.722 53.9679L617.263 54.7699C617.223 54.8372 617.16 54.888 617.086 54.9134C617.012 54.9388 616.931 54.9372 616.858 54.9088C616.455 54.7535 616.036 54.641 615.609 54.5733C615.532 54.563 615.46 54.5249 615.408 54.4661C615.357 54.4072 615.328 54.3316 615.328 54.2532V53.3278C615.328 53.2415 615.294 53.1587 615.233 53.0974C615.173 53.036 615.09 53.001 615.004 53H614.291C614.204 53 614.12 53.0345 614.059 53.096C613.997 53.1575 613.963 53.2408 613.963 53.3278V54.2532C613.963 54.331 613.935 54.4062 613.884 54.4649C613.833 54.5237 613.762 54.5622 613.685 54.5733C613.257 54.6407 612.837 54.7532 612.432 54.9088C612.362 54.9329 612.285 54.9323 612.215 54.907C612.145 54.8818 612.086 54.8335 612.047 54.7699L611.584 53.9679C611.54 53.8935 611.468 53.8395 611.385 53.8171C611.301 53.7948 611.212 53.806 611.137 53.8483L610.524 54.207C610.486 54.2278 610.454 54.2559 610.427 54.2896C610.401 54.3234 610.382 54.362 610.37 54.4034C610.359 54.4447 610.356 54.4879 610.362 54.5303C610.368 54.5728 610.382 54.6136 610.404 54.6504L610.863 55.4525C610.902 55.5204 610.915 55.5998 610.901 55.6767C610.887 55.7536 610.846 55.823 610.786 55.8728C610.448 56.1437 610.141 56.4501 609.868 56.7867C609.82 56.8483 609.751 56.8904 609.673 56.9052C609.596 56.9201 609.516 56.9068 609.448 56.8676L608.65 56.4049C608.575 56.3626 608.486 56.3514 608.402 56.3737C608.319 56.396 608.247 56.4501 608.203 56.5244L607.848 57.1414C607.826 57.1785 607.812 57.2196 607.806 57.2624C607.8 57.3051 607.803 57.3485 607.814 57.3902C607.825 57.4319 607.844 57.4709 607.871 57.505C607.897 57.5391 607.93 57.5675 607.968 57.5887L608.766 58.0476C608.829 58.0869 608.877 58.1462 608.903 58.216C608.929 58.2858 608.931 58.3622 608.908 58.4332C608.751 58.8361 608.639 59.2551 608.573 59.6826C608.561 59.7603 608.522 59.8312 608.463 59.8828C608.403 59.9343 608.328 59.9631 608.249 59.9641H607.324C607.238 59.9651 607.155 60.0001 607.095 60.0614C607.034 60.1228 607 60.2056 607 60.2918V61.0013C607.004 61.0849 607.04 61.1638 607.1 61.2219C607.16 61.2799 607.24 61.3128 607.324 61.3137ZM614.649 56.8291C615.401 56.8291 616.136 57.0521 616.761 57.4698C617.386 57.8876 617.874 58.4814 618.161 59.1762C618.449 59.8709 618.524 60.6354 618.378 61.3729C618.231 62.1104 617.869 62.7879 617.337 63.3196C616.806 63.8514 616.128 64.2135 615.391 64.3602C614.653 64.5069 613.889 64.4316 613.194 64.1438C612.5 63.8561 611.906 63.3687 611.488 62.7435C611.071 62.1182 610.848 61.3831 610.848 60.6312C610.846 60.1301 610.944 59.6337 611.135 59.1705C611.326 58.7073 611.607 58.2866 611.961 57.9324C612.316 57.5783 612.737 57.2978 613.2 57.1071C613.663 56.9165 614.16 56.8193 614.661 56.8214L614.649 56.8291Z" fill="#4B6884"/>
<path d="M601.348 145.96C596.592 146.009 591.874 145.115 587.467 143.329C583.059 141.543 579.049 138.9 575.669 135.555C572.289 132.209 569.605 128.226 567.774 123.836C565.943 119.447 565 114.737 565 109.981C565 105.224 565.943 100.515 567.774 96.1256C569.605 91.736 572.289 87.7531 575.669 84.4072C579.049 81.0614 583.059 78.419 587.467 76.633C591.874 74.8469 596.592 73.9527 601.348 74.0019C601.568 74.0019 601.78 74.0897 601.936 74.2459C602.093 74.4021 602.18 74.6139 602.18 74.8348C602.18 75.0557 602.093 75.2676 601.936 75.4238C601.78 75.58 601.568 75.6677 601.348 75.6677C594.561 75.6677 587.927 77.6805 582.284 81.4515C576.641 85.2226 572.243 90.5824 569.646 96.8534C567.049 103.124 566.369 110.025 567.693 116.682C569.017 123.339 572.285 129.454 577.084 134.254C581.883 139.053 587.997 142.322 594.653 143.646C601.309 144.97 608.209 144.291 614.479 141.693C620.749 139.096 626.108 134.697 629.878 129.053C633.648 123.41 635.661 116.774 635.661 109.987C635.661 109.766 635.749 109.554 635.905 109.398C636.061 109.242 636.273 109.154 636.494 109.154C636.715 109.154 636.926 109.242 637.083 109.398C637.239 109.554 637.327 109.766 637.327 109.987C637.313 119.525 633.518 128.669 626.773 135.413C620.028 142.157 610.885 145.95 601.348 145.96Z" fill="#4B6884"/>
</svg>
