<svg width="391" height="290" viewBox="0 0 391 290" fill="none" xmlns="http://www.w3.org/2000/svg">
<path d="M330.921 240.458V127.636L269.352 66.0592H180.697C180.606 65.3783 180.26 64.7576 179.728 64.3227C179.196 63.8878 178.519 63.6712 177.834 63.7169C177.149 63.7627 176.506 64.0672 176.037 64.5689C175.568 65.0705 175.307 65.7318 175.307 66.4188C175.307 67.1058 175.568 67.7671 176.037 68.2687C176.506 68.7704 177.149 69.0749 177.834 69.1206C178.519 69.1664 179.196 68.9498 179.728 68.5149C180.26 68.08 180.606 67.4593 180.697 66.7784H269.054L330.202 127.934V240.465C329.521 240.556 328.899 240.903 328.464 241.435C328.029 241.968 327.812 242.645 327.858 243.331C327.904 244.017 328.208 244.66 328.71 245.13C329.212 245.6 329.874 245.861 330.561 245.861C331.249 245.861 331.911 245.6 332.413 245.13C332.915 244.66 333.219 244.017 333.265 243.331C333.311 242.645 333.094 241.968 332.659 241.435C332.224 240.903 331.602 240.556 330.921 240.465V240.458Z" fill="#4B6884"/>
<path d="M398.171 123.696V2.78332H58.0941V0L52.6504 3.14289L58.0941 6.28577V3.50246H397.452V123.398L337.415 183.446V283.728C336.733 283.819 336.112 284.166 335.677 284.698C335.241 285.23 335.025 285.908 335.07 286.594C335.116 287.28 335.421 287.923 335.923 288.393C336.425 288.863 337.087 289.124 337.774 289.124C338.461 289.124 339.123 288.863 339.625 288.393C340.127 287.923 340.432 287.28 340.478 286.594C340.523 285.908 340.307 285.23 339.871 284.698C339.436 284.166 338.815 283.819 338.134 283.728V183.743L398.171 123.696Z" fill="#4B6884"/>
<path d="M120.343 19.5703H114.636C114.573 19.5703 114.51 19.5827 114.452 19.6068C114.394 19.6309 114.341 19.6662 114.297 19.7107C114.252 19.7553 114.217 19.8081 114.193 19.8663C114.169 19.9244 114.156 19.9868 114.156 20.0497C114.156 20.1127 114.169 20.175 114.193 20.2332C114.217 20.2914 114.252 20.3442 114.297 20.3887C114.341 20.4333 114.394 20.4686 114.452 20.4927C114.51 20.5168 114.573 20.5292 114.636 20.5292H120.343C120.406 20.5292 120.469 20.5168 120.527 20.4927C120.585 20.4686 120.638 20.4333 120.682 20.3887C120.727 20.3442 120.762 20.2914 120.786 20.2332C120.81 20.175 120.823 20.1127 120.823 20.0497C120.823 19.9868 120.81 19.9244 120.786 19.8663C120.762 19.8081 120.727 19.7553 120.682 19.7107C120.638 19.6662 120.585 19.6309 120.527 19.6068C120.469 19.5827 120.406 19.5703 120.343 19.5703Z" fill="#4B6884"/>
<path d="M157.613 27.0053C157.521 26.9349 157.407 26.9001 157.292 26.9072C157.176 26.9142 157.067 26.9628 156.985 27.0439C156.903 27.125 156.852 27.2331 156.843 27.3484C156.834 27.4636 156.867 27.5783 156.936 27.6711L160.973 31.7085C161.063 31.7981 161.184 31.8484 161.311 31.8484C161.438 31.8484 161.56 31.7981 161.65 31.7085C161.739 31.6183 161.79 31.4962 161.79 31.3689C161.79 31.2417 161.739 31.1196 161.65 31.0293L157.613 27.0053Z" fill="#4B6884"/>
<path d="M97.5113 19.5703H91.8036C91.7406 19.5703 91.6783 19.5827 91.6201 19.6068C91.562 19.6309 91.5092 19.6662 91.4647 19.7107C91.4201 19.7553 91.3848 19.8081 91.3607 19.8663C91.3366 19.9244 91.3242 19.9868 91.3242 20.0497C91.3242 20.1127 91.3366 20.175 91.3607 20.2332C91.3848 20.2914 91.4201 20.3442 91.4647 20.3887C91.5092 20.4333 91.562 20.4686 91.6201 20.4927C91.6783 20.5168 91.7406 20.5292 91.8036 20.5292H97.5113C97.6384 20.5292 97.7604 20.4786 97.8503 20.3887C97.9401 20.2988 97.9906 20.1769 97.9906 20.0497C97.9906 19.9226 97.9401 19.8006 97.8503 19.7107C97.7604 19.6208 97.6384 19.5703 97.5113 19.5703Z" fill="#4B6884"/>
<path d="M131.757 19.5703H126.05C125.923 19.5703 125.801 19.6208 125.711 19.7107C125.621 19.8006 125.57 19.9226 125.57 20.0497C125.57 20.1769 125.621 20.2988 125.711 20.3887C125.801 20.4786 125.923 20.5292 126.05 20.5292H131.757C131.82 20.5292 131.883 20.5168 131.941 20.4927C131.999 20.4686 132.052 20.4333 132.096 20.3887C132.141 20.3442 132.176 20.2914 132.2 20.2332C132.224 20.175 132.237 20.1127 132.237 20.0497C132.237 19.9868 132.224 19.9244 132.2 19.8663C132.176 19.8081 132.141 19.7553 132.096 19.7107C132.052 19.6662 131.999 19.6309 131.941 19.6068C131.883 19.5827 131.82 19.5703 131.757 19.5703Z" fill="#4B6884"/>
<path d="M150.182 19.5703H148.882C148.755 19.5703 148.633 19.6208 148.543 19.7107C148.453 19.8006 148.402 19.9226 148.402 20.0497C148.402 20.1769 148.453 20.2988 148.543 20.3887C148.633 20.4786 148.755 20.5292 148.882 20.5292H149.785L152.892 23.6365C152.936 23.6815 152.989 23.7172 153.047 23.7415C153.106 23.7659 153.168 23.7785 153.231 23.7785C153.294 23.7785 153.357 23.7659 153.415 23.7415C153.474 23.7172 153.526 23.6815 153.571 23.6365C153.657 23.5472 153.705 23.4278 153.705 23.3036C153.705 23.1794 153.657 23.06 153.571 22.9707L150.182 19.5703Z" fill="#4B6884"/>
<path d="M143.173 19.5703H137.466C137.339 19.5703 137.217 19.6208 137.127 19.7107C137.037 19.8006 136.986 19.9226 136.986 20.0497C136.986 20.1769 137.037 20.2988 137.127 20.3887C137.217 20.4786 137.339 20.5292 137.466 20.5292H143.173C143.301 20.5292 143.423 20.4786 143.512 20.3887C143.602 20.2988 143.653 20.1769 143.653 20.0497C143.653 19.9226 143.602 19.8006 143.512 19.7107C143.423 19.6208 143.301 19.5703 143.173 19.5703Z" fill="#4B6884"/>
<path d="M108.926 19.5703H103.214C103.151 19.5703 103.088 19.5827 103.03 19.6068C102.972 19.6309 102.919 19.6662 102.875 19.7107C102.83 19.7553 102.795 19.8081 102.771 19.8663C102.747 19.9244 102.734 19.9868 102.734 20.0497C102.734 20.1127 102.747 20.175 102.771 20.2332C102.795 20.2914 102.83 20.3442 102.875 20.3887C102.919 20.4333 102.972 20.4686 103.03 20.4927C103.088 20.5168 103.151 20.5292 103.214 20.5292H108.921C108.984 20.5292 109.047 20.5168 109.105 20.4927C109.163 20.4686 109.216 20.4333 109.26 20.3887C109.305 20.3442 109.34 20.2914 109.364 20.2332C109.388 20.175 109.401 20.1127 109.401 20.0497C109.401 19.9868 109.388 19.9244 109.364 19.8663C109.34 19.8081 109.305 19.7553 109.26 19.7107C109.216 19.6662 109.163 19.6309 109.105 19.6068C109.047 19.5827 108.984 19.5703 108.921 19.5703H108.926Z" fill="#4B6884"/>
<path d="M29.0191 19.5703H23.3114C23.2484 19.5703 23.1861 19.5827 23.128 19.6068C23.0698 19.6309 23.0169 19.6662 22.9724 19.7107C22.9279 19.7553 22.8926 19.8081 22.8685 19.8663C22.8444 19.9244 22.832 19.9868 22.832 20.0497C22.832 20.1127 22.8444 20.175 22.8685 20.2332C22.8926 20.2914 22.9279 20.3442 22.9724 20.3887C23.0169 20.4333 23.0698 20.4686 23.128 20.4927C23.1861 20.5168 23.2484 20.5292 23.3114 20.5292H29.0191C29.0821 20.5292 29.1444 20.5168 29.2026 20.4927C29.2607 20.4686 29.3136 20.4333 29.3581 20.3887C29.4026 20.3442 29.4379 20.2914 29.462 20.2332C29.4861 20.175 29.4985 20.1127 29.4985 20.0497C29.4985 19.9868 29.4861 19.9244 29.462 19.8663C29.4379 19.8081 29.4026 19.7553 29.3581 19.7107C29.3136 19.6662 29.2607 19.6309 29.2026 19.6068C29.1444 19.5827 29.0821 19.5703 29.0191 19.5703Z" fill="#4B6884"/>
<path d="M17.6011 19.5703H11.8934C11.8304 19.5703 11.7681 19.5827 11.7099 19.6068C11.6518 19.6309 11.599 19.6662 11.5544 19.7107C11.5099 19.7553 11.4746 19.8081 11.4505 19.8663C11.4264 19.9244 11.4141 19.9868 11.4141 20.0497C11.4141 20.1127 11.4264 20.175 11.4505 20.2332C11.4746 20.2914 11.5099 20.3442 11.5544 20.3887C11.599 20.4333 11.6518 20.4686 11.7099 20.4927C11.7681 20.5168 11.8304 20.5292 11.8934 20.5292H17.6011C17.6641 20.5292 17.7264 20.5168 17.7846 20.4927C17.8427 20.4686 17.8956 20.4333 17.9401 20.3887C17.9846 20.3442 18.0199 20.2914 18.044 20.2332C18.0681 20.175 18.0804 20.1127 18.0804 20.0497C18.0804 19.9868 18.0681 19.9244 18.044 19.8663C18.0199 19.8081 17.9846 19.7553 17.9401 19.7107C17.8956 19.6662 17.8427 19.6309 17.7846 19.6068C17.7264 19.5827 17.6641 19.5703 17.6011 19.5703Z" fill="#4B6884"/>
<path d="M6.18712 19.5703H0.479354C0.416405 19.5703 0.354059 19.5827 0.295902 19.6068C0.237745 19.6309 0.184891 19.6662 0.140379 19.7107C0.0958679 19.7553 0.0605794 19.8081 0.03649 19.8663C0.0124005 19.9244 0 19.9868 0 20.0497C0 20.1127 0.0124005 20.175 0.03649 20.2332C0.0605794 20.2914 0.0958679 20.3442 0.140379 20.3887C0.184891 20.4333 0.237745 20.4686 0.295902 20.4927C0.354059 20.5168 0.416405 20.5292 0.479354 20.5292H6.18712C6.25007 20.5292 6.31239 20.5168 6.37055 20.4927C6.4287 20.4686 6.48156 20.4333 6.52607 20.3887C6.57058 20.3442 6.6059 20.2914 6.62998 20.2332C6.65407 20.175 6.66645 20.1127 6.66645 20.0497C6.66645 19.9868 6.65407 19.9244 6.62998 19.8663C6.6059 19.8081 6.57058 19.7553 6.52607 19.7107C6.48156 19.6662 6.4287 19.6309 6.37055 19.6068C6.31239 19.5827 6.25007 19.5703 6.18712 19.5703Z" fill="#4B6884"/>
<path d="M74.6792 19.5703H68.9715C68.9086 19.5703 68.8462 19.5827 68.7881 19.6068C68.7299 19.6309 68.6771 19.6662 68.6326 19.7107C68.5881 19.7553 68.5527 19.8081 68.5287 19.8663C68.5046 19.9244 68.4922 19.9868 68.4922 20.0497C68.4922 20.1127 68.5046 20.175 68.5287 20.2332C68.5527 20.2914 68.5881 20.3442 68.6326 20.3887C68.6771 20.4333 68.7299 20.4686 68.7881 20.4927C68.8462 20.5168 68.9086 20.5292 68.9715 20.5292H74.6792C74.8064 20.5292 74.9283 20.4786 75.0182 20.3887C75.1081 20.2988 75.1586 20.1769 75.1586 20.0497C75.1586 19.9226 75.1081 19.8006 75.0182 19.7107C74.9283 19.6208 74.8064 19.5703 74.6792 19.5703Z" fill="#4B6884"/>
<path d="M63.2691 19.5703H57.5614C57.4342 19.5703 57.3123 19.6208 57.2224 19.7107C57.1325 19.8006 57.082 19.9226 57.082 20.0497C57.082 20.1769 57.1325 20.2988 57.2224 20.3887C57.3123 20.4786 57.4342 20.5292 57.5614 20.5292H63.2691C63.3962 20.5292 63.5181 20.4786 63.608 20.3887C63.6979 20.2988 63.7484 20.1769 63.7484 20.0497C63.7484 19.9226 63.6979 19.8006 63.608 19.7107C63.5181 19.6208 63.3962 19.5703 63.2691 19.5703Z" fill="#4B6884"/>
<path d="M40.4332 19.5703H34.7254C34.5983 19.5703 34.4764 19.6208 34.3865 19.7107C34.2966 19.8006 34.2461 19.9226 34.2461 20.0497C34.2461 20.1769 34.2966 20.2988 34.3865 20.3887C34.4764 20.4786 34.5983 20.5292 34.7254 20.5292H40.4332C40.4961 20.5292 40.5584 20.5168 40.6166 20.4927C40.6747 20.4686 40.7276 20.4333 40.7721 20.3887C40.8166 20.3442 40.8519 20.2914 40.876 20.2332C40.9001 20.175 40.9125 20.1127 40.9125 20.0497C40.9125 19.9868 40.9001 19.9244 40.876 19.8663C40.8519 19.8081 40.8166 19.7553 40.7721 19.7107C40.7276 19.6662 40.6747 19.6309 40.6166 19.6068C40.5584 19.5827 40.4961 19.5703 40.4332 19.5703Z" fill="#4B6884"/>
<path d="M51.8494 19.5703H46.1415C46.0144 19.5703 45.8924 19.6208 45.8025 19.7107C45.7126 19.8006 45.6621 19.9226 45.6621 20.0497C45.6621 20.1769 45.7126 20.2988 45.8025 20.3887C45.8924 20.4786 46.0144 20.5292 46.1415 20.5292H51.8494C51.9765 20.5292 52.0985 20.4786 52.1884 20.3887C52.2782 20.2988 52.3287 20.1769 52.3287 20.0497C52.3287 19.9226 52.2782 19.8006 52.1884 19.7107C52.0985 19.6208 51.9765 19.5703 51.8494 19.5703Z" fill="#4B6884"/>
<path d="M86.0954 19.5703H80.3875C80.3246 19.5703 80.2623 19.5827 80.2041 19.6068C80.146 19.6309 80.0931 19.6662 80.0486 19.7107C80.0041 19.7553 79.9688 19.8081 79.9447 19.8663C79.9206 19.9244 79.9082 19.9868 79.9082 20.0497C79.9082 20.1127 79.9206 20.175 79.9447 20.2332C79.9688 20.2914 80.0041 20.3442 80.0486 20.3887C80.0931 20.4333 80.146 20.4686 80.2041 20.4927C80.2623 20.5168 80.3246 20.5292 80.3875 20.5292H86.0954C86.2225 20.5292 86.3444 20.4786 86.4343 20.3887C86.5242 20.2988 86.5747 20.1769 86.5747 20.0497C86.5747 19.9226 86.5242 19.8006 86.4343 19.7107C86.3444 19.6208 86.2225 19.5703 86.0954 19.5703Z" fill="#4B6884"/>
<path d="M267.971 45.9844H266.196L263.127 49.054C263.037 49.1441 262.986 49.2662 262.986 49.3936C262.986 49.521 263.037 49.6431 263.127 49.7332C263.217 49.8233 263.339 49.8739 263.467 49.8739C263.594 49.8739 263.716 49.8233 263.806 49.7332L266.593 46.9432H267.963C268.09 46.9432 268.212 46.8927 268.302 46.8028C268.391 46.7129 268.442 46.5909 268.442 46.4638C268.442 46.3366 268.391 46.2147 268.302 46.1248C268.212 46.0349 268.09 45.9844 267.963 45.9844H267.971Z" fill="#4B6884"/>
<path d="M251.028 61.1644L250.917 61.2754H245.765C245.637 61.2754 245.515 61.3259 245.426 61.4158C245.336 61.5057 245.285 61.6277 245.285 61.7548C245.285 61.882 245.336 62.0039 245.426 62.0939C245.515 62.1838 245.637 62.2343 245.765 62.2343H251.312L251.705 61.8414C251.75 61.7968 251.785 61.7439 251.809 61.6857C251.833 61.6275 251.845 61.5651 251.845 61.5021C251.845 61.4392 251.833 61.3768 251.808 61.3187C251.784 61.2606 251.749 61.2078 251.704 61.1633C251.66 61.1189 251.607 61.0836 251.548 61.0596C251.49 61.0356 251.428 61.0233 251.365 61.0234C251.302 61.0235 251.24 61.036 251.182 61.0602C251.123 61.0844 251.071 61.1198 251.026 61.1644H251.028Z" fill="#4B6884"/>
<path d="M259.101 53.0933L255.064 57.1285C254.992 57.22 254.955 57.3348 254.962 57.4513C254.968 57.5678 255.016 57.678 255.098 57.7613C255.18 57.8446 255.289 57.8952 255.405 57.9038C255.521 57.9123 255.637 57.8782 255.73 57.8077L259.767 53.7703C259.815 53.7268 259.854 53.6739 259.882 53.6148C259.909 53.5556 259.924 53.4915 259.926 53.4263C259.928 53.3611 259.916 53.2963 259.892 53.2357C259.868 53.1751 259.832 53.1201 259.786 53.074C259.74 53.0279 259.685 52.9917 259.624 52.9676C259.564 52.9435 259.499 52.932 259.434 52.9338C259.368 52.9356 259.304 52.9507 259.245 52.9781C259.186 53.0055 259.133 53.0447 259.09 53.0933H259.101Z" fill="#4B6884"/>
<path d="M279.384 45.9844H273.679C273.616 45.9844 273.553 45.9968 273.495 46.0209C273.437 46.045 273.384 46.0803 273.34 46.1248C273.295 46.1693 273.26 46.2222 273.236 46.2803C273.212 46.3385 273.199 46.4008 273.199 46.4638C273.199 46.5267 273.212 46.5891 273.236 46.6473C273.26 46.7054 273.295 46.7583 273.34 46.8028C273.384 46.8473 273.437 46.8826 273.495 46.9067C273.553 46.9308 273.616 46.9432 273.679 46.9432H279.384C279.447 46.9432 279.51 46.9308 279.568 46.9067C279.626 46.8826 279.679 46.8473 279.723 46.8028C279.768 46.7583 279.803 46.7054 279.827 46.6473C279.851 46.5891 279.864 46.5267 279.864 46.4638C279.864 46.4008 279.851 46.3385 279.827 46.2803C279.803 46.2222 279.768 46.1693 279.723 46.1248C279.679 46.0803 279.626 46.045 279.568 46.0209C279.51 45.9968 279.447 45.9844 279.384 45.9844Z" fill="#4B6884"/>
<path d="M165.687 35.0758C165.595 35.0035 165.48 34.9671 165.364 34.9733C165.247 34.9796 165.137 35.0281 165.054 35.1097C164.971 35.1914 164.92 35.3006 164.911 35.417C164.903 35.5333 164.937 35.6487 165.008 35.7417L169.044 39.7791C169.085 39.8342 169.137 39.8799 169.197 39.9131C169.257 39.9463 169.324 39.9662 169.392 39.9716C169.46 39.9769 169.529 39.9675 169.594 39.944C169.658 39.9205 169.717 39.8835 169.765 39.8354C169.814 39.7873 169.852 39.7293 169.877 39.6652C169.901 39.6012 169.912 39.5326 169.908 39.4642C169.904 39.3957 169.885 39.329 169.852 39.2684C169.82 39.2079 169.775 39.1549 169.721 39.1132L165.687 35.0758Z" fill="#4B6884"/>
<path d="M313.63 45.9844H307.925C307.862 45.9844 307.799 45.9968 307.741 46.0209C307.683 46.045 307.63 46.0803 307.586 46.1248C307.541 46.1693 307.506 46.2222 307.482 46.2803C307.458 46.3385 307.445 46.4008 307.445 46.4638C307.445 46.5267 307.458 46.5891 307.482 46.6473C307.506 46.7054 307.541 46.7583 307.586 46.8028C307.63 46.8473 307.683 46.8826 307.741 46.9067C307.799 46.9308 307.862 46.9432 307.925 46.9432H313.63C313.757 46.9432 313.879 46.8927 313.969 46.8028C314.059 46.7129 314.11 46.5909 314.11 46.4638C314.11 46.3366 314.059 46.2147 313.969 46.1248C313.879 46.0349 313.757 45.9844 313.63 45.9844Z" fill="#4B6884"/>
<path d="M302.219 45.9844H296.507C296.38 45.9844 296.258 46.0349 296.168 46.1248C296.078 46.2147 296.027 46.3366 296.027 46.4638C296.027 46.5909 296.078 46.7129 296.168 46.8028C296.258 46.8927 296.38 46.9432 296.507 46.9432H302.217C302.28 46.9432 302.342 46.9308 302.4 46.9067C302.458 46.8826 302.511 46.8473 302.556 46.8028C302.6 46.7583 302.635 46.7054 302.659 46.6473C302.684 46.5891 302.696 46.5267 302.696 46.4638C302.696 46.4008 302.684 46.3385 302.659 46.2803C302.635 46.2222 302.6 46.1693 302.556 46.1248C302.511 46.0803 302.458 46.045 302.4 46.0209C302.342 45.9968 302.28 45.9844 302.217 45.9844H302.219Z" fill="#4B6884"/>
<path d="M290.8 45.9844H285.093C284.966 45.9844 284.844 46.0349 284.754 46.1248C284.664 46.2147 284.613 46.3366 284.613 46.4638C284.613 46.5909 284.664 46.7129 284.754 46.8028C284.844 46.8927 284.966 46.9432 285.093 46.9432H290.8C290.928 46.9432 291.049 46.8927 291.139 46.8028C291.229 46.7129 291.28 46.5909 291.28 46.4638C291.28 46.3366 291.229 46.2147 291.139 46.1248C291.049 46.0349 290.928 45.9844 290.8 45.9844Z" fill="#4B6884"/>
<path d="M194.395 61.2749H191.88L189.903 59.2972C189.858 59.2526 189.806 59.2172 189.748 59.193C189.689 59.1689 189.627 59.1564 189.564 59.1563C189.501 59.1561 189.439 59.1684 189.381 59.1924C189.322 59.2164 189.27 59.2517 189.225 59.2961C189.18 59.3406 189.145 59.3934 189.121 59.4515C189.097 59.5096 189.084 59.572 189.084 59.6349C189.084 59.6979 189.096 59.7603 189.12 59.8185C189.144 59.8767 189.179 59.9296 189.224 59.9742L191.483 62.2337H194.395C194.522 62.2337 194.644 62.1832 194.734 62.0933C194.823 62.0034 194.874 61.8814 194.874 61.7543C194.874 61.6271 194.823 61.5052 194.734 61.4153C194.644 61.3254 194.522 61.2749 194.395 61.2749Z" fill="#4B6884"/>
<path d="M240.056 61.2734H234.348C234.221 61.2734 234.099 61.324 234.01 61.4139C233.92 61.5038 233.869 61.6257 233.869 61.7529C233.869 61.88 233.92 62.002 234.01 62.0919C234.099 62.1818 234.221 62.2323 234.348 62.2323H240.056C240.183 62.2323 240.305 62.1818 240.395 62.0919C240.485 62.002 240.536 61.88 240.536 61.7529C240.536 61.6257 240.485 61.5038 240.395 61.4139C240.305 61.324 240.183 61.2734 240.056 61.2734Z" fill="#4B6884"/>
<path d="M173.757 43.1516C173.667 43.0618 173.545 43.0115 173.418 43.0117C173.291 43.0119 173.169 43.0626 173.079 43.1527C172.99 43.2428 172.939 43.3648 172.939 43.492C172.94 43.6191 172.99 43.741 173.08 43.8308L177.113 47.866C177.204 47.9382 177.319 47.9747 177.436 47.9684C177.552 47.9622 177.662 47.9137 177.745 47.832C177.829 47.7504 177.879 47.6412 177.888 47.5248C177.897 47.4085 177.862 47.293 177.792 47.2001L173.757 43.1516Z" fill="#4B6884"/>
<path d="M181.83 51.2237C181.739 51.142 181.62 51.0983 181.497 51.1017C181.375 51.1051 181.258 51.1553 181.172 51.242C181.085 51.3286 181.035 51.4452 181.031 51.5677C181.028 51.6902 181.072 51.8093 181.153 51.9007L185.19 55.938C185.28 56.0276 185.402 56.0779 185.529 56.0779C185.655 56.0779 185.777 56.0276 185.867 55.938C185.957 55.8478 186.007 55.7257 186.007 55.5985C186.007 55.4712 185.957 55.3491 185.867 55.2589L181.83 51.2237Z" fill="#4B6884"/>
<path d="M228.64 61.2734H222.932C222.805 61.2734 222.683 61.324 222.594 61.4139C222.504 61.5038 222.453 61.6257 222.453 61.7529C222.453 61.88 222.504 62.002 222.594 62.0919C222.683 62.1818 222.805 62.2323 222.932 62.2323H228.64C228.767 62.2323 228.889 62.1818 228.979 62.0919C229.069 62.002 229.12 61.88 229.12 61.7529C229.12 61.6257 229.069 61.5038 228.979 61.4139C228.889 61.324 228.767 61.2734 228.64 61.2734Z" fill="#4B6884"/>
<path d="M217.225 61.2734H211.511C211.383 61.2734 211.262 61.324 211.172 61.4139C211.082 61.5038 211.031 61.6257 211.031 61.7529C211.031 61.88 211.082 62.002 211.172 62.0919C211.262 62.1818 211.383 62.2323 211.511 62.2323H217.218C217.345 62.2323 217.467 62.1818 217.557 62.0919C217.647 62.002 217.698 61.88 217.698 61.7529C217.698 61.6257 217.647 61.5038 217.557 61.4139C217.467 61.324 217.345 61.2734 217.218 61.2734H217.225Z" fill="#4B6884"/>
<path d="M205.81 61.2734H200.102C199.975 61.2734 199.853 61.324 199.763 61.4139C199.674 61.5038 199.623 61.6257 199.623 61.7529C199.623 61.88 199.674 62.002 199.763 62.0919C199.853 62.1818 199.975 62.2323 200.102 62.2323H205.81C205.937 62.2323 206.059 62.1818 206.149 62.0919C206.239 62.002 206.289 61.88 206.289 61.7529C206.289 61.6257 206.239 61.5038 206.149 61.4139C206.059 61.324 205.937 61.2734 205.81 61.2734Z" fill="#4B6884"/>
<path d="M373.028 47.6202L371.898 47.2851C371.803 47.2564 371.721 47.1945 371.667 47.1107C371.613 47.0268 371.591 46.9265 371.605 46.8279C371.677 46.2805 371.692 45.727 371.65 45.1765C371.64 45.0767 371.667 44.977 371.726 44.8955C371.784 44.814 371.869 44.7562 371.967 44.7326L373.121 44.4707C373.174 44.4579 373.224 44.4348 373.269 44.4025C373.313 44.3703 373.351 44.3296 373.38 44.2828C373.408 44.236 373.427 44.184 373.436 44.1298C373.444 44.0756 373.442 44.0202 373.429 43.9669L373.218 43.079C373.206 43.0257 373.183 42.9753 373.15 42.9309C373.118 42.8865 373.077 42.8489 373.031 42.8203C372.984 42.7916 372.932 42.7725 372.878 42.7639C372.823 42.7554 372.768 42.7576 372.715 42.7705L371.57 43.0457C371.473 43.0695 371.37 43.0574 371.281 43.0118C371.192 42.9661 371.123 42.8899 371.086 42.7972C370.875 42.2862 370.611 41.7989 370.298 41.3433C370.241 41.2615 370.215 41.162 370.225 41.0627C370.235 40.9635 370.279 40.871 370.351 40.8018L371.208 39.9916C371.288 39.9152 371.334 39.8102 371.337 39.6996C371.34 39.5891 371.299 39.4818 371.223 39.4012L370.6 38.7354C370.523 38.6555 370.418 38.609 370.308 38.6061C370.197 38.6032 370.09 38.6441 370.009 38.7198L369.155 39.53C369.082 39.5984 368.988 39.6386 368.888 39.6435C368.788 39.6484 368.69 39.6176 368.611 39.5566C368.174 39.2194 367.701 38.93 367.202 38.6932C367.112 38.6499 367.041 38.5762 367 38.4852C366.96 38.3942 366.953 38.2918 366.98 38.196L367.315 37.0663C367.347 36.9603 367.335 36.8461 367.283 36.7487C367.231 36.6513 367.142 36.5787 367.036 36.5469L366.164 36.2894C366.111 36.2738 366.056 36.2687 366.002 36.2744C365.947 36.2801 365.894 36.2965 365.846 36.3227C365.798 36.3489 365.756 36.3844 365.722 36.427C365.687 36.4697 365.662 36.5187 365.647 36.5713L365.311 37.7011C365.282 37.7963 365.22 37.8781 365.135 37.9317C365.051 37.9854 364.951 38.0074 364.852 37.994C364.305 37.9206 363.751 37.9057 363.201 37.9496C363.101 37.9589 363.002 37.9318 362.92 37.8736C362.839 37.8153 362.781 37.7296 362.757 37.6323L362.469 36.4803C362.456 36.427 362.433 36.3767 362.401 36.3323C362.369 36.288 362.329 36.2503 362.282 36.2217C362.235 36.193 362.184 36.1738 362.13 36.1653C362.076 36.1567 362.02 36.1589 361.967 36.1718L361.079 36.3937C361.026 36.4065 360.976 36.4297 360.931 36.4619C360.887 36.4942 360.849 36.5349 360.821 36.5817C360.792 36.6285 360.773 36.6805 360.764 36.7347C360.756 36.7889 360.758 36.8442 360.771 36.8976L361.044 38.0429C361.068 38.1399 361.056 38.2423 361.01 38.3312C360.964 38.4201 360.888 38.4895 360.795 38.5267C360.285 38.738 359.798 39.0021 359.342 39.3147C359.26 39.3721 359.161 39.3981 359.062 39.3879C358.963 39.3777 358.871 39.332 358.803 39.2592L357.99 38.4047C357.953 38.3648 357.907 38.3328 357.857 38.3105C357.807 38.2882 357.753 38.2759 357.698 38.2745C357.644 38.273 357.589 38.2824 357.538 38.3021C357.487 38.3218 357.44 38.3513 357.4 38.3891L356.734 39.0128C356.654 39.0893 356.608 39.1942 356.605 39.3048C356.602 39.4154 356.643 39.5226 356.719 39.6032L357.529 40.4577C357.598 40.5302 357.638 40.6249 357.643 40.7247C357.648 40.8245 357.617 40.9227 357.555 41.0015C357.218 41.4392 356.929 41.9117 356.692 42.411C356.649 42.5007 356.575 42.5723 356.484 42.6129C356.393 42.6535 356.291 42.6606 356.195 42.6329L355.065 42.2978C355.013 42.2821 354.958 42.2769 354.904 42.2824C354.85 42.288 354.797 42.3043 354.749 42.3302C354.701 42.3562 354.658 42.3914 354.624 42.4338C354.59 42.4763 354.564 42.525 354.548 42.5774L354.289 43.4497C354.273 43.5022 354.268 43.5572 354.274 43.6117C354.279 43.6661 354.296 43.7189 354.322 43.7669C354.348 43.815 354.384 43.8574 354.426 43.8917C354.469 43.926 354.518 43.9516 354.571 43.9669L355.7 44.302C355.796 44.3312 355.878 44.3935 355.931 44.4777C355.985 44.5619 356.007 44.6625 355.993 44.7615C355.921 45.3089 355.906 45.8623 355.949 46.4128C355.957 46.5125 355.93 46.612 355.872 46.6934C355.814 46.7748 355.728 46.8327 355.631 46.8567L354.502 47.1342C354.448 47.1467 354.398 47.1696 354.354 47.2016C354.309 47.2337 354.272 47.2742 354.243 47.3208C354.214 47.3674 354.195 47.4192 354.187 47.4733C354.178 47.5274 354.18 47.5826 354.193 47.6358L354.404 48.5236C354.43 48.6311 354.498 48.7238 354.592 48.7816C354.687 48.8394 354.8 48.8575 354.908 48.8321L356.055 48.5569C356.152 48.5343 356.254 48.5472 356.342 48.5932C356.431 48.6392 356.5 48.7153 356.537 48.8077C356.749 49.3175 357.013 49.8039 357.325 50.2593C357.382 50.3412 357.407 50.4406 357.398 50.5399C357.388 50.6391 357.343 50.7317 357.271 50.8009L356.415 51.6132C356.335 51.6893 356.289 51.7939 356.286 51.9041C356.283 52.0143 356.324 52.1212 356.399 52.2014L357.025 52.8673C357.062 52.9072 357.107 52.9393 357.157 52.9618C357.207 52.9843 357.261 52.9967 357.315 52.9984C357.37 53 357.424 52.9909 357.476 52.9714C357.527 52.952 357.573 52.9226 357.613 52.885L358.467 52.0749C358.54 52.0061 358.635 51.9656 358.734 51.9607C358.834 51.9558 358.932 51.9869 359.011 52.0483C359.449 52.3854 359.921 52.6749 360.42 52.9117C360.51 52.9546 360.582 53.0282 360.623 53.1194C360.664 53.2105 360.67 53.3131 360.642 53.4088L360.307 54.5386C360.292 54.5911 360.286 54.6461 360.292 54.7005C360.298 54.755 360.314 54.8078 360.34 54.8558C360.367 54.9039 360.402 54.9463 360.445 54.9806C360.487 55.0149 360.536 55.0405 360.589 55.0558L361.459 55.3154C361.565 55.3465 361.679 55.3343 361.777 55.2815C361.874 55.2287 361.946 55.1396 361.978 55.0336L362.313 53.9038C362.342 53.8082 362.403 53.726 362.487 53.6722C362.571 53.6184 362.672 53.5966 362.77 53.6108C363.318 53.6831 363.871 53.698 364.422 53.6552C364.521 53.646 364.621 53.673 364.703 53.7313C364.784 53.7896 364.842 53.8752 364.865 53.9726L365.141 55.1179C365.153 55.1713 365.176 55.2216 365.209 55.266C365.241 55.3104 365.282 55.348 365.328 55.3767C365.375 55.4053 365.427 55.4245 365.481 55.433C365.536 55.4415 365.591 55.4393 365.644 55.4264L366.532 55.2156C366.639 55.1893 366.732 55.1215 366.789 55.027C366.847 54.9325 366.864 54.8191 366.838 54.7117L366.565 53.5642C366.542 53.4675 366.555 53.3656 366.6 53.2772C366.646 53.1888 366.722 53.1197 366.814 53.0826C367.324 52.87 367.811 52.606 368.267 52.2946C368.349 52.2377 368.449 52.2118 368.548 52.2215C368.647 52.2313 368.74 52.2761 368.809 52.3479L369.619 53.2046C369.695 53.2845 369.8 53.331 369.911 53.3339C370.021 53.3368 370.129 53.2959 370.209 53.2202L370.875 52.5943C370.955 52.5182 371.001 52.4136 371.004 52.3034C371.007 52.1932 370.966 52.0863 370.891 52.0061L370.081 51.1516C370.013 51.0787 369.973 50.9841 369.968 50.8845C369.963 50.785 369.993 50.6869 370.054 50.6078C370.391 50.1701 370.68 49.6976 370.917 49.1983C370.96 49.1083 371.034 49.0364 371.125 48.9958C371.216 48.9551 371.319 48.9482 371.414 48.9764L372.544 49.3115C372.596 49.3272 372.652 49.3324 372.706 49.3267C372.761 49.321 372.814 49.3046 372.862 49.2784C372.91 49.2522 372.953 49.2167 372.987 49.1741C373.022 49.1314 373.048 49.0823 373.063 49.0297L373.321 48.1596C373.339 48.105 373.346 48.0472 373.341 47.9899C373.336 47.9325 373.319 47.8768 373.291 47.8262C373.264 47.7756 373.226 47.7312 373.181 47.6958C373.136 47.6603 373.083 47.6346 373.028 47.6202ZM365.817 40.2757C365.83 40.2338 365.851 40.1949 365.88 40.1616C365.908 40.1284 365.943 40.1015 365.983 40.0826C366.022 40.0638 366.065 40.0535 366.109 40.0523C366.153 40.0512 366.196 40.0592 366.237 40.076C367.028 40.4129 367.741 40.9104 368.33 41.5369C368.919 42.1635 369.371 42.9055 369.659 43.7161C369.673 43.7572 369.679 43.801 369.676 43.8445C369.672 43.8881 369.66 43.9304 369.639 43.9687C369.618 44.007 369.589 44.0405 369.554 44.067C369.519 44.0934 369.479 44.1122 369.437 44.1222L365.243 45.1277C365.183 45.1423 365.12 45.1387 365.062 45.1174C365.005 45.096 364.955 45.0579 364.919 45.0078C364.85 44.9108 364.77 44.8228 364.679 44.7459C364.633 44.7076 364.6 44.6566 364.583 44.5994C364.566 44.5421 364.566 44.4812 364.584 44.4241L365.817 40.2757ZM360.048 40.8573C360.73 40.3349 361.514 39.9602 362.349 39.7569C363.184 39.5536 364.052 39.5262 364.899 39.6765C364.942 39.6843 364.983 39.7011 365.019 39.7258C365.055 39.7506 365.085 39.7826 365.108 39.8199C365.131 39.8572 365.146 39.8989 365.151 39.9422C365.157 39.9856 365.153 40.0297 365.141 40.0715L363.909 44.2199C363.893 44.2781 363.861 44.3304 363.815 44.37C363.77 44.4095 363.714 44.4346 363.654 44.4418C363.537 44.4562 363.423 44.4853 363.314 44.5284C363.257 44.551 363.194 44.5558 363.134 44.5424C363.074 44.5289 363.019 44.4978 362.977 44.4529L360.01 41.3212C359.978 41.2902 359.954 41.2529 359.938 41.2118C359.923 41.1706 359.916 41.1266 359.919 41.0827C359.922 41.0387 359.934 40.9959 359.954 40.957C359.975 40.9181 360.004 40.8841 360.039 40.8573H360.048ZM364.515 46C364.474 46.1387 364.393 46.2621 364.282 46.3547C364.171 46.4473 364.035 46.5048 363.891 46.52C363.747 46.5352 363.602 46.5073 363.474 46.4399C363.346 46.3726 363.241 46.2687 363.172 46.1416C363.103 46.0144 363.074 45.8697 363.087 45.7257C363.101 45.5818 363.157 45.445 363.248 45.3329C363.339 45.2207 363.462 45.1382 363.6 45.0957C363.738 45.0533 363.886 45.0528 364.024 45.0944C364.208 45.1512 364.361 45.2783 364.452 45.448C364.542 45.6176 364.561 45.816 364.506 46H364.515ZM357.655 46.5948C357.546 45.7493 357.611 44.8903 357.848 44.0712C358.085 43.2522 358.488 42.4906 359.031 41.8339C359.059 41.7998 359.094 41.7721 359.134 41.7526C359.173 41.7331 359.217 41.7223 359.261 41.7208C359.305 41.7193 359.349 41.7273 359.389 41.7441C359.43 41.7609 359.467 41.7862 359.497 41.8183L362.469 44.9679C362.509 45.0101 362.537 45.0631 362.548 45.1205C362.56 45.1779 362.554 45.2374 362.533 45.2919L362.493 45.4051C362.476 45.4663 362.462 45.5286 362.453 45.5916C362.445 45.6535 362.418 45.7114 362.376 45.7577C362.334 45.8041 362.279 45.8367 362.218 45.8513L358.024 46.8567C357.981 46.866 357.938 46.8665 357.896 46.8582C357.853 46.8498 357.813 46.8328 357.778 46.8082C357.742 46.7836 357.712 46.752 357.69 46.7152C357.667 46.6785 357.652 46.6375 357.646 46.5948H357.655ZM361.805 51.3114C361.793 51.3533 361.772 51.3921 361.744 51.4253C361.715 51.4585 361.68 51.4853 361.641 51.504C361.602 51.5226 361.559 51.5327 361.515 51.5336C361.471 51.5344 361.428 51.526 361.388 51.5089C360.611 51.1793 359.909 50.6942 359.326 50.0835C358.743 49.4728 358.29 48.7494 357.997 47.9576C357.982 47.916 357.975 47.8717 357.978 47.8275C357.982 47.7833 357.994 47.7402 358.015 47.7012C358.036 47.6622 358.065 47.6281 358.1 47.6011C358.135 47.5741 358.176 47.5549 358.219 47.5448L362.435 46.5327C362.493 46.5194 362.553 46.5228 362.608 46.5425C362.663 46.5621 362.712 46.5972 362.748 46.6436C362.803 46.7124 362.865 46.7756 362.932 46.8323C362.979 46.8698 363.013 46.9201 363.031 46.977C363.049 47.0339 363.049 47.0947 363.032 47.1519L361.805 51.3114ZM367.513 50.7831C366.835 51.2866 366.061 51.6461 365.239 51.8396C364.417 52.0332 363.564 52.0566 362.733 51.9084C362.69 51.9006 362.649 51.8838 362.613 51.859C362.577 51.8343 362.546 51.8023 362.523 51.765C362.501 51.7277 362.486 51.686 362.48 51.6426C362.475 51.5993 362.478 51.5552 362.491 51.5133L363.722 47.3606C363.739 47.3019 363.773 47.2496 363.82 47.2101C363.867 47.1707 363.924 47.1458 363.984 47.1386C364.071 47.1273 364.156 47.108 364.24 47.0809C364.296 47.0618 364.356 47.059 364.414 47.0727C364.472 47.0865 364.524 47.1162 364.566 47.1586L367.555 50.3103C367.586 50.3432 367.61 50.3825 367.624 50.4253C367.638 50.4681 367.643 50.5136 367.638 50.5585C367.633 50.6034 367.619 50.6467 367.596 50.6855C367.573 50.7243 367.541 50.7576 367.504 50.7831H367.513ZM369.77 47.5603C369.524 48.3914 369.106 49.1618 368.545 49.822C368.515 49.8544 368.48 49.8803 368.44 49.898C368.4 49.9157 368.357 49.9249 368.313 49.9249C368.269 49.9249 368.226 49.9157 368.186 49.898C368.146 49.8803 368.11 49.8544 368.081 49.822L365.112 46.6925C365.07 46.6479 365.042 46.5918 365.032 46.5314C365.021 46.471 365.029 46.4089 365.054 46.3529C365.081 46.2936 365.104 46.2329 365.123 46.1709C365.123 46.1331 365.143 46.0932 365.152 46.0555C365.163 45.9996 365.19 45.9481 365.229 45.9069C365.268 45.8656 365.318 45.8364 365.374 45.8224L369.59 44.8103C369.633 44.7999 369.677 44.7988 369.721 44.8069C369.764 44.8151 369.805 44.8323 369.841 44.8575C369.877 44.8826 369.907 44.9152 369.93 44.953C369.952 44.9908 369.967 45.0329 369.972 45.0766C370.07 45.9103 369.998 46.7552 369.761 47.5603H369.77Z" fill="#4B6884"/>
<path d="M349.333 35.2932H349.866C349.91 35.2936 349.954 35.3099 349.988 35.3391C350.022 35.3683 350.045 35.4087 350.052 35.453C350.09 35.6998 350.155 35.9416 350.245 36.1743C350.259 36.2152 350.258 36.2594 350.243 36.2998C350.228 36.3402 350.2 36.3742 350.163 36.3963L349.704 36.6626C349.682 36.6748 349.663 36.6912 349.648 36.7108C349.632 36.7305 349.621 36.7529 349.615 36.7769C349.609 36.8009 349.607 36.8259 349.61 36.8505C349.614 36.8751 349.622 36.8988 349.635 36.9201L349.839 37.2752C349.864 37.318 349.906 37.3492 349.954 37.362C350.002 37.3749 350.053 37.3684 350.096 37.344L350.556 37.0777C350.595 37.0554 350.64 37.0476 350.685 37.0557C350.729 37.0639 350.769 37.0874 350.798 37.1221C350.954 37.3165 351.131 37.4936 351.326 37.6503C351.36 37.679 351.384 37.7189 351.392 37.7632C351.4 37.8075 351.392 37.8532 351.37 37.8923L351.106 38.3517C351.093 38.3731 351.085 38.3967 351.082 38.4213C351.078 38.4459 351.08 38.4709 351.086 38.4949C351.093 38.5189 351.104 38.5414 351.119 38.561C351.134 38.5806 351.153 38.597 351.175 38.6092L351.528 38.8134C351.549 38.826 351.573 38.8343 351.597 38.8377C351.622 38.8411 351.647 38.8395 351.671 38.8331C351.695 38.8267 351.717 38.8156 351.737 38.8004C351.757 38.7852 351.773 38.7662 351.785 38.7446L352.051 38.2851C352.074 38.2486 352.108 38.2207 352.148 38.2062C352.189 38.1917 352.233 38.1913 352.273 38.2052C352.506 38.294 352.748 38.358 352.995 38.3961C353.039 38.4034 353.079 38.4261 353.108 38.4602C353.138 38.4943 353.154 38.5376 353.154 38.5826V39.1152C353.154 39.1653 353.174 39.2133 353.21 39.2487C353.245 39.284 353.293 39.3039 353.343 39.3039H353.754C353.803 39.3033 353.851 39.2832 353.886 39.2479C353.92 39.2126 353.94 39.1649 353.94 39.1152V38.5826C353.94 38.5373 353.957 38.4937 353.987 38.4596C354.016 38.4254 354.057 38.4029 354.102 38.3961C354.348 38.358 354.589 38.294 354.821 38.2052C354.863 38.1889 354.909 38.1879 354.952 38.2025C354.995 38.2172 355.031 38.2464 355.054 38.2851L355.318 38.7446C355.33 38.7662 355.347 38.7852 355.366 38.8004C355.386 38.8156 355.408 38.8267 355.432 38.8331C355.456 38.8395 355.481 38.8411 355.506 38.8377C355.531 38.8343 355.554 38.826 355.575 38.8134L355.931 38.6092C355.952 38.597 355.971 38.5806 355.986 38.561C356.002 38.5414 356.013 38.5189 356.019 38.4949C356.026 38.4709 356.027 38.4459 356.024 38.4213C356.02 38.3967 356.012 38.3731 355.999 38.3517L355.733 37.8923C355.711 37.8531 355.703 37.8071 355.711 37.7626C355.72 37.7182 355.744 37.6784 355.78 37.6503C355.973 37.4936 356.15 37.3165 356.306 37.1221C356.334 37.0874 356.374 37.0639 356.418 37.0557C356.463 37.0476 356.508 37.0554 356.548 37.0777L357.009 37.344C357.052 37.3683 357.103 37.3747 357.151 37.3618C357.198 37.349 357.239 37.3179 357.264 37.2752L357.471 36.9201C357.495 36.8767 357.502 36.8255 357.489 36.7774C357.476 36.7293 357.445 36.6881 357.402 36.6626L356.943 36.3963C356.905 36.3745 356.877 36.3405 356.862 36.3C356.847 36.2595 356.846 36.2151 356.86 36.1743C356.95 35.9413 357.015 35.6996 357.053 35.453C357.06 35.4085 357.083 35.3679 357.117 35.3386C357.151 35.3093 357.195 35.2932 357.24 35.2932H357.77C357.82 35.2932 357.868 35.2733 357.904 35.2379C357.939 35.2025 357.959 35.1545 357.959 35.1045V34.705C357.959 34.655 357.939 34.607 357.904 34.5716C357.868 34.5362 357.82 34.5163 357.77 34.5163H357.24C357.195 34.5163 357.151 34.4998 357.117 34.4701C357.082 34.4403 357.06 34.3992 357.053 34.3543C357.015 34.1085 356.95 33.8674 356.86 33.6352C356.847 33.5944 356.847 33.5501 356.862 33.5097C356.877 33.4693 356.906 33.4353 356.943 33.4132L357.402 33.1491C357.445 33.1236 357.476 33.0824 357.489 33.0343C357.502 32.9862 357.495 32.935 357.471 32.8916L357.264 32.5365C357.239 32.4939 357.198 32.4628 357.151 32.4499C357.103 32.437 357.052 32.4434 357.009 32.4677L356.548 32.734C356.508 32.7565 356.462 32.7642 356.418 32.7557C356.374 32.7471 356.334 32.7229 356.306 32.6874C356.15 32.4937 355.973 32.3174 355.78 32.1614C355.744 32.1333 355.72 32.0935 355.711 32.0491C355.703 32.0047 355.711 31.9587 355.733 31.9194L355.999 31.4578C356.012 31.4366 356.02 31.4131 356.024 31.3887C356.027 31.3643 356.025 31.3394 356.019 31.3156C356.013 31.2918 356.001 31.2695 355.986 31.2501C355.971 31.2307 355.952 31.2145 355.931 31.2025L355.575 30.9961C355.532 30.9717 355.481 30.9653 355.433 30.9781C355.385 30.991 355.344 31.0221 355.318 31.0649L355.054 31.5266C355.031 31.5653 354.995 31.5945 354.952 31.6092C354.909 31.6238 354.863 31.6229 354.821 31.6065C354.589 31.5171 354.348 31.4524 354.102 31.4134C354.057 31.4075 354.016 31.3856 353.986 31.3517C353.957 31.3178 353.94 31.2743 353.94 31.2292V30.6965C353.94 30.6468 353.92 30.5992 353.886 30.5639C353.851 30.5285 353.803 30.5084 353.754 30.5078H353.343C353.293 30.5078 353.245 30.5277 353.21 30.5631C353.174 30.5985 353.154 30.6464 353.154 30.6965V31.2292C353.154 31.2739 353.138 31.3172 353.109 31.351C353.079 31.3849 353.039 31.407 352.995 31.4134C352.748 31.4522 352.506 31.517 352.273 31.6065C352.233 31.6204 352.189 31.62 352.148 31.6055C352.108 31.591 352.074 31.5631 352.051 31.5266L351.785 31.0649C351.76 31.0221 351.718 30.991 351.67 30.9781C351.622 30.9653 351.571 30.9717 351.528 30.9961L351.175 31.2025C351.153 31.2145 351.134 31.2307 351.119 31.2501C351.104 31.2695 351.093 31.2918 351.086 31.3156C351.08 31.3394 351.078 31.3643 351.082 31.3887C351.085 31.4131 351.093 31.4366 351.106 31.4578L351.37 31.9194C351.392 31.9585 351.4 32.0043 351.392 32.0485C351.384 32.0928 351.36 32.1328 351.326 32.1614C351.131 32.3173 350.954 32.4937 350.798 32.6874C350.77 32.7229 350.73 32.7471 350.685 32.7557C350.641 32.7642 350.595 32.7565 350.556 32.734L350.096 32.4677C350.053 32.4433 350.002 32.4369 349.954 32.4497C349.906 32.4626 349.864 32.4937 349.839 32.5365L349.635 32.8916C349.622 32.913 349.614 32.9366 349.61 32.9612C349.607 32.9858 349.609 33.0108 349.615 33.0348C349.621 33.0588 349.632 33.0813 349.648 33.1009C349.663 33.1205 349.682 33.1369 349.704 33.1491L350.163 33.4132C350.199 33.4359 350.227 33.47 350.242 33.5101C350.257 33.5503 350.258 33.5943 350.245 33.6352C350.155 33.8671 350.09 34.1082 350.052 34.3543C350.045 34.399 350.023 34.4399 349.988 34.4695C349.954 34.4992 349.911 34.5158 349.866 34.5163H349.333C349.283 34.5169 349.236 34.537 349.201 34.5724C349.166 34.6077 349.146 34.6553 349.146 34.705V35.1134C349.149 35.1615 349.169 35.2069 349.204 35.2403C349.239 35.2738 349.285 35.2927 349.333 35.2932ZM353.549 32.7118C353.982 32.7118 354.405 32.8402 354.765 33.0807C355.125 33.3211 355.405 33.6629 355.571 34.0628C355.737 34.4627 355.78 34.9027 355.695 35.3273C355.611 35.7518 355.403 36.1417 355.097 36.4478C354.791 36.7539 354.401 36.9623 353.976 37.0467C353.552 37.1312 353.112 37.0878 352.712 36.9222C352.312 36.7566 351.97 36.4761 351.73 36.1162C351.49 35.7563 351.361 35.3332 351.361 34.9003C351.36 34.6119 351.417 34.3262 351.527 34.0596C351.637 33.793 351.798 33.5508 352.002 33.3469C352.206 33.1431 352.449 32.9816 352.715 32.8719C352.982 32.7621 353.268 32.7062 353.556 32.7074L353.549 32.7118Z" fill="#4B6884"/>
<path d="M345.894 84.0139C343.157 84.0423 340.441 83.5275 337.904 82.4995C335.367 81.4714 333.059 79.9505 331.114 78.0246C329.168 76.0988 327.624 73.8062 326.569 71.2795C325.515 68.7528 324.973 66.0422 324.973 63.3044C324.973 60.5666 325.515 57.856 326.569 55.3293C327.624 52.8026 329.168 50.51 331.114 48.5841C333.059 46.6583 335.367 45.1373 337.904 44.1093C340.441 43.0813 343.157 42.5665 345.894 42.5949C346.021 42.5949 346.143 42.6454 346.233 42.7353C346.323 42.8252 346.374 42.9471 346.374 43.0743C346.374 43.2014 346.323 43.3234 346.233 43.4133C346.143 43.5032 346.021 43.5537 345.894 43.5537C341.988 43.5537 338.169 44.7123 334.921 46.8829C331.673 49.0535 329.142 52.1386 327.647 55.7482C326.152 59.3578 325.761 63.3296 326.523 67.1615C327.285 70.9934 329.166 74.5133 331.928 77.2759C334.691 80.0386 338.21 81.92 342.041 82.6822C345.872 83.4444 349.844 83.0532 353.453 81.558C357.062 80.0629 360.146 77.531 362.317 74.2825C364.487 71.0339 365.645 67.2147 365.645 63.3077C365.645 63.1806 365.696 63.0586 365.786 62.9687C365.875 62.8788 365.997 62.8283 366.124 62.8283C366.252 62.8283 366.374 62.8788 366.463 62.9687C366.553 63.0586 366.604 63.1806 366.604 63.3077C366.596 68.7982 364.412 74.0614 360.529 77.9431C356.647 81.8248 351.384 84.008 345.894 84.0139Z" fill="#4B6884"/>
</svg>
