<svg width="134" height="63" viewBox="0 0 134 63" fill="none" xmlns="http://www.w3.org/2000/svg">
<g clip-path="url(#clip0_317_4908)">
<path d="M46.0695 17.6396H38.3495C38.2101 17.64 38.0722 17.6695 37.9446 17.7263C37.8169 17.7832 37.7022 17.8662 37.6076 17.9701L34.2974 21.6103H42.0607C42.2024 21.6117 42.3428 21.5826 42.4726 21.525C42.6024 21.4674 42.7187 21.3825 42.8139 21.2761L46.0695 17.6396Z" fill="#00B7AC"/>
<path d="M26.9258 44.4147L26.6226 43.7119L21.6988 32.3462C19.6539 27.6262 17.6103 22.905 15.568 18.1825C15.5057 18.0138 15.3914 17.87 15.2422 17.7723C15.093 17.6746 14.9167 17.6282 14.7395 17.6401C14.0334 17.6401 13.3687 17.6401 12.6401 17.6401C12.4439 17.6256 12.2486 17.677 12.0842 17.7865C11.9197 17.8959 11.7955 18.0572 11.7306 18.2455C8.68027 25.3096 5.6224 32.3729 2.55701 39.4357L0.88309 43.3013L0 45.3544H1.76995C2.49299 45.3544 3.24239 45.3544 3.97673 45.3544H3.99368C4.16802 45.3629 4.34039 45.3139 4.48499 45.2148C4.62959 45.1156 4.73864 44.9716 4.7958 44.8043C5.17239 43.9131 5.54897 43.0218 5.92555 42.1305C6.32348 41.1998 6.71889 40.269 7.1118 39.3383V39.3249H7.1551C11.6515 39.3344 16.035 39.3344 20.1868 39.3249H20.2113C20.2183 39.3379 20.2245 39.3513 20.2301 39.365C20.9513 41.0724 21.7157 42.8563 22.5649 44.8196C22.6207 44.9571 22.7115 45.077 22.8279 45.1673C22.9444 45.2575 23.0823 45.3148 23.2277 45.3334C24.1202 45.3467 24.9977 45.3448 25.9278 45.3448H27.3024L27.0105 44.6057C26.9823 44.5312 26.9578 44.4682 26.9295 44.4052L26.9258 44.4147ZM18.4093 35.211H8.9194L13.6813 24.1623L18.4093 35.211Z" fill="#0D0D0D"/>
<path d="M45.4914 24.5481C45.3777 24.559 45.2675 24.5936 45.1677 24.6498C45.0679 24.706 44.9806 24.7826 44.9114 24.8747C44.2637 25.6386 43.6185 26.4026 42.9758 27.1665L33.5612 38.3775V24.5519H29.5336V45.3543H30.6351C31.2132 45.3543 31.7649 45.3543 32.3147 45.3543H32.3392C32.5008 45.3593 32.6614 45.3259 32.8081 45.257C32.9549 45.188 33.0838 45.0853 33.1846 44.9571C36.2236 41.3474 39.2665 37.7403 42.313 34.1357L44.4595 31.5936V45.3333H48.4965V24.5405H47.4816C46.7981 24.5405 46.1523 24.5405 45.4914 24.55" fill="#0D0D0D"/>
<path d="M123.708 24.5634C120.884 24.5634 118.276 25.631 116.376 27.5676C115.43 28.5447 114.684 29.7028 114.183 30.9746C113.681 32.2464 113.434 33.6065 113.455 34.976C113.478 40.8852 117.892 45.3295 123.729 45.3295H123.761C126.585 45.3295 129.18 44.2581 131.076 42.3348C132.024 41.3607 132.771 40.205 133.274 38.9351C133.777 37.6651 134.026 36.3063 134.006 34.9378C133.989 29.0172 129.564 24.5634 123.714 24.5634H123.708ZM123.714 41.3818C120.161 41.3818 117.477 38.6258 117.47 34.9665C117.462 31.3072 120.13 28.5264 123.685 28.5149H123.708C124.534 28.5035 125.353 28.6579 126.12 28.9693C126.886 29.2807 127.585 29.7429 128.174 30.3293C128.765 30.9381 129.23 31.6599 129.543 32.4527C129.856 33.2455 130.01 34.0935 129.997 34.9474C129.997 38.6086 127.302 41.3741 123.723 41.3818H123.714Z" fill="#0D0D0D"/>
<path d="M51.5582 28.5378H58.9242V45.3295H62.98V28.5378H70.3158V24.5634H51.5582V28.5378Z" fill="#0D0D0D"/>
<path d="M99.7666 34.044L108.08 24.8785C108.179 24.77 108.299 24.6835 108.432 24.6243C108.566 24.5652 108.71 24.5347 108.855 24.5347H113.397L104.391 34.5998L114.621 45.3601H109.671C109.53 45.3596 109.39 45.3301 109.261 45.2733C109.131 45.2165 109.015 45.1336 108.918 45.0297L99.7666 35.1594V45.3333H95.7447V24.5557H99.7666V34.044Z" fill="#0D0D0D"/>
<path d="M81.5927 24.5634C78.7683 24.5634 76.1604 25.631 74.2587 27.5676C73.313 28.5451 72.5681 29.7033 72.0671 30.975C71.5661 32.2467 71.319 33.6067 71.3401 34.976C71.3402 36.382 71.6094 37.7747 72.1328 39.0766C73.6542 42.8257 77.2337 45.3295 81.6153 45.3295H81.6473C84.4716 45.3295 87.0588 44.4414 89.0396 42.5583C89.8768 41.7977 90.5637 40.8825 91.0638 39.8615C91.0797 39.8294 91.0872 39.7936 91.0855 39.7577C91.0837 39.7218 91.0728 39.6869 91.0539 39.6565C91.0349 39.6261 91.0085 39.6013 90.9773 39.5843C90.946 39.5673 90.9109 39.5589 90.8755 39.5598H86.7029C86.4921 39.5602 86.2881 39.636 86.1267 39.7737C84.8439 40.8143 83.2503 41.3814 81.6077 41.3818H81.5964C80.2685 41.4069 78.9689 40.9914 77.8952 40.1985C76.8215 39.4056 76.0325 38.2786 75.6483 36.9891C75.6446 36.9783 75.6436 36.9667 75.6453 36.9554C75.647 36.9442 75.6514 36.9335 75.658 36.9243C75.6647 36.9151 75.6734 36.9077 75.6835 36.9026C75.6937 36.8976 75.7048 36.8952 75.7161 36.8955H91.6983L91.7134 36.8172C91.8189 36.1982 91.875 35.5717 91.881 34.9436C91.9412 28.3984 87.4429 24.5634 81.5927 24.5634ZM87.5257 33.0547H75.6935C75.6824 33.0549 75.6715 33.0525 75.6616 33.0475C75.6517 33.0426 75.6431 33.0354 75.6365 33.0265C75.6298 33.0175 75.6254 33.0071 75.6235 32.9961C75.6217 32.985 75.6224 32.9737 75.6257 32.963C76.4014 30.3331 78.7061 28.5264 81.5701 28.5149H81.587C82.412 28.504 83.2311 28.6586 83.9969 28.97C84.7628 29.2814 85.4604 29.7434 86.0495 30.3293C86.7721 31.0627 87.3016 31.9683 87.5898 32.963C87.5926 32.9734 87.5931 32.9843 87.5913 32.9948C87.5894 33.0054 87.5853 33.0155 87.5792 33.0243C87.5731 33.033 87.5651 33.0403 87.5558 33.0456C87.5466 33.0508 87.5363 33.054 87.5257 33.0547Z" fill="#0D0D0D"/>
</g>
<defs>
<clipPath id="clip0_317_4908">
<rect width="134" height="63" fill="white"/>
</clipPath>
</defs>
</svg>
