<svg width="36" height="34" viewBox="0 0 36 34" fill="none" xmlns="http://www.w3.org/2000/svg">
<path d="M0.400086 3.15768L10.7859 16.9993L0.400087 30.841C0.0884206 31.2535 0.0334204 31.8127 0.271754 32.2802C0.50092 32.7477 0.977587 33.041 1.50009 33.041L12.5001 33.041L23.5001 33.041C23.9309 33.041 24.3434 32.8393 24.6001 32.491L35.6001 17.8243C35.7834 17.5768 35.8751 17.2927 35.8751 16.9993C35.8751 16.706 35.7834 16.4218 35.6001 16.1743L24.6001 1.50768C24.3434 1.15934 23.9309 0.957679 23.5001 0.957679L12.5001 0.957679L1.50009 0.95768C0.977586 0.95768 0.500919 1.25101 0.271752 1.71852C0.0334191 2.18601 0.0884194 2.74518 0.400086 3.15768ZM22.8126 3.70768L32.7859 16.9993L22.8126 30.291L15.2501 30.291L24.6001 17.8243C24.7834 17.5768 24.8751 17.2927 24.8751 16.9993C24.8751 16.706 24.7834 16.4218 24.6001 16.1743L15.2501 3.70768L22.8126 3.70768ZM11.8126 3.70768L21.7859 16.9993L11.8126 30.291L4.25009 30.291L13.6001 17.8243C13.9668 17.3385 13.9668 16.6602 13.6001 16.1743L4.25009 3.70768L11.8126 3.70768Z" fill="#FF8B60"/>
</svg>
