<svg width="36" height="34" viewBox="0 0 36 34" fill="none" xmlns="http://www.w3.org/2000/svg">
<path d="M35.5999 30.8423L25.2141 17.0007L35.5999 3.15898C35.9116 2.74648 35.9666 2.18732 35.7282 1.71982C35.4991 1.25232 35.0224 0.958984 34.4999 0.958984L23.4999 0.958984L12.4999 0.958984C12.0691 0.958984 11.6566 1.16065 11.3999 1.50898L0.399906 16.1757C0.216576 16.4232 0.124908 16.7073 0.124908 17.0007C0.124908 17.294 0.216576 17.5782 0.399906 17.8257L11.3999 32.4923C11.6566 32.8407 12.0691 33.0423 12.4999 33.0423H23.4999H34.4999C35.0224 33.0423 35.4991 32.749 35.7282 32.2815C35.9666 31.814 35.9116 31.2548 35.5999 30.8423ZM13.1874 30.2923L3.21407 17.0007L13.1874 3.70898L20.7499 3.70898L11.3999 16.1757C11.2166 16.4232 11.1249 16.7073 11.1249 17.0007C11.1249 17.294 11.2166 17.5782 11.3999 17.8257L20.7499 30.2923H13.1874ZM24.1874 30.2923L14.2141 17.0007L24.1874 3.70898L31.7499 3.70898L22.3999 16.1757C22.0332 16.6615 22.0332 17.3398 22.3999 17.8257L31.7499 30.2923H24.1874Z" fill="#C4C4C4"/>
</svg>
