<svg width="245" height="70" viewBox="0 0 245 70" fill="none" xmlns="http://www.w3.org/2000/svg">
<g filter="url(#filter0_d_312_3966)">
<path d="M239.654 22.3715C239.654 21.2126 239.081 20.1289 238.123 19.4773L217.203 5.25037C216.622 4.85562 215.936 4.64453 215.234 4.64453H8.84555C6.91254 4.64453 5.34555 6.21153 5.34555 8.14453V46.8684C5.34555 48.017 5.9091 49.0925 6.85352 49.7462L27.7917 64.2397C28.377 64.6449 29.0719 64.8619 29.7837 64.8619H236.154C238.087 64.8619 239.654 63.2949 239.654 61.3619V22.3715Z" stroke="#65B9F4" shape-rendering="crispEdges"/>
</g>
<path d="M76.1042 2.29004H7.92299C5.71385 2.29004 3.92299 4.0809 3.92299 6.29004V20.1261H72.1042C74.3133 20.1261 76.1042 18.3352 76.1042 16.1261V2.29004Z" fill="#3F5168"/>
<path d="M240.154 47.8457H171.973C169.764 47.8457 167.973 49.6366 167.973 51.8457V65.6818H236.154C238.364 65.6818 240.154 63.8909 240.154 61.6818V47.8457Z" fill="#3F5168"/>
<path d="M95.0246 27.685H96.9646V33.285H103.865V27.685H105.805V40.665H103.865V34.645H96.9646V40.665H95.0246V27.685ZM112.025 40.865C111.105 40.865 110.392 40.7784 109.885 40.605C109.392 40.4317 109.032 40.125 108.805 39.685C108.592 39.245 108.485 38.6117 108.485 37.785C108.485 37.0517 108.585 36.485 108.785 36.085C108.999 35.6717 109.352 35.3784 109.845 35.205C110.352 35.0317 111.065 34.945 111.985 34.945H114.885V33.405C114.885 33.045 114.812 32.7717 114.665 32.585C114.532 32.385 114.299 32.245 113.965 32.165C113.645 32.085 113.172 32.045 112.545 32.045C111.545 32.045 110.439 32.125 109.225 32.285V30.965C110.545 30.845 111.739 30.785 112.805 30.785C113.925 30.785 114.752 30.8717 115.285 31.045C115.819 31.205 116.185 31.4917 116.385 31.905C116.585 32.3184 116.685 32.9584 116.685 33.825V40.665H114.945V39.745C114.799 40.4917 113.825 40.865 112.025 40.865ZM112.325 39.685C112.979 39.685 113.532 39.6384 113.985 39.545C114.585 39.425 114.885 39.145 114.885 38.705V36.065H112.105C111.532 36.065 111.119 36.1117 110.865 36.205C110.612 36.285 110.445 36.445 110.365 36.685C110.285 36.925 110.245 37.3117 110.245 37.845C110.245 38.325 110.292 38.6984 110.385 38.965C110.479 39.2184 110.645 39.405 110.885 39.525C111.125 39.6317 111.485 39.685 111.965 39.685H112.325ZM121.967 40.865C121.18 40.865 120.274 40.7517 119.247 40.525V39.105C120.247 39.3984 121.154 39.545 121.967 39.545C122.887 39.545 123.56 39.445 123.987 39.245C124.414 39.0317 124.627 38.6317 124.627 38.045V37.425C124.627 36.9317 124.407 36.605 123.967 36.445C123.54 36.2717 122.934 36.185 122.147 36.185H121.047V34.945H121.807C122.62 34.945 123.24 34.8517 123.667 34.665C124.094 34.4784 124.307 34.145 124.307 33.665V33.065C124.307 32.3717 123.507 32.025 121.907 32.025C121.067 32.025 120.247 32.105 119.447 32.265V30.965C120.207 30.845 121.02 30.785 121.887 30.785C122.914 30.785 123.714 30.8384 124.287 30.945C124.86 31.0517 125.307 31.2517 125.627 31.545C125.96 31.8384 126.127 32.3117 126.127 32.965V33.745C126.127 34.1717 125.967 34.525 125.647 34.805C125.34 35.0717 124.94 35.245 124.447 35.325V35.405C125.82 35.6184 126.507 36.2117 126.507 37.185V38.185C126.507 38.6384 126.414 39.045 126.227 39.405C126.054 39.7517 125.82 40.0184 125.527 40.205C125.127 40.4584 124.62 40.6317 124.007 40.725C123.407 40.8184 122.727 40.865 121.967 40.865ZM132.24 40.865C131.32 40.865 130.607 40.7784 130.1 40.605C129.607 40.4317 129.247 40.125 129.02 39.685C128.807 39.245 128.7 38.6117 128.7 37.785C128.7 37.0517 128.8 36.485 129 36.085C129.213 35.6717 129.567 35.3784 130.06 35.205C130.567 35.0317 131.28 34.945 132.2 34.945H135.1V33.405C135.1 33.045 135.027 32.7717 134.88 32.585C134.747 32.385 134.513 32.245 134.18 32.165C133.86 32.085 133.387 32.045 132.76 32.045C131.76 32.045 130.653 32.125 129.44 32.285V30.965C130.76 30.845 131.953 30.785 133.02 30.785C134.14 30.785 134.967 30.8717 135.5 31.045C136.033 31.205 136.4 31.4917 136.6 31.905C136.8 32.3184 136.9 32.9584 136.9 33.825V40.665H135.16V39.745C135.013 40.4917 134.04 40.865 132.24 40.865ZM132.54 39.685C133.193 39.685 133.747 39.6384 134.2 39.545C134.8 39.425 135.1 39.145 135.1 38.705V36.065H132.32C131.747 36.065 131.333 36.1117 131.08 36.205C130.827 36.285 130.66 36.445 130.58 36.685C130.5 36.925 130.46 37.3117 130.46 37.845C130.46 38.325 130.507 38.6984 130.6 38.965C130.693 39.2184 130.86 39.405 131.1 39.525C131.34 39.6317 131.7 39.685 132.18 39.685H132.54ZM149.202 39.485V43.345H147.662V40.665H140.202V43.345H138.662V39.485H139.282C139.575 39.485 139.862 39.265 140.142 38.825C140.422 38.3717 140.655 37.6517 140.842 36.665C141.028 35.665 141.122 34.3984 141.122 32.865V30.985H147.842V39.485H149.202ZM146.042 39.485V32.165H142.702V33.565C142.702 34.9517 142.608 36.145 142.422 37.145C142.248 38.1317 141.922 38.9117 141.442 39.485H146.042Z" fill="#65B9F4"/>
<defs>
<filter id="filter0_d_312_3966" x="0.845581" y="0.144531" width="243.309" height="69.2178" filterUnits="userSpaceOnUse" color-interpolation-filters="sRGB">
<feFlood flood-opacity="0" result="BackgroundImageFix"/>
<feColorMatrix in="SourceAlpha" type="matrix" values="0 0 0 0 0 0 0 0 0 0 0 0 0 0 0 0 0 0 127 0" result="hardAlpha"/>
<feOffset/>
<feGaussianBlur stdDeviation="2"/>
<feComposite in2="hardAlpha" operator="out"/>
<feColorMatrix type="matrix" values="0 0 0 0 1 0 0 0 0 0.882689 0 0 0 0 0.608333 0 0 0 0.25 0"/>
<feBlend mode="normal" in2="BackgroundImageFix" result="effect1_dropShadow_312_3966"/>
<feBlend mode="normal" in="SourceGraphic" in2="effect1_dropShadow_312_3966" result="shape"/>
</filter>
</defs>
</svg>
