<svg width="178" height="60" viewBox="0 0 178 60" fill="none" xmlns="http://www.w3.org/2000/svg">
<g filter="url(#filter0_d_477_1451)">
<path d="M5.38867 19.5588C5.38867 18.4939 5.87345 17.487 6.70584 16.8229L21.041 5.38567C21.661 4.89099 22.4307 4.62158 23.2238 4.62158H169.109C171.042 4.62158 172.609 6.18859 172.609 8.12158V39.808C172.609 40.8622 172.134 41.8603 171.316 42.5249L156.961 54.1821C156.338 54.6887 155.558 54.9652 154.755 54.9652H8.88867C6.95568 54.9652 5.38867 53.3982 5.38867 51.4652V19.5588Z" stroke="#FF8B60" shape-rendering="crispEdges"/>
</g>
<path d="M122.168 2.56543H169.77C171.979 2.56543 173.77 4.35629 173.77 6.56543V17.5247H126.168C123.959 17.5247 122.168 15.7338 122.168 13.5247V2.56543Z" fill="#3F5168"/>
<path d="M4.88867 40.7734H52.4906C54.6997 40.7734 56.4906 42.5643 56.4906 44.7734V55.7327H8.88867C6.67953 55.7327 4.88867 53.9419 4.88867 51.7327V40.7734Z" fill="#3F5168"/>
<path d="M10.5078 21.9842C10.5078 21.6737 10.6521 21.3808 10.8983 21.1915L24.4474 10.7741C24.6222 10.6397 24.8364 10.5669 25.0569 10.5669H166.493C167.045 10.5669 167.493 11.0146 167.493 11.5669V37.6021C167.493 37.9127 167.349 38.2056 167.103 38.3949L153.553 48.8122C153.379 48.9466 153.164 49.0194 152.944 49.0194H11.5078C10.9555 49.0194 10.5078 48.5717 10.5078 48.0194V21.9842Z" fill="#FF8B60" stroke="#FF8B60" stroke-width="2"/>
<path d="M63.7795 24.2708H67.4915C68.3769 24.2708 69.0809 24.3615 69.6035 24.5428C70.0835 24.7135 70.4035 24.9268 70.5635 25.1828C70.7342 25.4388 70.8195 25.7908 70.8195 26.2388V27.6308C70.8195 28.0468 70.7022 28.3721 70.4675 28.6068C70.2329 28.8308 69.8755 28.9961 69.3955 29.1028V29.1668C69.9609 29.2628 70.4142 29.4601 70.7555 29.7588C71.1075 30.0468 71.2835 30.4095 71.2835 30.8468V32.5908C71.2835 33.3481 71.0009 33.8815 70.4355 34.1908C69.8702 34.5001 68.9262 34.6548 67.6035 34.6548H63.7795V24.2708ZM67.5395 28.8148C68.1902 28.8148 68.6542 28.7188 68.9315 28.5268C69.2195 28.3241 69.3635 28.0095 69.3635 27.5828V26.3668C69.3635 25.9721 69.2195 25.6948 68.9315 25.5348C68.6435 25.3748 68.1635 25.2948 67.4915 25.2948H65.3315V28.8148H67.5395ZM67.6035 33.5828C68.3822 33.5828 68.9315 33.5028 69.2515 33.3428C69.5715 33.1828 69.7315 32.9108 69.7315 32.5268V30.9588C69.7315 30.6815 69.6729 30.4628 69.5555 30.3028C69.4489 30.1321 69.2782 30.0095 69.0435 29.9348C68.8089 29.8708 68.6009 29.8335 68.4195 29.8228C68.2382 29.8015 67.9662 29.7908 67.6035 29.7908H65.3315V33.5828H67.6035ZM73.592 26.9108H80.136V34.6548H78.696V27.9668H75.032V34.6548H73.592V26.9108ZM85.9944 34.8148C83.6264 34.8148 82.4424 34.0255 82.4424 32.4468V29.3908C82.4424 28.4521 82.7091 27.7801 83.2424 27.3748C83.7864 26.9588 84.6611 26.7508 85.8664 26.7508C87.0078 26.7508 87.8291 26.9481 88.3304 27.3428C88.8424 27.7375 89.0984 28.4201 89.0984 29.3908V31.1028H83.8984V32.2708C83.8984 32.8041 84.0851 33.1881 84.4584 33.4228C84.8318 33.6575 85.4078 33.7748 86.1864 33.7748C86.9224 33.7748 87.7918 33.6468 88.7944 33.3908V34.4948C87.8131 34.7081 86.8798 34.8148 85.9944 34.8148ZM87.6584 30.1588V28.9428C87.6584 28.4735 87.5144 28.1535 87.2264 27.9828C86.9491 27.8015 86.4691 27.7108 85.7864 27.7108C85.1251 27.7108 84.6451 27.8015 84.3464 27.9828C84.0478 28.1535 83.8984 28.4735 83.8984 28.9428V30.1588H87.6584ZM91.2929 26.9108H92.7329V27.7428C92.8503 27.0815 93.7303 26.7508 95.3729 26.7508C96.3543 26.7508 97.0956 26.9588 97.5969 27.3748C98.0983 27.7801 98.3489 28.3028 98.3489 28.9428V32.1268C98.3489 32.5855 98.2796 32.9855 98.1409 33.3268C98.0129 33.6681 97.8423 33.9348 97.6289 34.1268C97.4369 34.3081 97.1703 34.4521 96.8289 34.5588C96.4983 34.6655 96.1676 34.7348 95.8369 34.7668C95.5383 34.7988 95.1756 34.8148 94.7489 34.8148C94.2796 34.8148 93.8476 34.7615 93.4529 34.6548C93.0689 34.5375 92.8289 34.3721 92.7329 34.1588V37.8228H91.2929V26.9108ZM94.7809 33.8388C95.3356 33.8388 95.7569 33.8015 96.0449 33.7268C96.3436 33.6415 96.5569 33.4921 96.6849 33.2788C96.8129 33.0655 96.8769 32.7401 96.8769 32.3028V29.4548C96.8769 28.9748 96.8129 28.6175 96.6849 28.3828C96.5569 28.1481 96.3436 27.9935 96.0449 27.9188C95.7569 27.8335 95.3303 27.7908 94.7649 27.7908C94.1996 27.7908 93.7676 27.8335 93.4689 27.9188C93.1809 27.9935 92.9729 28.1481 92.8449 28.3828C92.7169 28.6175 92.6529 28.9748 92.6529 29.4548V32.3028C92.6529 32.7295 92.7169 33.0548 92.8449 33.2788C92.9836 33.4921 93.2023 33.6415 93.5009 33.7268C93.7996 33.8015 94.2263 33.8388 94.7809 33.8388ZM103.823 34.8148C101.455 34.8148 100.271 34.0255 100.271 32.4468V29.3908C100.271 28.4521 100.537 27.7801 101.071 27.3748C101.615 26.9588 102.489 26.7508 103.695 26.7508C104.836 26.7508 105.657 26.9481 106.159 27.3428C106.671 27.7375 106.927 28.4201 106.927 29.3908V31.1028H101.727V32.2708C101.727 32.8041 101.913 33.1881 102.287 33.4228C102.66 33.6575 103.236 33.7748 104.015 33.7748C104.751 33.7748 105.62 33.6468 106.623 33.3908V34.4948C105.641 34.7081 104.708 34.8148 103.823 34.8148ZM105.487 30.1588V28.9428C105.487 28.4735 105.343 28.1535 105.055 27.9828C104.777 27.8015 104.297 27.7108 103.615 27.7108C102.953 27.7108 102.473 27.8015 102.175 27.9828C101.876 28.1535 101.727 28.4735 101.727 28.9428V30.1588H105.487ZM116.465 33.7108V36.7988H115.233V34.6548H109.265V36.7988H108.033V33.7108H108.529C108.764 33.7108 108.993 33.5348 109.217 33.1828C109.441 32.8201 109.628 32.2441 109.777 31.4548C109.926 30.6548 110.001 29.6415 110.001 28.4148V26.9108H115.377V33.7108H116.465ZM113.937 33.7108V27.8548H111.265V28.9748C111.265 30.0841 111.19 31.0388 111.041 31.8388C110.902 32.6281 110.641 33.2521 110.257 33.7108H113.937Z" fill="white"/>
<defs>
<filter id="filter0_d_477_1451" x="0.888672" y="0.121582" width="176.221" height="59.3438" filterUnits="userSpaceOnUse" color-interpolation-filters="sRGB">
<feFlood flood-opacity="0" result="BackgroundImageFix"/>
<feColorMatrix in="SourceAlpha" type="matrix" values="0 0 0 0 0 0 0 0 0 0 0 0 0 0 0 0 0 0 127 0" result="hardAlpha"/>
<feOffset/>
<feGaussianBlur stdDeviation="2"/>
<feComposite in2="hardAlpha" operator="out"/>
<feColorMatrix type="matrix" values="0 0 0 0 1 0 0 0 0 0.882689 0 0 0 0 0.608333 0 0 0 0.25 0"/>
<feBlend mode="normal" in2="BackgroundImageFix" result="effect1_dropShadow_477_1451"/>
<feBlend mode="normal" in="SourceGraphic" in2="effect1_dropShadow_477_1451" result="shape"/>
</filter>
</defs>
</svg>
