<svg width="245" height="70" viewBox="0 0 245 70" fill="none" xmlns="http://www.w3.org/2000/svg">
<g filter="url(#filter0_d_312_3904)">
<path d="M5.34557 22.3715C5.34557 21.2126 5.91913 20.1289 6.87736 19.4773L27.7974 5.25037C28.3779 4.85562 29.0637 4.64453 29.7656 4.64453H236.154C238.087 4.64453 239.654 6.21153 239.654 8.14453V46.8684C239.654 48.017 239.091 49.0925 238.146 49.7462L217.208 64.2397C216.623 64.6449 215.928 64.8619 215.216 64.8619H8.84556C6.91256 64.8619 5.34557 63.2949 5.34557 61.3619V22.3715Z" stroke="#FF8B60" shape-rendering="crispEdges"/>
</g>
<path d="M168.896 2.28906H237.077C239.286 2.28906 241.077 4.07992 241.077 6.28906V20.1251H172.896C170.687 20.1251 168.896 18.3343 168.896 16.1251V2.28906Z" fill="#3F5168"/>
<path d="M4.84557 47.8457H73.0268C75.2359 47.8457 77.0268 49.6366 77.0268 51.8457V65.6818H8.84557C6.63643 65.6818 4.84557 63.8909 4.84557 61.6818V47.8457Z" fill="#3F5168"/>
<path d="M12.305 25.348C12.305 25.0108 12.4749 24.6964 12.7569 24.5116L32.1529 11.8003L31.6096 10.9712L32.1529 11.8003C32.3158 11.6936 32.5063 11.6367 32.7011 11.6367H231.695C232.247 11.6367 232.695 12.0844 232.695 12.6367V44.1573C232.695 44.4945 232.525 44.8089 232.243 44.9937L212.847 57.705L213.395 58.5414L212.847 57.705C212.684 57.8117 212.494 57.8686 212.299 57.8686H13.305C12.7527 57.8686 12.305 57.4209 12.305 56.8686V25.348Z" fill="#FF8B60" stroke="#FF8B60" stroke-width="2"/>
<path d="M91.0305 27.686H95.6705C96.7772 27.686 97.6572 27.7993 98.3105 28.026C98.9105 28.2393 99.3105 28.506 99.5105 28.826C99.7238 29.146 99.8305 29.586 99.8305 30.146V31.886C99.8305 32.406 99.6838 32.8127 99.3905 33.106C99.0972 33.386 98.6505 33.5927 98.0505 33.726V33.806C98.7572 33.926 99.3238 34.1727 99.7505 34.546C100.191 34.906 100.411 35.3593 100.411 35.906V38.086C100.411 39.0327 100.057 39.6993 99.3505 40.086C98.6438 40.4727 97.4638 40.666 95.8105 40.666H91.0305V27.686ZM95.7305 33.366C96.5438 33.366 97.1238 33.246 97.4705 33.006C97.8305 32.7527 98.0105 32.3593 98.0105 31.826V30.306C98.0105 29.8127 97.8305 29.466 97.4705 29.266C97.1105 29.066 96.5105 28.966 95.6705 28.966H92.9705V33.366H95.7305ZM95.8105 39.326C96.7838 39.326 97.4705 39.226 97.8705 39.026C98.2705 38.826 98.4705 38.486 98.4705 38.006V36.046C98.4705 35.6993 98.3972 35.426 98.2505 35.226C98.1172 35.0127 97.9038 34.8593 97.6105 34.766C97.3172 34.686 97.0572 34.6393 96.8305 34.626C96.6038 34.5993 96.2638 34.586 95.8105 34.586H92.9705V39.326H95.8105ZM103.296 30.986H111.476V40.666H109.676V32.306H105.096V40.666H103.296V30.986ZM118.799 40.866C115.839 40.866 114.359 39.8793 114.359 37.906V34.086C114.359 32.9127 114.692 32.0727 115.359 31.566C116.039 31.046 117.132 30.786 118.639 30.786C120.066 30.786 121.092 31.0327 121.719 31.526C122.359 32.0193 122.679 32.8727 122.679 34.086V36.226H116.179V37.686C116.179 38.3527 116.412 38.8327 116.879 39.126C117.346 39.4193 118.066 39.566 119.039 39.566C119.959 39.566 121.046 39.406 122.299 39.086V40.466C121.072 40.7327 119.906 40.866 118.799 40.866ZM120.879 35.046V33.526C120.879 32.9393 120.699 32.5393 120.339 32.326C119.992 32.0993 119.392 31.986 118.539 31.986C117.712 31.986 117.112 32.0993 116.739 32.326C116.366 32.5393 116.179 32.9393 116.179 33.526V35.046H120.879ZM125.422 30.986H127.222V32.026C127.369 31.1993 128.469 30.786 130.522 30.786C131.749 30.786 132.676 31.046 133.302 31.566C133.929 32.0727 134.242 32.726 134.242 33.526V37.506C134.242 38.0793 134.156 38.5793 133.982 39.006C133.822 39.4327 133.609 39.766 133.342 40.006C133.102 40.2327 132.769 40.4127 132.342 40.546C131.929 40.6793 131.516 40.766 131.102 40.806C130.729 40.846 130.276 40.866 129.742 40.866C129.156 40.866 128.616 40.7993 128.122 40.666C127.642 40.5193 127.342 40.3127 127.222 40.046V44.626H125.422V30.986ZM129.782 39.646C130.476 39.646 131.002 39.5993 131.362 39.506C131.736 39.3993 132.002 39.2127 132.162 38.946C132.322 38.6793 132.402 38.2727 132.402 37.726V34.166C132.402 33.566 132.322 33.1193 132.162 32.826C132.002 32.5327 131.736 32.3393 131.362 32.246C131.002 32.1393 130.469 32.086 129.762 32.086C129.056 32.086 128.516 32.1393 128.142 32.246C127.782 32.3393 127.522 32.5327 127.362 32.826C127.202 33.1193 127.122 33.566 127.122 34.166V37.726C127.122 38.2593 127.202 38.666 127.362 38.946C127.536 39.2127 127.809 39.3993 128.182 39.506C128.556 39.5993 129.089 39.646 129.782 39.646ZM141.084 40.866C138.124 40.866 136.644 39.8793 136.644 37.906V34.086C136.644 32.9127 136.978 32.0727 137.644 31.566C138.324 31.046 139.418 30.786 140.924 30.786C142.351 30.786 143.378 31.0327 144.004 31.526C144.644 32.0193 144.964 32.8727 144.964 34.086V36.226H138.464V37.686C138.464 38.3527 138.698 38.8327 139.164 39.126C139.631 39.4193 140.351 39.566 141.324 39.566C142.244 39.566 143.331 39.406 144.584 39.086V40.466C143.358 40.7327 142.191 40.866 141.084 40.866ZM143.164 35.046V33.526C143.164 32.9393 142.984 32.5393 142.624 32.326C142.278 32.0993 141.678 31.986 140.824 31.986C139.998 31.986 139.398 32.0993 139.024 32.326C138.651 32.5393 138.464 32.9393 138.464 33.526V35.046H143.164ZM156.887 39.486V43.346H155.347V40.666H147.887V43.346H146.347V39.486H146.967C147.261 39.486 147.547 39.266 147.827 38.826C148.107 38.3727 148.341 37.6527 148.527 36.666C148.714 35.666 148.807 34.3993 148.807 32.866V30.986H155.527V39.486H156.887ZM153.727 39.486V32.166H150.387V33.566C150.387 34.9527 150.294 36.146 150.107 37.146C149.934 38.1327 149.607 38.9127 149.127 39.486H153.727Z" fill="white"/>
<defs>
<filter id="filter0_d_312_3904" x="0.845566" y="0.144531" width="243.309" height="69.2168" filterUnits="userSpaceOnUse" color-interpolation-filters="sRGB">
<feFlood flood-opacity="0" result="BackgroundImageFix"/>
<feColorMatrix in="SourceAlpha" type="matrix" values="0 0 0 0 0 0 0 0 0 0 0 0 0 0 0 0 0 0 127 0" result="hardAlpha"/>
<feOffset/>
<feGaussianBlur stdDeviation="2"/>
<feComposite in2="hardAlpha" operator="out"/>
<feColorMatrix type="matrix" values="0 0 0 0 1 0 0 0 0 0.882689 0 0 0 0 0.608333 0 0 0 0.25 0"/>
<feBlend mode="normal" in2="BackgroundImageFix" result="effect1_dropShadow_312_3904"/>
<feBlend mode="normal" in="SourceGraphic" in2="effect1_dropShadow_312_3904" result="shape"/>
</filter>
</defs>
</svg>
