<svg width="216" height="53" viewBox="0 0 216 53" fill="none" xmlns="http://www.w3.org/2000/svg">
<path d="M26.8025 49.9877C25.9156 49.9878 25.0293 49.9402 24.1478 49.8453L24.4161 47.4922C28.2583 47.8925 32.1413 47.3104 35.6814 45.8035L36.6591 47.9786C33.5537 49.31 30.1961 49.9943 26.8025 49.9877ZM21.6211 49.4439C17.4284 48.5488 13.5521 46.5948 10.3826 43.7787C7.21305 40.9627 4.86215 37.384 3.56658 33.403L5.89809 32.6891C7.06503 36.2735 9.18274 39.4952 12.0377 42.0296C14.8927 44.5639 18.384 46.3212 22.1598 47.1244L21.6211 49.4439ZM46.5239 40.2508L44.5562 38.8666C45.0268 38.2361 45.4631 37.582 45.8632 36.907C47.7755 33.674 48.784 30.0102 48.7883 26.2802C48.783 23.2761 48.1336 20.306 46.8816 17.5598L49.1054 16.5968C50.4955 19.6484 51.2162 22.9484 51.2215 26.2862C51.2146 30.4241 50.0955 34.4884 47.9752 38.0756C47.5314 38.8252 47.0469 39.5513 46.5239 40.2508ZM5.38991 21.6135L3.01367 21.0974C3.95664 17.0268 5.97923 13.2675 8.88008 10.1938L10.6729 11.7955C8.05716 14.5649 6.23471 17.9538 5.38788 21.6234L5.38991 21.6135ZM45.8409 15.5626C43.9051 12.3086 41.1207 9.60945 37.769 7.73785L38.9886 5.68528C42.7134 7.76672 45.8072 10.7681 47.9569 14.386L45.8409 15.5626ZM12.3276 10.2235L10.7197 8.44379C13.9445 5.68566 17.8604 3.80416 22.0719 2.98928C26.2834 2.17441 30.6413 2.45501 34.7057 3.80275L33.9089 6.04121C30.2507 4.82713 26.3278 4.57414 22.5369 5.30782C18.746 6.0415 15.2214 7.73583 12.3194 10.2195L12.3276 10.2235Z" fill="#A6DAFF"/>
<path d="M26.7753 52.9888H26.7152C22.5324 52.981 18.4095 51.9991 14.6768 50.1217C10.944 48.2443 7.70522 45.5235 5.21972 42.1773L8.11488 40.0564C10.2715 42.96 13.0833 45.3195 16.324 46.9452C19.5647 48.5708 23.1438 49.4172 26.7733 49.4161C26.9635 49.4161 27.1497 49.4161 27.3339 49.4161L27.43 53.0007C27.2118 52.9848 26.9935 52.9888 26.7753 52.9888ZM29.9908 52.7896L29.5563 49.2429C33.2535 48.7877 36.7872 47.4582 39.8616 45.3655L41.8958 48.3149C38.3441 50.7309 34.2616 52.2647 29.9908 52.7876V52.7896ZM50.3591 38.8635L47.1756 37.1827C48.9249 33.9116 49.8534 30.2684 49.882 26.5635C49.9105 22.8586 49.0384 19.2017 47.3398 15.9042L50.5433 14.2772C52.5054 18.0871 53.5129 22.3121 53.4797 26.5926C53.4466 30.8731 52.374 35.0822 50.3531 38.8615L50.3591 38.8635ZM0.324359 30.4995C0.109388 29.1324 0.000947845 27.7509 5.40912e-06 26.3672C-0.00184605 23.4829 0.471607 20.6177 1.40154 17.8857L4.80526 19.0328C3.61241 22.5414 3.29294 26.2855 3.87424 29.9439L0.324359 30.4995ZM5.62415 16.9816L2.34457 15.5159C4.10733 11.6126 6.78985 8.18941 10.165 5.53612C13.5401 2.88283 17.5084 1.07765 21.7338 0.273438L22.4105 3.78633C19.1346 4.40735 16.0323 5.72545 13.3164 7.65033C10.6005 9.5752 8.33502 12.0613 6.6753 14.9384C6.29088 15.5876 5.93049 16.2786 5.62415 16.9816ZM46.2426 13.9944C43.2557 9.36135 38.7037 5.9412 33.4066 4.34991L34.4457 0.926629C40.5651 2.76502 45.8236 6.71625 49.2739 12.0687L46.2426 13.9944Z" fill="#A6DAFF"/>
<path d="M26.7391 40.9476C23.834 40.9476 20.9942 40.1082 18.5787 38.5356C16.1632 36.9631 14.2806 34.7279 13.1689 32.1127C12.0571 29.4976 11.7663 26.62 12.333 23.8438C12.8998 21.0676 14.2987 18.5175 16.3529 16.516C18.4071 14.5145 21.0243 13.1514 23.8736 12.5992C26.7228 12.047 29.6761 12.3304 32.3601 13.4136C35.044 14.4969 37.338 16.3312 38.952 18.6848C40.566 21.0383 41.4274 23.8053 41.4274 26.6359C41.4231 30.4303 39.8742 34.0681 37.1206 36.7512C34.3669 39.4343 30.6334 40.9434 26.7391 40.9476ZM26.7391 14.6816C24.3126 14.682 21.9408 15.3835 19.9234 16.6972C17.9061 18.011 16.3339 19.8782 15.4056 22.0626C14.4773 24.247 14.2346 26.6505 14.7082 28.9693C15.1819 31.2881 16.3505 33.4179 18.0664 35.0896C19.7823 36.7612 21.9684 37.8995 24.3483 38.3606C26.7282 38.8217 29.1949 38.5849 31.4367 37.68C33.6784 36.7752 35.5944 35.243 36.9424 33.2771C38.2905 31.3113 39.01 29.0002 39.01 26.6359C39.0078 23.4652 37.7145 20.4249 35.4138 18.1825C33.1131 15.9401 29.9932 14.6788 26.7391 14.6757V14.6816Z" fill="#A6DAFF"/>
<path d="M26.7398 36.4301C31.9399 36.4301 36.1554 32.046 36.1554 26.6379C36.1554 21.2298 31.9399 16.8457 26.7398 16.8457C21.5397 16.8457 17.3242 21.2298 17.3242 26.6379C17.3242 32.046 21.5397 36.4301 26.7398 36.4301Z" fill="#FF8B60"/>
<path d="M215.488 14.6001V38.036C215.488 39.37 214.958 40.6493 214.015 41.5926C213.071 42.5359 211.792 43.0658 210.458 43.0658H65.3466C64.5753 43.065 63.8145 42.8865 63.1233 42.5442C62.4321 42.2019 61.8289 41.7051 61.3607 41.0921C60.8925 40.4791 60.5717 39.7666 60.4233 39.0097C60.2749 38.2527 60.3028 37.4718 60.5048 36.7274C62.3131 29.9073 62.3131 22.7336 60.5048 15.9135C60.3019 15.1688 60.2733 14.3873 60.4213 13.6298C60.5694 12.8722 60.89 12.159 61.3583 11.5455C61.8266 10.9319 62.4301 10.4346 63.1218 10.092C63.8135 9.74947 64.5748 9.57095 65.3466 9.57031H210.458C211.792 9.57031 213.071 10.1002 214.015 11.0435C214.958 11.9868 215.488 13.2661 215.488 14.6001Z" fill="#E7EAEE"/>
</svg>
