<svg width="203" height="75" viewBox="0 0 203 75" fill="none" xmlns="http://www.w3.org/2000/svg">
<path d="M58.5623 25.0905C56.963 22.311 54.8018 19.9144 52.2371 18C54.384 19.7584 56.1994 21.8714 57.597 24.2822C58.9657 26.6646 59.8446 29.203 60.2769 31.8123C60.5794 31.8265 60.8675 31.869 61.1557 31.9683C60.6803 29.5717 59.8302 27.2602 58.5623 25.0905Z" fill="#BCC1CE"/>
<path d="M43.5688 61.8816C38.3265 64.8459 32.5205 66.4053 26.785 66.4053C16.9768 66.4053 8.56375 61.8816 4.25154 54.3235C0.827125 48.2825 0.362086 41.0474 2.96915 33.9528C4.43473 29.9489 6.78813 26.2541 9.83207 23.0791C6.19626 26.5913 3.406 30.7778 1.72903 35.3577C-0.962578 42.6911 -0.497539 50.1509 3.02552 56.3465C7.46456 64.1435 16.1595 68.7936 26.3059 68.7936C32.3091 68.7936 38.3687 67.1499 43.8507 64.0592C54.2225 58.2009 60.5077 48.2263 61.1559 38.3922C60.7895 38.5608 60.3949 38.6732 59.9862 38.7012C58.887 47.6784 52.9824 56.5572 43.5688 61.8816Z" fill="#BCC1CE"/>
<path d="M2.18439 55.5083C3.49641 59.6569 9.42167 62.5343 18.4507 63.4283C26.3228 64.2105 35.5775 63.3724 44.5219 61.0956C53.424 58.8328 60.9434 55.3965 65.6977 51.4295C69.7749 48.0352 71.4114 44.613 70.4379 41.554C69.5633 38.7743 66.6148 36.5673 62.0438 35.1426C65.9093 36.5115 68.3923 38.5228 69.1824 40.9953C70.1276 43.9705 68.5334 47.281 64.5691 50.5915C55.0463 58.5394 34.6323 63.7496 19.0573 62.227C10.4234 61.3749 4.752 58.6092 3.48231 54.6283C2.55119 51.6949 4.18769 48.3006 8.09556 45.0321C9.95779 43.4816 12.2432 42.0289 14.825 40.7019C11.7636 42.1825 9.06896 43.8448 6.92461 45.6327C2.84746 49.027 1.21095 52.4493 2.18439 55.5083Z" fill="#EB8032"/>
<path d="M61.7929 34.7141C61.7929 35.8446 60.8674 36.767 59.7331 36.767C58.5987 36.767 57.6733 35.8446 57.6733 34.7141C57.6733 33.5835 58.5987 32.6611 59.7331 32.6611C60.8674 32.6611 61.7929 33.5835 61.7929 34.7141Z" fill="#EB8032"/>
<path d="M13.1825 22.3976C13.1825 23.5282 12.2571 24.4506 11.1227 24.4506C9.98837 24.4506 9.06296 23.5282 9.06296 22.3976C9.06296 21.2671 9.98837 20.3447 11.1227 20.3447C12.2571 20.3596 13.1825 21.2671 13.1825 22.3976Z" fill="#BCC1CE"/>
<path d="M50.2582 14.5963C50.2582 15.9512 49.1459 17.0598 47.7865 17.0598C46.427 17.0598 45.3148 15.965 45.3148 14.5963C45.3148 13.2414 46.4133 12.1328 47.7865 12.1328C49.1459 12.1328 50.2582 13.2277 50.2582 14.5963Z" fill="#2C66BC"/>
<path d="M36.8387 66.254C27.9131 66.254 18.9451 62.1841 12.2332 55.0725C6.38691 48.8762 2.96712 41.1449 2.58399 33.2868C2.20086 25.4852 4.89697 18.4861 10.1473 13.5995C14.6455 9.41701 20.5202 7.20605 27.1185 7.20605C33.1067 7.20605 39.0949 9.03678 44.4161 12.3743C39.5915 9.60008 34.2561 8.07917 28.9206 8.07917C22.5068 8.07917 16.8165 10.2338 12.4319 14.3036C1.90287 24.091 2.74008 42.018 14.2908 54.2698C20.7046 61.0716 29.3038 64.9725 37.8746 64.9725C44.1891 64.9725 50.0354 62.7615 54.3634 58.748C56.4209 56.8328 58.0527 54.6078 59.2447 52.1715C57.9818 55.0443 56.1655 57.6495 53.7957 59.8605C49.3117 64.0571 43.437 66.254 36.8387 66.254Z" fill="#2C66BC"/>
<path d="M11.1227 37.5899C11.1227 25.1312 21.2937 15.0078 33.7801 15.0078C46.2663 15.0078 56.4375 25.1452 56.4375 37.5899C56.4375 50.0486 46.2665 60.172 33.7801 60.172C21.2799 60.172 11.1227 50.0348 11.1227 37.5899Z" stroke="#2C66BC"/>
<path d="M44.8746 42.3048H38.511V48.6473H29.0492V42.3048H28.9934H22.6856V32.8745H29.0492V26.5319H38.511V32.8745H40.6322H44.8746V42.3048ZM33.7801 16.2393C21.946 16.2393 12.3586 25.7948 12.3586 37.5896C12.3586 49.3844 21.946 58.94 33.7801 58.94C45.6003 58.94 55.2016 49.3844 55.2016 37.5896C55.2016 25.7948 45.6143 16.2393 33.7801 16.2393Z" fill="#2C66BC"/>
<path d="M82.8849 34.1138C82.753 34.1138 82.641 34.0678 82.5487 33.9759C82.4564 33.897 82.4103 33.7854 82.4103 33.6408V32.1824C78.4555 32.1824 76.3332 30.4613 76.0431 27.0189L76.0234 26.3094L76.0431 25.6C76.1354 23.9182 76.7418 22.6306 77.8623 21.7372C78.9828 20.8438 80.4988 20.397 82.4103 20.397V19.1751C82.4103 19.0306 82.4564 18.9189 82.5487 18.8401C82.641 18.7481 82.753 18.7021 82.8849 18.7021H84.7238C84.8688 18.7021 84.9809 18.7481 85.06 18.8401C85.1522 18.9189 85.1984 19.0306 85.1984 19.1751V20.397C87.1098 20.397 88.6258 20.8438 89.7463 21.7372C90.8668 22.6306 91.4732 23.9182 91.5655 25.6C91.5787 25.8102 91.5853 26.0795 91.5853 26.408C91.5853 26.6576 91.5787 26.8613 91.5655 27.0189C91.2887 30.4613 89.1663 32.1824 85.1984 32.1824V33.6408C85.1984 33.7854 85.1522 33.897 85.06 33.9759C84.9809 34.0678 84.8688 34.1138 84.7238 34.1138H82.8849ZM82.4301 22.7029C81.3359 22.7029 80.4988 22.9459 79.9188 23.4321C79.3388 23.9051 79.0026 24.654 78.9103 25.6788L78.8906 26.2897L78.9103 26.9204C79.029 28.9043 80.2022 29.8963 82.4301 29.8963V22.7029ZM85.1786 29.8963C87.4328 29.8963 88.606 28.9043 88.6983 26.9204C88.7115 26.789 88.7181 26.5459 88.7181 26.1912C88.7181 25.9416 88.7115 25.7708 88.6983 25.6788C88.606 24.654 88.2633 23.9051 87.6701 23.4321C87.0901 22.9459 86.2596 22.7029 85.1786 22.7029V29.8963ZM94.642 33.4832C94.5102 33.4832 94.3981 33.4372 94.3058 33.3452C94.2135 33.2532 94.1674 33.1416 94.1674 33.0102V20.1802C94.1674 20.0357 94.207 19.9175 94.286 19.8255C94.3783 19.7335 94.497 19.6875 94.642 19.6875H96.4612C96.6062 19.6875 96.7248 19.7335 96.8171 19.8255C96.9094 19.9175 96.9555 20.0357 96.9555 20.1802V25.2452H102.729V20.1802C102.729 20.0357 102.776 19.9175 102.868 19.8255C102.96 19.7335 103.072 19.6875 103.204 19.6875H105.043C105.188 19.6875 105.3 19.7335 105.379 19.8255C105.471 19.9175 105.518 20.0357 105.518 20.1802V33.0102C105.518 33.1416 105.471 33.2532 105.379 33.3452C105.3 33.4372 105.188 33.4832 105.043 33.4832H103.204C103.072 33.4832 102.96 33.4372 102.868 33.3452C102.776 33.2532 102.729 33.1416 102.729 33.0102V27.7481H96.9555V33.0102C96.9555 33.1416 96.9094 33.2532 96.8171 33.3452C96.7248 33.4372 96.6062 33.4832 96.4612 33.4832H94.642ZM119.704 32.8131C119.744 32.8656 119.764 32.9379 119.764 33.0299C119.764 33.1481 119.718 33.2532 119.625 33.3452C119.546 33.4372 119.441 33.4832 119.309 33.4832H117.233C116.969 33.4832 116.771 33.3715 116.639 33.1481L113.258 27.7481H111.399V33.0102C111.399 33.1416 111.353 33.2532 111.261 33.3452C111.169 33.4372 111.05 33.4832 110.905 33.4832H109.086C108.954 33.4832 108.842 33.4372 108.75 33.3452C108.657 33.2532 108.611 33.1416 108.611 33.0102V20.1802C108.611 20.0357 108.651 19.9175 108.73 19.8255C108.822 19.7335 108.941 19.6875 109.086 19.6875H110.905C111.05 19.6875 111.169 19.7335 111.261 19.8255C111.353 19.9175 111.399 20.0357 111.399 20.1802V25.2452L113.1 25.2649L116.283 20.0423C116.428 19.8058 116.666 19.6875 116.995 19.6875H119.012C119.144 19.6875 119.243 19.727 119.309 19.8058C119.388 19.8846 119.428 19.9832 119.428 20.1014C119.428 20.1671 119.395 20.2459 119.329 20.3379L115.611 26.3489L119.704 32.8131ZM132.377 36.2423C132.245 36.2423 132.133 36.1963 132.041 36.1043C131.948 36.0255 131.902 35.9138 131.902 35.7693V33.4832H122.371C122.226 33.4832 122.108 33.4372 122.015 33.3452C121.936 33.2532 121.897 33.135 121.897 32.9905V20.1605C121.897 20.016 121.943 19.9043 122.035 19.8255C122.127 19.7335 122.239 19.6875 122.371 19.6875H124.19C124.335 19.6875 124.454 19.7335 124.546 19.8255C124.639 19.9175 124.685 20.0292 124.685 20.1605V30.9802H130.459V20.1605C130.459 20.0292 130.505 19.9175 130.597 19.8255C130.689 19.7335 130.802 19.6875 130.933 19.6875H132.772C132.917 19.6875 133.029 19.7335 133.108 19.8255C133.201 19.9043 133.247 20.016 133.247 20.1605V30.9802H134.196C134.341 30.9802 134.46 31.0262 134.552 31.1182C134.644 31.2102 134.69 31.3218 134.69 31.4532V35.7693C134.69 35.9138 134.644 36.0255 134.552 36.1043C134.46 36.1963 134.341 36.2423 134.196 36.2423H132.377ZM147.748 34.1138C147.617 34.1138 147.505 34.0678 147.412 33.9759C147.32 33.897 147.274 33.7854 147.274 33.6408V32.1824C143.319 32.1824 141.197 30.4613 140.907 27.0189L140.887 26.3094L140.907 25.6C140.999 23.9182 141.605 22.6306 142.726 21.7372C143.846 20.8438 145.362 20.397 147.274 20.397V19.1751C147.274 19.0306 147.32 18.9189 147.412 18.8401C147.505 18.7481 147.617 18.7021 147.748 18.7021H149.587C149.732 18.7021 149.844 18.7481 149.924 18.8401C150.016 18.9189 150.062 19.0306 150.062 19.1751V20.397C151.973 20.397 153.489 20.8438 154.61 21.7372C155.73 22.6306 156.337 23.9182 156.429 25.6C156.442 25.8102 156.449 26.0795 156.449 26.408C156.449 26.6576 156.442 26.8613 156.429 27.0189C156.152 30.4613 154.03 32.1824 150.062 32.1824V33.6408C150.062 33.7854 150.016 33.897 149.924 33.9759C149.844 34.0678 149.732 34.1138 149.587 34.1138H147.748ZM147.294 22.7029C146.199 22.7029 145.362 22.9459 144.782 23.4321C144.202 23.9051 143.866 24.654 143.774 25.6788L143.754 26.2897L143.774 26.9204C143.893 28.9043 145.066 29.8963 147.294 29.8963V22.7029ZM150.042 29.8963C152.296 29.8963 153.47 28.9043 153.562 26.9204C153.575 26.789 153.582 26.5459 153.582 26.1912C153.582 25.9416 153.575 25.7708 153.562 25.6788C153.47 24.654 153.127 23.9051 152.534 23.4321C151.954 22.9459 151.123 22.7029 150.042 22.7029V29.8963ZM159.505 33.4832C159.373 33.4832 159.261 33.4372 159.169 33.3452C159.076 33.2532 159.03 33.1416 159.03 33.0102V20.1802C159.03 20.0357 159.07 19.9175 159.149 19.8255C159.241 19.7335 159.36 19.6875 159.505 19.6875H161.106C161.357 19.6875 161.555 19.8124 161.7 20.062L165.516 27.1175L169.332 20.062C169.477 19.8124 169.675 19.6875 169.925 19.6875H171.507C171.652 19.6875 171.771 19.7335 171.863 19.8255C171.956 19.9175 172.002 20.0357 172.002 20.1802V33.0102C172.002 33.1547 171.956 33.2729 171.863 33.3649C171.771 33.4437 171.652 33.4832 171.507 33.4832H169.807C169.675 33.4832 169.563 33.4372 169.471 33.3452C169.378 33.2532 169.332 33.1416 169.332 33.0102V24.5357L166.584 29.7386C166.439 30.0277 166.221 30.1722 165.931 30.1722H165.101C164.824 30.1722 164.6 30.0277 164.428 29.7386L161.68 24.5357V33.0102C161.68 33.1416 161.634 33.2532 161.541 33.3452C161.462 33.4372 161.35 33.4832 161.205 33.4832H159.505ZM175.552 33.4832C175.42 33.4832 175.308 33.4372 175.216 33.3452C175.123 33.2532 175.077 33.1416 175.077 33.0102V20.1802C175.077 20.0357 175.117 19.9175 175.196 19.8255C175.288 19.7335 175.407 19.6875 175.552 19.6875H184.608C184.753 19.6875 184.872 19.7335 184.964 19.8255C185.056 19.9175 185.103 20.0357 185.103 20.1802V21.5795C185.103 21.724 185.056 21.8423 184.964 21.9343C184.872 22.0131 184.753 22.0525 184.608 22.0525H177.865V25.1861H181.168C182.657 25.1861 183.824 25.554 184.668 26.2897C185.524 27.0255 185.953 28.024 185.953 29.2854C185.953 30.0343 185.768 30.7306 185.399 31.3744C185.03 32.0051 184.483 32.5175 183.758 32.9116C183.046 33.2927 182.183 33.4832 181.168 33.4832H175.552ZM180.891 31.3744C181.563 31.3744 182.097 31.1708 182.492 30.7635C182.888 30.3562 183.086 29.8503 183.086 29.2459C183.086 28.6547 182.895 28.1751 182.512 27.8073C182.143 27.4262 181.603 27.2357 180.891 27.2357H177.865V31.3744H180.891ZM187.068 33.4832C186.95 33.4832 186.851 33.4437 186.772 33.3649C186.693 33.2861 186.653 33.1875 186.653 33.0693L186.693 32.8919L191.438 20.1802C191.57 19.8518 191.808 19.6875 192.15 19.6875H194.325C194.668 19.6875 194.905 19.8518 195.037 20.1802L199.783 32.8919L199.822 33.0693C199.822 33.1875 199.776 33.2861 199.684 33.3649C199.605 33.4437 199.513 33.4832 199.407 33.4832H197.647C197.371 33.4832 197.179 33.3583 197.074 33.1087L196.164 30.724H190.311L189.402 33.1087C189.296 33.3583 189.105 33.4832 188.828 33.4832H187.068ZM191.003 28.4379H195.472L193.238 22.3678L191.003 28.4379ZM76.9923 56.4758C76.8605 56.4758 76.7484 56.4299 76.6561 56.3379C76.5639 56.2459 76.5177 56.1342 76.5177 56.0029V43.1729C76.5177 43.0284 76.5573 42.9102 76.6364 42.8182C76.7286 42.7262 76.8473 42.6802 76.9923 42.6802H82.2916C83.8867 42.6802 85.1391 43.0547 86.0486 43.8036C86.9582 44.5525 87.413 45.643 87.413 47.0751C87.413 48.4941 86.9582 49.5715 86.0486 50.3072C85.1391 51.0299 83.8867 51.3912 82.2916 51.3912H79.3849V56.0029C79.3849 56.1474 79.3388 56.2656 79.2465 56.3576C79.1542 56.4364 79.0356 56.4758 78.8906 56.4758H76.9923ZM82.1928 49.1839C82.9574 49.1839 83.5374 49.0065 83.9329 48.6518C84.3415 48.2839 84.5458 47.7518 84.5458 47.0554C84.5458 46.3722 84.3481 45.8401 83.9526 45.4591C83.5703 45.078 82.9837 44.8875 82.1928 44.8875H79.3454V49.1839H82.1928ZM93.9021 56.6729C92.3466 56.6729 91.147 56.2788 90.3033 55.4904C89.4596 54.7021 89.0048 53.6116 88.9389 52.2189L88.9191 51.3518L88.9389 50.4846C89.0048 49.105 89.4662 48.0211 90.3231 47.2328C91.1799 46.4313 92.3729 46.0306 93.9021 46.0306C95.4181 46.0306 96.6045 46.4313 97.4614 47.2328C98.3182 48.0211 98.7796 49.105 98.8455 50.4846C98.8587 50.6423 98.8653 50.9313 98.8653 51.3518C98.8653 51.7722 98.8587 52.0613 98.8455 52.2189C98.7796 53.6116 98.3248 54.7021 97.4812 55.4904C96.6375 56.2788 95.4445 56.6729 93.9021 56.6729ZM93.9021 54.6824C94.6008 54.6824 95.1347 54.4656 95.5038 54.0321C95.8861 53.5985 96.0904 52.9612 96.1168 52.1204C96.1299 51.989 96.1365 51.7328 96.1365 51.3518C96.1365 50.9707 96.1299 50.7145 96.1168 50.5832C96.0904 49.7423 95.8861 49.105 95.5038 48.6715C95.1215 48.2248 94.5876 48.0014 93.9021 48.0014C93.2034 48.0014 92.663 48.2248 92.2807 48.6715C91.8984 49.105 91.694 49.7423 91.6677 50.5832L91.6479 51.3518L91.6677 52.1204C91.694 52.9612 91.8984 53.5985 92.2807 54.0321C92.663 54.4656 93.2034 54.6824 93.9021 54.6824ZM105.504 56.6729C104.054 56.6729 102.894 56.2722 102.024 55.4707C101.167 54.6693 100.713 53.5591 100.66 52.1401L100.64 51.3518L100.66 50.5634C100.713 49.1445 101.167 48.0342 102.024 47.2328C102.894 46.4313 104.054 46.0306 105.504 46.0306C106.546 46.0306 107.422 46.2145 108.134 46.5824C108.859 46.9503 109.393 47.4036 109.736 47.9423C110.092 48.4678 110.283 48.9737 110.309 49.4598C110.323 49.5912 110.276 49.7029 110.171 49.7948C110.079 49.8868 109.967 49.9328 109.835 49.9328H108.075C107.93 49.9328 107.824 49.9065 107.759 49.854C107.693 49.7883 107.627 49.6766 107.561 49.5189C107.363 49.0196 107.099 48.6583 106.77 48.435C106.453 48.2116 106.045 48.0999 105.544 48.0999C104.872 48.0999 104.344 48.3102 103.962 48.7306C103.593 49.151 103.395 49.7948 103.369 50.662L103.349 51.3912L103.369 52.0415C103.448 53.7496 104.173 54.6036 105.544 54.6036C106.058 54.6036 106.473 54.4985 106.79 54.2883C107.106 54.0649 107.363 53.697 107.561 53.1846C107.614 53.0401 107.673 52.935 107.739 52.8693C107.818 52.8036 107.93 52.7707 108.075 52.7707H109.835C109.967 52.7707 110.079 52.8167 110.171 52.9087C110.276 53.0007 110.323 53.1123 110.309 53.2437C110.283 53.7036 110.098 54.2029 109.756 54.7415C109.413 55.2671 108.886 55.7204 108.174 56.1014C107.462 56.4824 106.572 56.6729 105.504 56.6729ZM116.821 56.6729C115.371 56.6729 114.211 56.2722 113.34 55.4707C112.484 54.6693 112.029 53.5591 111.976 52.1401L111.956 51.3518L111.976 50.5634C112.029 49.1445 112.484 48.0342 113.34 47.2328C114.211 46.4313 115.371 46.0306 116.821 46.0306C117.862 46.0306 118.739 46.2145 119.451 46.5824C120.176 46.9503 120.709 47.4036 121.052 47.9423C121.408 48.4678 121.599 48.9737 121.626 49.4598C121.639 49.5912 121.593 49.7029 121.487 49.7948C121.395 49.8868 121.283 49.9328 121.151 49.9328H119.391C119.246 49.9328 119.141 49.9065 119.075 49.854C119.009 49.7883 118.943 49.6766 118.877 49.5189C118.679 49.0196 118.416 48.6583 118.086 48.435C117.77 48.2116 117.361 48.0999 116.86 48.0999C116.188 48.0999 115.661 48.3102 115.278 48.7306C114.909 49.151 114.711 49.7948 114.685 50.662L114.665 51.3912L114.685 52.0415C114.764 53.7496 115.489 54.6036 116.86 54.6036C117.374 54.6036 117.79 54.4985 118.106 54.2883C118.422 54.0649 118.679 53.697 118.877 53.1846C118.93 53.0401 118.989 52.935 119.055 52.8693C119.134 52.8036 119.246 52.7707 119.391 52.7707H121.151C121.283 52.7707 121.395 52.8167 121.487 52.9087C121.593 53.0007 121.639 53.1123 121.626 53.2437C121.599 53.7036 121.415 54.2029 121.072 54.7415C120.729 55.2671 120.202 55.7204 119.49 56.1014C118.778 56.4824 117.888 56.6729 116.821 56.6729ZM133.08 46.2277C133.198 46.2277 133.304 46.2737 133.396 46.3656C133.488 46.4445 133.534 46.543 133.534 46.6613V56.0029C133.534 56.1342 133.488 56.2459 133.396 56.3379C133.317 56.4299 133.205 56.4758 133.06 56.4758H131.379C131.247 56.4758 131.135 56.4299 131.043 56.3379C130.951 56.2459 130.904 56.1342 130.904 56.0029V49.716L126.218 56.1605C126.073 56.3707 125.889 56.4758 125.664 56.4758H124.142C124.01 56.4758 123.898 56.4364 123.806 56.3576C123.727 56.2656 123.687 56.154 123.687 56.0226V46.7007C123.687 46.5561 123.733 46.4445 123.826 46.3656C123.918 46.2737 124.03 46.2277 124.162 46.2277H125.842C125.974 46.2277 126.086 46.2737 126.179 46.3656C126.271 46.4576 126.317 46.5693 126.317 46.7007V52.9875L131.003 46.543C131.162 46.3328 131.346 46.2277 131.557 46.2277H133.08ZM145.419 46.2277C145.538 46.2277 145.643 46.2737 145.736 46.3656C145.828 46.4445 145.874 46.543 145.874 46.6613V56.0029C145.874 56.1342 145.828 56.2459 145.736 56.3379C145.657 56.4299 145.544 56.4758 145.399 56.4758H143.719C143.587 56.4758 143.475 56.4299 143.383 56.3379C143.29 56.2459 143.244 56.1342 143.244 56.0029V49.716L138.558 56.1605C138.413 56.3707 138.228 56.4758 138.004 56.4758H136.481C136.35 56.4758 136.238 56.4364 136.145 56.3576C136.066 56.2656 136.027 56.154 136.027 56.0226V46.7007C136.027 46.5561 136.073 46.4445 136.165 46.3656C136.257 46.2737 136.369 46.2277 136.501 46.2277H138.182C138.314 46.2277 138.426 46.2737 138.518 46.3656C138.61 46.4576 138.657 46.5693 138.657 46.7007V52.9875L143.343 46.543C143.501 46.3328 143.686 46.2277 143.897 46.2277H145.419Z" fill="#2C66BC"/>
</svg>
