<svg width="130" height="75" viewBox="0 0 130 75" fill="none" xmlns="http://www.w3.org/2000/svg">
<g clip-path="url(#clip0_313_4538)">
<path d="M53.5392 30.3457H52.7315H49.3853H48.3468H45.2314C43.3852 30.3457 41.3083 31.8457 41.3083 33.8073V38.7689V39.2304C41.3083 41.192 43.3852 42.5766 45.2314 42.5766H49.2699H50.5392H53.3084C55.1546 42.5766 57.2315 41.0766 57.2315 39.1151V33.8073C57.4623 31.8457 55.3854 30.3457 53.5392 30.3457ZM52.9623 39.9228H49.5007H46.0391C45.9237 39.9228 45.8083 39.9228 45.8083 39.9228C45.6929 39.9228 45.6929 39.9228 45.5775 39.9228C45.5775 39.9228 45.5775 39.9228 45.4622 39.9228C45.4622 39.9228 45.3468 39.9228 45.3468 39.8074C45.3468 39.8074 45.3468 39.8074 45.2314 39.8074C45.2314 39.8074 45.116 39.8074 45.116 39.692C45.116 39.692 45.116 39.692 45.0006 39.5766C45.0006 39.5766 45.0006 39.5766 44.8852 39.4612V39.3458V39.2304V39.1151V38.9997V38.8843V38.7689V34.4996C44.8852 34.3842 44.8852 34.2688 44.8852 34.2688V34.1534V34.0381V33.9227C44.8852 33.9227 44.8852 33.8073 45.0006 33.8073C45.0006 33.8073 45.0006 33.6919 45.116 33.6919L45.2314 33.5765C45.2314 33.5765 45.2314 33.5765 45.3468 33.4611L45.4622 33.3457C45.4622 33.3457 45.4622 33.3457 45.5775 33.3457C45.5775 33.3457 45.6929 33.3457 45.6929 33.2304C45.6929 33.2304 45.6929 33.2304 45.8083 33.2304H45.9237C45.9237 33.2304 45.9237 33.2304 46.0391 33.2304C46.1545 33.2304 46.2699 33.2304 46.2699 33.2304H49.7314H52.9623H53.0776C53.8854 33.2304 54.4623 33.8073 54.4623 34.615V38.8843C54.3469 39.3458 53.77 39.9228 52.9623 39.9228Z" fill="#231F20"/>
<path d="M90.6935 30.1152H89.8858H86.5396H85.5011H82.3857C80.5395 30.1152 78.4626 31.6153 78.4626 33.5768V38.5384V39C78.4626 40.9615 80.5395 42.3462 82.3857 42.3462H86.4242H87.6935H90.4628C92.3089 42.3462 94.3859 40.8461 94.3859 38.8846V33.5768C94.6167 31.6153 92.5397 30.1152 90.6935 30.1152ZM90.1166 39.6923H86.655H83.1934C83.078 39.6923 82.9627 39.6923 82.9627 39.6923C82.9627 39.6923 82.9627 39.6923 82.8473 39.6923C82.7319 39.6923 82.7319 39.6923 82.7319 39.6923C82.7319 39.6923 82.7319 39.6923 82.6165 39.6923C82.6165 39.6923 82.5011 39.6923 82.5011 39.5769C82.5011 39.5769 82.5011 39.5769 82.3857 39.5769C82.3857 39.5769 82.2703 39.5769 82.2703 39.4615L82.1549 39.3461C82.1549 39.3461 82.1549 39.3461 82.1549 39.2307C82.1549 39.2307 82.1549 39.1154 82.0396 39.1154C82.0396 39.1154 82.0396 39.1154 82.0396 39V38.8846V38.7692C82.0396 38.7692 82.0396 38.6538 82.0396 38.5384L81.9242 34.0384C81.9242 33.923 81.9242 33.923 81.9242 33.8076V33.6922V33.5768V33.4614C81.9242 33.4614 81.9242 33.346 82.0396 33.346C82.0396 33.346 82.0396 33.346 82.0396 33.2307L82.1549 33.1153C82.1549 33.1153 82.155 33.1153 82.2703 32.9999L82.3857 32.8845C82.3857 32.8845 82.3857 32.8845 82.5011 32.8845L82.6165 32.7691C82.6165 32.7691 82.6165 32.7691 82.7319 32.7691C82.7319 32.7691 82.8473 32.7691 82.9627 32.7691C83.078 32.7691 83.1934 32.7691 83.1934 32.7691H86.655H90.0012H90.1166C90.9243 32.7691 91.5012 33.346 91.5012 34.1538V38.423C91.5012 39.1154 90.9243 39.6923 90.1166 39.6923Z" fill="#231F20"/>
<path d="M3.11543 30.5771H2.88465C1.26925 30.6925 0 31.9618 0 33.5772V42.6927C0 42.6927 0 42.8081 0.115386 42.8081H3.23081C3.23081 42.8081 3.3462 42.8081 3.3462 42.6927L3.11543 30.5771C3.23081 30.5771 3.23081 30.6925 3.11543 30.5771Z" fill="#231F20"/>
<path d="M111.578 30H111.348C109.732 30 108.463 31.3846 108.463 33V42.1155C108.463 42.1155 108.463 42.2309 108.578 42.2309H111.694C111.694 42.2309 111.809 42.2309 111.809 42.1155L111.578 30Z" fill="#231F20"/>
<path d="M72.1164 30.2305H71.3087H67.0394H63.9239C62.0778 30.2305 60.0008 31.7305 60.0008 33.6921V38.6537V39.1152L60.1162 50.0769C60.1162 50.0769 60.1162 50.1923 60.2316 50.1923H60.4624C62.0778 50.1923 63.347 48.8076 63.347 47.1922V42.5768V42.4614H63.4624C63.6932 42.4614 63.8086 42.4614 64.0393 42.4614H69.3471H72.1164C73.9625 42.4614 76.0395 40.9614 76.0395 38.9998V33.6921C76.0395 31.7305 73.8471 30.2305 72.1164 30.2305ZM71.5394 39.8075H64.7316C64.6163 39.8075 64.5009 39.8075 64.5009 39.8075C64.3855 39.8075 64.3855 39.8075 64.2701 39.8075C64.2701 39.8075 64.2701 39.8075 64.1547 39.8075C64.1547 39.8075 64.0393 39.8075 64.0393 39.6921C64.0393 39.6921 63.9239 39.6921 63.9239 39.5767L63.8086 39.4614C63.8086 39.4614 63.8086 39.4614 63.8086 39.346C63.8086 39.346 63.8086 39.2306 63.6932 39.2306C63.6932 39.2306 63.6932 39.2306 63.6932 39.1152V38.9998V38.8844C63.6932 38.769 63.6932 38.769 63.6932 38.6537V34.3844C63.6932 34.269 63.6932 34.269 63.6932 34.1536C63.6932 34.1536 63.6932 34.1536 63.6932 34.0382C63.6932 33.9228 63.6932 33.9228 63.6932 33.9228V33.8074C63.6932 33.8074 63.6932 33.6921 63.8086 33.6921C63.8086 33.6921 63.8086 33.6921 63.8086 33.5767L63.9239 33.4613C63.9239 33.4613 63.9239 33.4613 64.0393 33.3459L64.1547 33.2305L64.2701 33.1151C64.3855 33.1151 64.3855 33.1151 64.5009 32.9997C64.6163 32.9997 64.7316 32.9997 64.7316 32.9997H71.424H71.5394C72.3471 32.9997 72.9241 33.5767 72.9241 34.3844V38.6537C72.9241 39.2306 72.2317 39.8075 71.5394 39.8075Z" fill="#231F20"/>
<path d="M126.579 34.9619H126.348H118.617C117.925 34.9619 117.348 34.385 117.348 33.6927C117.348 33.0003 117.925 32.4234 118.617 32.4234H123.809H127.386C128.54 32.4234 129.463 31.5003 129.463 30.2311V29.8849C129.463 29.8849 129.463 29.7695 129.348 29.7695H123.694H121.386H118.386H118.271H118.155C116.078 29.7695 114.463 31.3849 114.463 33.3465C114.463 35.3081 116.078 36.8081 118.04 36.9235H126.463C127.156 36.9235 127.732 37.5004 127.732 38.1927C127.732 38.7697 127.271 39.3466 126.694 39.462C126.579 39.462 126.579 39.462 126.463 39.462H120.925H116.54C115.386 39.462 114.348 40.3851 114.348 41.6543V41.7697C114.348 41.8851 114.463 42.0005 114.578 42.0005H120.809H123.117H125.54H125.656H126.232C128.309 42.0005 129.925 40.3851 129.925 38.4235C130.386 36.4619 128.656 34.9619 126.579 34.9619Z" fill="#231F20"/>
<path d="M38.7698 32.7688V30.5765V30.4611C38.7698 30.4611 38.7698 30.3457 38.6544 30.3457H38.539H38.3082C36.6928 30.3457 35.4236 31.615 35.4236 33.2304V39.3458C35.4236 39.4612 35.3082 39.5766 35.1928 39.5766C35.0774 39.5766 35.0774 39.5766 35.0774 39.4612L26.0773 30.8072C25.8465 30.5765 25.6157 30.4611 25.385 30.4611H23.1926C22.0388 30.4611 20.7695 30.8072 20.7695 32.538V39.4612C20.7695 39.5766 20.6541 39.692 20.5387 39.692C20.4234 39.692 20.4234 39.692 20.4234 39.5766L11.3078 31.038C10.9617 30.5765 10.7309 30.5765 10.5001 30.5765H8.30781C6.80779 30.5765 5.8847 31.615 5.8847 33.115V42.5766C5.8847 42.5766 5.8847 42.692 6.00008 42.692H9.11551C9.11551 42.692 9.2309 42.692 9.2309 42.5766V33.3457C9.2309 33.2304 9.34628 33.115 9.46167 33.115C9.57705 33.115 9.57705 33.115 9.57705 33.2304L18.0002 41.4228L18.1156 41.5382C18.5772 41.9997 19.1541 42.5766 19.731 42.5766C19.731 42.5766 20.8849 42.5766 21.3464 42.5766C21.6926 42.5766 22.8465 42.5766 22.8465 42.5766C23.5388 42.5766 24.1157 41.9997 24.1157 41.3074V33.2304C24.1157 33.115 24.2311 32.9996 24.3465 32.9996C24.4619 32.9996 24.4619 32.9996 24.4619 33.115L32.8851 41.3074L33.0004 41.4228C33.462 41.8843 34.0389 42.4612 34.6159 42.3459C34.6159 42.3459 35.6543 42.3459 36.0005 42.3459C36.462 42.3459 37.6159 42.3459 37.7313 42.3459C38.4236 42.3459 39.0005 41.7689 39.0005 41.0766V37.615L38.7698 32.7688Z" fill="#231F20"/>
<path d="M105.694 40.3847H102.809C101.655 40.3847 100.617 39.4617 100.617 38.3078V25.1538C100.617 24.923 100.501 24.8076 100.386 24.8076C98.7706 24.8076 97.5013 26.1923 97.5013 27.8077L97.6167 38.8847C97.6167 40.8463 99.6936 42.2309 101.54 42.2309H104.655H105.809C105.809 42.2309 105.925 42.2309 105.925 42.1155L105.694 40.3847C105.809 40.3847 105.809 40.3847 105.694 40.3847Z" fill="#231F20"/>
</g>
<defs>
<clipPath id="clip0_313_4538">
<rect width="130" height="75" fill="white"/>
</clipPath>
</defs>
</svg>
