<svg width="335" height="242" viewBox="0 0 335 242" fill="none" xmlns="http://www.w3.org/2000/svg">
<path d="M0 183.42H2.02344V154.404L11.4144 141.013V89.5855L2.29694 80.4681V27.0574L19.2452 10.1172H47.2173L73.7162 23.4719H181.795L193.519 14.1641H283.024L304.173 35.313L305.605 33.8804L279.811 8.09375H197.983L181.795 21.4484H73.2953L46.586 8.09375H18.4036L0.273499 26.2157V81.3017L9.39099 90.4191V140.18L0 153.562V183.42Z" fill="#65B9F4"/>
<path d="M9.58168 89.3712V18.9637L20.0549 8.49844H47.2177L73.2957 21.8531H90.6973L73.2957 13.3547L46.5863 0H18.4039L0.273865 18.1219V79.6829L9.58168 89.3712Z" fill="#65B9F4"/>
<rect x="9" y="199" width="2" height="43" fill="#65B9F4"/>
<path d="M314.171 24.4932C324.224 24.4932 332.395 32.6679 332.395 42.7158C332.395 52.7637 324.22 60.9395 314.171 60.9395C304.122 60.9395 295.948 52.7648 295.948 42.7158H296.507C296.507 52.4565 304.431 60.3809 314.171 60.3809C323.91 60.3809 331.836 52.4565 331.836 42.7158C331.836 32.975 323.912 25.0518 314.171 25.0518V24.4932Z" fill="#65B9F4"/>
<path d="M316.51 22.5673L316.593 22.5773C321.166 23.1306 325.417 25.2208 328.647 28.5056L327.052 30.0694C324.189 27.1276 320.399 25.2628 316.321 24.7891L316.254 24.7813L316.51 22.5673ZM334.357 40.6714C334.424 41.3417 334.459 42.0186 334.459 42.6933C334.46 43.5086 334.412 44.3233 334.316 45.1329C333.094 55.3216 324.446 63.0059 314.199 63.0059C313.396 63.0056 312.594 62.9579 311.796 62.8629L312.056 60.6466C312.766 60.7305 313.481 60.7726 314.196 60.7729C323.312 60.7729 331.007 53.9354 332.094 44.8693C332.181 44.1479 332.224 43.4221 332.225 42.6955C332.225 42.0953 332.195 41.4954 332.134 40.8982L334.357 40.6714ZM296.211 44.5722C296.638 48.6516 298.438 52.4652 301.315 55.3886L299.723 56.9525C296.491 53.6679 294.47 49.3833 293.99 44.8001L296.211 44.5722Z" fill="#65B9F4"/>
<path d="M307.2 35.7489C303.35 39.5982 303.35 45.8393 307.2 49.6886C311.049 53.538 317.29 53.538 321.139 49.6886C324.989 45.8393 324.989 39.5982 321.139 35.7489C317.29 31.8995 311.049 31.8995 307.2 35.7489Z" fill="#FF8B60"/>
<path d="M314.188 56.3984V54.7229C313.705 54.7226 313.222 54.6938 312.743 54.6368C309.702 54.2781 306.913 52.7707 304.946 50.4231C302.98 48.0755 301.986 45.0653 302.166 42.0084C302.346 38.9515 303.688 36.0792 305.917 33.9792C308.146 31.8792 311.093 30.7103 314.155 30.7117C314.638 30.7123 315.121 30.7414 315.601 30.7988C318.638 31.162 321.422 32.6708 323.384 35.0173C325.346 37.3637 326.338 40.3706 326.158 43.424C325.978 46.4773 324.639 49.3467 322.414 51.446C320.19 53.5453 317.248 54.7162 314.189 54.7195V56.3951L314.188 56.3984ZM314.189 56.3951C317.747 56.3927 321.165 55.0046 323.717 52.5252C326.268 50.0458 327.754 46.6699 327.859 43.1134C327.964 39.5569 326.68 36.0993 324.278 33.4738C321.877 30.8483 318.547 29.2613 314.996 29.0493C311.444 28.8372 307.949 30.0168 305.253 32.338C302.556 34.6591 300.869 37.9393 300.55 41.483C300.231 45.0267 301.305 48.5554 303.544 51.3209C305.782 54.0863 309.01 55.8711 312.543 56.2968C313.089 56.3621 313.639 56.3949 314.189 56.3951Z" fill="#65B9F4"/>
</svg>
