<svg width="753" height="320" viewBox="0 0 753 320" fill="none" xmlns="http://www.w3.org/2000/svg">
<path d="M-6.10352e-05 251.33H2.49994V215.48L31.4 186.58V123.04L7.77997 99.42V33.4301L28.7199 12.5H63.28L96.02 29H575.5L589.985 17.5H700.57L726.7 43.63L728.47 41.86L696.6 10H595.5L575.5 26.5H95.5L62.5 10H27.68L5.27997 32.39V100.45L28.9 124.07V185.55L-6.10352e-05 214.44V251.33Z" fill="#65B9F4"/>
<path d="M16.78 110.42V23.4301L29.7199 10.5H63.28L95.5 27H117L95.5 16.5L62.5 0H27.68L5.27997 22.39V98.45L16.78 110.42Z" fill="#65B9F4"/>
<rect x="14" y="221" width="3" height="99" fill="#65B9F4"/>
<path d="M727.934 20.3769C740.355 20.3769 750.449 30.4768 750.449 42.8913C750.449 55.3057 740.35 65.407 727.934 65.407C715.518 65.407 705.419 55.3071 705.419 42.8913H706.109C706.109 54.9261 715.9 64.7169 727.934 64.7169C739.967 64.7169 749.759 54.9261 749.759 42.8913C749.759 30.8564 739.969 21.067 727.934 21.067V20.3769Z" fill="#29ABE2"/>
<path d="M730.824 17.9982L730.926 18.0106C736.577 18.6941 741.828 21.2767 745.819 25.3351L743.848 27.2673C740.311 23.6326 735.629 21.3286 730.591 20.7433L730.508 20.7337L730.824 17.9982ZM752.874 40.3663C752.957 41.1944 753 42.0307 753 42.8643C753.001 43.8717 752.942 44.8782 752.823 45.8786C751.313 58.4669 740.628 67.9609 727.968 67.9609C726.976 67.9606 725.985 67.9016 725 67.7843L725.321 65.0461C726.198 65.1497 727.081 65.2017 727.964 65.202C739.227 65.202 748.735 56.7541 750.078 45.5529C750.185 44.6616 750.239 43.7647 750.24 42.8671C750.24 42.1255 750.203 41.3843 750.128 40.6464L752.874 40.3663ZM705.744 45.1857C706.272 50.226 708.495 54.9377 712.05 58.5497L710.083 60.4819C706.09 56.4237 703.592 51.1299 703 45.4673L705.744 45.1857Z" fill="#29ABE2"/>
<path d="M719.322 34.2843C714.566 39.0403 714.566 46.7512 719.322 51.5072C724.078 56.2632 731.789 56.2632 736.545 51.5072C741.301 46.7512 741.301 39.0403 736.545 34.2843C731.789 29.5283 724.078 29.5283 719.322 34.2843Z" fill="#FF8B60"/>
<path d="M727.954 59.7964V57.7262C727.358 57.7258 726.761 57.6903 726.169 57.6199C722.411 57.1767 718.965 55.3142 716.536 52.4137C714.107 49.5133 712.878 45.794 713.101 42.0172C713.324 38.2404 714.982 34.6915 717.735 32.0969C720.489 29.5023 724.13 28.0581 727.913 28.0599C728.51 28.0607 729.107 28.0966 729.7 28.1675C733.453 28.6162 736.892 30.4804 739.316 33.3795C741.74 36.2786 742.966 39.9937 742.744 43.7662C742.521 47.5386 740.867 51.0838 738.118 53.6775C735.37 56.2713 731.735 57.7179 727.956 57.722V59.7922L727.954 59.7964ZM727.956 59.7922C732.352 59.7893 736.574 58.0743 739.727 55.0109C742.88 51.9475 744.716 47.7766 744.845 43.3824C744.975 38.9883 743.388 34.7164 740.421 31.4726C737.454 28.2287 733.34 26.2679 728.952 26.0059C724.564 25.7439 720.246 27.2014 716.914 30.0692C713.582 32.937 711.499 36.9897 711.104 41.3681C710.71 45.7464 712.037 50.1062 714.803 53.5229C717.569 56.9397 721.557 59.1448 725.922 59.6708C726.597 59.7514 727.276 59.792 727.956 59.7922Z" fill="#29ABE2"/>
</svg>
