<svg width="175" height="75" viewBox="0 0 175 75" fill="none" xmlns="http://www.w3.org/2000/svg">
<path fill-rule="evenodd" clip-rule="evenodd" d="M2.58852 64.6526C3.39061 64.4343 4.22915 64.2161 5.06769 64.0488C5.79686 63.9033 6.70832 63.7578 7.75103 63.6487C8.60415 63.5469 9.40623 63.4814 10.0844 63.4668L10.4271 63.6705L9.27498 63.8669C8.88853 63.9397 8.45103 64.0124 8.05728 64.1215C7.21873 64.3107 6.42394 64.558 5.7604 64.7908C5.15519 64.9799 4.38957 65.2418 3.55832 65.5691C3.17186 65.7291 2.74165 65.8892 2.41352 66.0347C2.24582 66.1292 2.01977 66.2238 1.83019 66.3111C1.64061 66.3838 1.36352 66.4857 1.14477 66.5802C1.10102 66.3911 1.07186 64.8053 2.60311 64.6526H2.58852ZM5.3229 47.2888L5.73123 47.5798L9.55207 47.3761H13.1833L13.5114 47.0997H9.55207L5.3229 47.2888V47.2888ZM12.2208 44.8738L12.5708 45.6958L11.7323 45.3539L11.3677 46.6196L11.0323 45.3539L9.2604 46.5905L10.5437 44.881L7.38644 44.5537L10.5437 44.2191L7.87498 41.1639L11.0323 43.739L11.3823 38.887L11.7469 43.739L15.8302 40.2473L12.2281 44.2118L19.1042 44.5392L12.2208 44.8738V44.8738ZM21.8167 24.1639H8.25415V23.8584H21.8167V24.1711V24.1639ZM21.8385 23.1164H8.27603V22.6072H21.8385V23.0946V23.1164ZM21.8094 21.9743H8.23957V21.0796H21.8021V21.9743H21.8094ZM26.2354 18.2863C26.2354 18.6936 26.0896 19.0428 25.7979 19.3265C25.5062 19.6029 25.1417 19.7484 24.7187 19.7484C24.2812 19.7484 23.9312 19.6029 23.625 19.3119C23.3333 19.0355 23.1875 18.6863 23.1875 18.279C23.1875 17.8789 23.3333 17.5297 23.625 17.246C23.9312 16.9551 24.2812 16.8096 24.7187 16.8096C25.1271 16.8096 25.4917 16.9551 25.7833 17.246C26.075 17.537 26.2208 17.8789 26.2208 18.279L26.2354 18.2863ZM26.0677 18.2863C26.0677 17.9225 25.9364 17.6316 25.6739 17.3697C25.4041 17.1151 25.0906 16.9842 24.7114 16.9842C24.3469 16.9842 24.026 17.1078 23.7635 17.3624C23.501 17.6097 23.3698 17.9225 23.3698 18.279C23.3698 18.6427 23.501 18.9482 23.7635 19.2028C24.026 19.4574 24.3469 19.5883 24.7114 19.5883C25.076 19.5883 25.4041 19.4574 25.6594 19.2028C25.9291 18.9482 26.0677 18.6427 26.0677 18.279V18.2863ZM24.3542 19.0282H24.1354V17.4424H24.7917C25.0104 17.4424 25.1781 17.4861 25.2729 17.5661C25.375 17.6388 25.4187 17.7552 25.4187 17.8716C25.4187 17.9953 25.375 18.1044 25.2729 18.1844C25.2 18.2572 25.0833 18.2935 24.9375 18.3081C25.0104 18.3372 25.0469 18.3808 25.0833 18.3808C25.0979 18.4172 25.1417 18.4681 25.2 18.5409L25.3312 18.73L25.5062 19.021H25.2364L25.0906 18.7591C24.9667 18.5554 24.8719 18.4317 24.8135 18.3954C24.7406 18.359 24.6458 18.3372 24.5 18.3372H24.3542V19.021V19.0282ZM24.6677 17.6097H24.3614V18.1626H24.5802C24.7989 18.1626 24.9448 18.148 25.0177 18.1262C25.0906 18.1117 25.1271 18.0753 25.1635 18.0317C25.1927 17.9807 25.2146 17.9298 25.2146 17.8862C25.2146 17.8134 25.1854 17.7407 25.1271 17.6898C25.0541 17.6316 24.9083 17.6025 24.675 17.6025L24.6677 17.6097Z" fill="#496E6E"/>
<path fill-rule="evenodd" clip-rule="evenodd" d="M3.24477 61.2332C3.24477 61.7788 3.08436 62.2516 2.77082 62.6153C2.47915 62.9063 2.0854 63.0809 1.64061 63.0809C1.43644 63.0809 1.24686 63.059 1.07186 63.0299C0.911442 62.9863 0.721859 62.899 0.561442 62.8117C0.452067 62.7535 0.269775 62.6371 0.0510254 62.4771L0.583317 61.6042C0.678109 61.786 0.853109 61.9897 1.0354 62.0916C1.22498 62.1861 1.43644 62.2661 1.61873 62.2661C1.87394 62.2661 2.10728 62.1716 2.24582 62.0261C2.41353 61.8442 2.51561 61.5896 2.51561 61.2259C2.51561 61.0222 2.47915 60.8113 2.39894 60.6294C2.32603 60.4621 2.21665 60.2657 2.10728 60.1202C2.03436 60.0038 1.88853 59.8292 1.72082 59.6838C1.55311 59.5092 1.37811 59.32 1.2104 59.16C1.04998 58.9709 0.90415 58.7672 0.823942 58.6217C0.736442 58.4035 0.678109 58.1562 0.678109 57.9379C0.678109 57.5888 0.787484 57.2832 0.9479 57.0941C1.1229 56.9123 1.36353 56.8177 1.64061 56.8177C1.83019 56.8177 2.00519 56.8468 2.15103 56.8904C2.28228 56.9414 2.47915 57.0359 2.64686 57.1669L2.20936 57.8434C2.0854 57.7343 1.96873 57.6615 1.96873 57.6615C1.89582 57.6106 1.79373 57.5669 1.72811 57.5669C1.50936 57.5669 1.36353 57.6833 1.36353 57.9161C1.36353 58.0325 1.48019 58.2362 1.67707 58.4544C1.89582 58.709 2.11457 58.9636 2.33332 59.1818C2.49373 59.3855 2.66873 59.5746 2.77082 59.7638C2.91665 59.9456 3.04061 60.2002 3.09894 60.4185C3.17186 60.6658 3.24477 60.9713 3.24477 61.2477V61.2332ZM7.75103 63.0081H6.80311C6.83228 62.899 6.89061 62.7753 6.91248 62.6589C6.91248 62.5717 6.93436 62.4553 6.93436 62.3098V57.6542L6.91978 57.3051C6.8979 57.1887 6.84686 57.0286 6.80311 56.9414H7.8604L7.83853 57.1887V57.2614L7.85311 57.3051V57.3778C7.85311 57.4287 7.91144 57.5088 7.92603 57.5597C8.04998 57.7997 8.21769 58.0543 8.36353 58.3016C8.39998 58.3744 8.58227 58.629 8.77186 59.0291L9.0854 59.5165V57.6542L9.07082 57.3051C9.04894 57.1814 8.9979 57.0286 8.94686 56.9414H9.89477C9.84373 57.0286 9.7854 57.1814 9.7854 57.2832L9.77082 57.647V62.6371C9.79269 62.7535 9.84373 62.899 9.91665 63.0008H8.95415C8.9979 62.899 9.05623 62.7826 9.07811 62.6589L9.09269 62.3098V60.8186L7.63436 58.3016V62.6371C7.63436 62.7535 7.70727 62.899 7.76561 63.0008L7.75103 63.0081ZM18.1781 57.6761C18.076 57.6761 17.9448 57.7124 17.8427 57.7488L17.551 57.9161V56.9414H19.9719L18.076 62.2516H19.2062L19.5854 62.237C19.6948 62.2007 19.8041 62.1279 19.95 62.0334V63.0081H17.2083V62.6589L18.9583 57.6761H18.1562H18.1781ZM16.8437 63.0154H13.8541C13.9052 62.9063 13.9635 62.7826 13.9854 62.6662L14 62.3171V57.6615L13.9854 57.3123C13.9635 57.196 13.8979 57.0359 13.8614 56.9486H16.5594V57.967C16.45 57.8943 16.3406 57.807 16.2896 57.807C16.1948 57.7561 16.0708 57.7343 15.9541 57.7343H14.6854V58.0616H16.3625V58.8618H14.6854V62.2079H16.2458C16.3917 62.2079 16.5375 62.1861 16.6104 62.1352C16.6396 62.1352 16.7198 62.0625 16.851 61.9897V63.0081L16.8437 63.0154ZM10.8937 57.6615C10.7333 57.6615 10.5292 57.7343 10.3104 57.8797V56.9341H12.9062C13.0229 56.9341 13.1542 56.9123 13.2708 56.8904C13.2708 56.8904 13.3802 56.8395 13.5479 56.7959C13.5479 57.0286 13.475 57.2542 13.3 57.3996C13.1323 57.5597 12.9354 57.6542 12.7312 57.6542H12.1844V62.6371C12.2281 62.7535 12.2864 62.899 12.3448 63.0008H11.3969C11.426 62.899 11.4916 62.7826 11.5062 62.6589C11.5062 62.5717 11.5281 62.4553 11.5281 62.3098V57.6542H10.901L10.8937 57.6615ZM5.37394 63.0154H4.41144C4.45519 62.9063 4.52082 62.7826 4.54269 62.6662C4.54269 62.5789 4.56457 62.4625 4.56457 62.3171V58.5053C4.52082 58.4835 4.41873 58.338 4.25102 58.1052C4.07602 57.887 3.98123 57.727 3.93748 57.7052C3.82811 57.5597 3.71873 57.4287 3.66769 57.3269C3.53644 57.1814 3.39061 57.0359 3.27394 56.9341H4.49165C4.49165 56.9486 4.46248 57.0068 4.46248 57.0432C4.46248 57.1887 4.51353 57.3196 4.59373 57.4215L4.8854 57.7706C4.8854 57.7415 4.93644 57.6688 4.98019 57.596L5.12603 57.3778L5.24998 57.1887C5.27186 57.1378 5.28644 57.0286 5.28644 56.9341H6.52603C6.43853 56.9705 6.30728 57.1087 6.14686 57.2542L5.85519 57.596L5.51978 58.0543C5.35207 58.258 5.24998 58.4035 5.22811 58.4471V62.6371C5.24998 62.7535 5.30102 62.899 5.37394 63.0008V63.0154ZM8.33436 55.9593H7.38644C7.41561 55.872 7.48123 55.7411 7.49582 55.6538C7.53957 55.5229 7.56873 55.3774 7.56873 55.2901V54.3444C7.56873 53.6534 7.69269 52.9623 7.91873 52.2858C8.16665 51.5948 8.52394 51.0128 8.93957 50.5909C9.37707 50.1545 9.83644 49.8926 10.2521 49.8926H10.325C10.3614 49.8926 10.4271 49.9289 10.4854 49.9289C10.4271 50.0235 10.3614 50.1472 10.3614 50.249L10.3396 50.6127V55.5883C10.3687 55.7193 10.4344 55.8648 10.4854 55.9521H9.53748C9.57394 55.8648 9.63227 55.7338 9.65415 55.6174C9.65415 55.5447 9.67603 55.4138 9.67603 55.2755V54.1262H8.18852V54.8536C8.18852 55.101 8.21769 55.3483 8.21769 55.5229C8.21769 55.6975 8.29061 55.872 8.34165 55.9593H8.33436ZM20.1469 55.9593H19.1989C19.2354 55.872 19.3083 55.7411 19.3302 55.6538C19.3739 55.5229 19.4031 55.3774 19.4031 55.2901V54.3444C19.4031 53.6534 19.5125 52.9623 19.7458 52.2858C20.001 51.5948 20.351 51.0128 20.7666 50.5909C21.2041 50.1545 21.6635 49.8926 22.0791 49.8926H22.1666C22.1812 49.8926 22.2396 49.9289 22.2979 49.9289C22.2396 50.0235 22.1812 50.1472 22.1812 50.249L22.1594 50.6127V55.5883C22.1739 55.7193 22.2323 55.8648 22.2906 55.9521H21.3427C21.3791 55.8648 21.4375 55.7338 21.4666 55.6174C21.4666 55.5447 21.4885 55.4138 21.4885 55.2755V54.1262H20.0083V54.8536L20.0229 55.5229C20.0229 55.6975 20.0958 55.872 20.1469 55.9593ZM15.4802 55.9593H14.4375C14.5104 55.8429 14.5614 55.6975 14.6052 55.5956C14.6489 55.4938 14.7 55.3774 14.7 55.2828C14.7219 54.7736 14.7583 54.1917 14.8021 53.537C14.8385 52.8823 14.9041 52.2422 14.9479 51.6748L15.0208 50.6346C15.0208 50.4891 14.9844 50.3581 14.9844 50.2854C14.9625 50.169 14.9114 50.009 14.8604 49.9217H15.9906C15.9906 49.9944 16.0125 50.0672 16.0344 50.1181C16.0708 50.1617 16.1073 50.2345 16.151 50.2781L16.676 50.8601L17.2448 50.2781C17.3177 50.2054 17.4052 50.0599 17.4416 49.9144H18.5864C18.5281 50.0017 18.4625 50.1326 18.4625 50.2345C18.4625 50.329 18.4406 50.4891 18.4406 50.6346L18.4844 51.6821C18.4844 52.0312 18.5427 52.6859 18.6083 53.5224C18.6448 54.2717 18.6812 54.8609 18.7396 55.2974C18.7396 55.3701 18.7542 55.4938 18.7979 55.5883C18.8417 55.7193 18.9 55.8648 18.9802 55.9884H17.9302C17.9666 55.8939 18.0031 55.7702 18.025 55.6756C18.0396 55.5447 18.0614 55.3992 18.0614 55.3119L17.7698 50.7655L16.676 51.8348L15.6552 50.7873L15.3635 55.2974L15.3781 55.6465C15.4 55.7484 15.451 55.8939 15.5021 55.9884L15.4802 55.9593ZM4.70311 55.9593H3.75519C3.78436 55.872 3.84998 55.7411 3.87915 55.6247C3.87915 55.552 3.90102 55.421 3.90102 55.2828V50.6273C3.90102 50.4818 3.87915 50.3509 3.87915 50.2854C3.84998 50.1617 3.78436 49.9944 3.7479 49.9071H4.69582C4.64478 50.009 4.58644 50.169 4.58644 50.2708C4.58644 50.3581 4.55728 50.5182 4.55728 50.6346V51.0856C4.59373 51.1074 4.65936 51.1583 4.70311 51.1583C4.73957 51.1583 4.81248 51.1801 4.87082 51.1801C4.94373 51.1801 5.0604 51.1583 5.17707 51.1292C5.42498 51.0346 5.5854 50.9837 5.66561 50.9837C5.81144 50.9837 5.95728 51.0346 6.04478 51.1292V50.6418C6.04478 50.4963 6.0229 50.3654 6.0229 50.2927C5.98644 50.1763 5.92811 50.0162 5.87707 49.9289H6.84686C6.77394 50.0162 6.7229 50.1763 6.7229 50.2708L6.70102 50.6346V55.6102C6.7229 55.7411 6.77394 55.8866 6.84686 55.9739H5.90623C5.95728 55.8866 6.01561 55.7556 6.05207 55.6393L6.06665 55.2974V51.9948C5.99373 51.9076 5.92082 51.8348 5.87707 51.813C5.83332 51.7693 5.75311 51.7402 5.68019 51.7402C5.59269 51.7402 5.46144 51.7984 5.24269 51.8857C5.16978 51.9148 5.05311 51.9366 4.9729 51.9366C4.92915 51.9366 4.84894 51.9148 4.75415 51.9148C4.68123 51.9148 4.59373 51.8639 4.55728 51.8639V55.6247C4.57915 55.7556 4.63019 55.9011 4.70311 55.9884V55.9593ZM1.32707 55.9593H0.37915L0.503109 55.6247V50.6273V50.2854C0.459359 50.1617 0.401025 49.9944 0.357275 49.9071H2.69061C2.83644 49.9071 3.01144 49.9653 3.09165 50.0526C3.21561 50.169 3.28853 50.3145 3.28853 50.4891C3.28853 50.7364 3.19373 51.0346 3.05519 51.2892L1.34165 54.3153V53.006C1.37811 52.8969 1.45103 52.8023 1.48748 52.7295C1.58957 52.5259 1.74269 52.2931 1.86665 52.0603C2.03436 51.733 2.21665 51.4347 2.3479 51.2165C2.39165 51.1292 2.42082 51.0565 2.42082 51.0128C2.47186 50.9619 2.49373 50.8673 2.49373 50.8091C2.49373 50.7582 2.47186 50.6855 2.44998 50.6855C2.40623 50.6636 2.32603 50.6418 2.21665 50.6418H1.18853V55.6174C1.20311 55.7484 1.26144 55.8939 1.33436 55.9812L1.32707 55.9593ZM12.1187 55.9593H11.1708C11.2073 55.872 11.2729 55.7411 11.3021 55.6247C11.3021 55.552 11.3239 55.421 11.3239 55.2828V50.6273C11.3239 50.4818 11.3021 50.3509 11.3021 50.2854C11.2729 50.1617 11.2073 49.9944 11.1708 49.9071H13.3802C13.5479 49.9071 13.7083 49.9653 13.8031 50.0526C13.9198 50.169 13.9854 50.3145 13.9854 50.4891C13.9854 50.6127 13.9416 50.7582 13.8979 50.8673C13.8614 50.9619 13.8031 51.1074 13.7083 51.2601L13.3583 51.8275C13.2854 51.9876 13.1541 52.1549 13.0448 52.3004C13.0739 52.4458 13.1687 52.6423 13.2271 52.8823L13.5187 53.9734C13.6208 54.3081 13.7521 54.7009 13.8833 55.0791C13.9125 55.2246 13.9781 55.4283 14.0656 55.5738C14.1021 55.6611 14.1823 55.8066 14.2844 55.9739H13.2271C13.2489 55.923 13.2708 55.8502 13.2708 55.8066C13.2708 55.7556 13.3 55.6611 13.3 55.6029L13.2781 55.4065C13.2781 55.3337 13.2416 55.261 13.2416 55.2028L12.9937 54.3808L12.7458 53.5806C12.6729 53.2606 12.5854 53.0714 12.5854 53.0714L12.0021 54.0316V55.5883C12.0166 55.7193 12.075 55.8648 12.1479 55.9521L12.1187 55.9593ZM21.5104 53.377V50.7873C21.2552 50.9328 21.0292 51.2238 20.8104 51.5293C20.65 51.8057 20.4604 52.1549 20.3364 52.5331C20.2271 52.8241 20.1469 53.1296 20.1177 53.3697H21.5031L21.5104 53.377ZM9.68332 53.377V50.7873C9.42811 50.9328 9.20936 51.2238 8.9979 51.5293C8.83019 51.8057 8.63332 52.1549 8.51665 52.5331C8.40728 52.8241 8.32707 53.1296 8.2979 53.3697H9.68332V53.377ZM12.7896 50.6127H12.0021V52.6859C12.0021 52.6859 12.075 52.5404 12.25 52.2785L12.5854 51.6966C12.7458 51.4275 12.8989 51.2383 12.9354 51.151C12.9573 51.1001 13.0083 51.0274 13.0083 50.9837C13.0375 50.911 13.0594 50.8382 13.0594 50.78V50.7509C13.0594 50.7073 13.0302 50.6564 13.0083 50.6564C12.9719 50.6346 12.8917 50.6127 12.7896 50.6127V50.6127ZM19.25 48.6341H13.825L13.5187 47.092L17.4125 47.2884C19.8916 47.2884 20.7958 46.43 20.0958 43.8185C19.4031 41.1998 13.6937 33.6709 13.6937 31.9178C13.6937 27.2041 13.0958 16.8091 15.626 16.46H21.6562L22.1666 19.9298C21.0948 18.5986 19.4396 17.7693 17.4854 17.8203C14.9698 17.8203 15.5458 20.3153 15.5458 25.0218C15.5458 26.7676 21.5687 34.4274 21.9406 36.9225C21.9698 37.1771 22.1448 37.9918 22.1448 38.4065V46.059C22.1448 47.1793 21.0073 48.6341 19.25 48.6341V48.6341ZM7.10207 16.4672C9.60311 16.4672 9.04165 27.2041 9.04165 31.9105C9.04165 33.6564 3.33228 41.2071 2.63957 43.8113C1.93957 46.43 2.83644 47.2811 5.3229 47.2811L5.57082 48.6268L0.590609 48.5978L0.619775 38.3919C0.619775 37.9773 0.802067 37.0971 0.81665 36.9225C1.08644 34.4274 7.23332 26.7749 7.23332 25.0145C7.23332 20.3226 7.78748 17.8712 5.29373 17.8348C3.21561 17.8203 2.62498 18.3004 1.57498 18.875V32.1142C1.10832 32.958 0.896859 33.7291 0.7729 34.151C0.736442 34.282 0.6854 34.4274 0.576025 34.9657V16.4672H7.11665H7.10207ZM169.487 35.9332C170.26 35.9332 170.975 35.6641 171.383 35.2058C171.93 34.6239 171.967 33.7509 171.967 33.3727V32.0342C171.967 31.5832 171.967 30.8703 171.361 30.3611C171.041 30.0992 170.537 29.9247 169.903 29.9247C169.342 29.9247 168.86 30.1283 168.532 30.4557C168.022 30.9212 167.971 31.5177 167.971 31.9615V33.2126H164.981V31.3359C164.981 30.5139 165.164 29.0808 166.564 28.0115C167.249 27.4732 168.328 26.9931 169.881 26.9931C171.07 26.9931 172.382 27.2695 173.308 27.9533C173.848 28.3389 174.949 29.35 174.949 31.3431V33.1108C174.949 34.2019 174.891 35.3658 174.059 36.3551C173.731 36.7043 173.279 37.0607 172.864 37.3008C173.739 37.7372 174.147 38.2464 174.351 38.6102C174.891 39.5049 174.949 40.3996 174.949 41.2871V43.7313C174.949 44.8951 174.803 46.1318 173.636 47.2229C172.543 48.2268 171.157 48.4377 169.816 48.4377C168.722 48.4377 167.336 48.2922 166.265 47.3102C166.068 47.1283 164.989 46.0881 164.989 44.3059V42.371H167.978V43.5567C167.978 43.9931 168.153 44.6478 168.452 44.9824C168.817 45.368 169.524 45.5207 170.005 45.5207C170.749 45.5207 171.201 45.3025 171.434 45.0697C171.967 44.5605 171.967 43.9422 171.967 43.2802V41.4471C171.967 40.8652 171.908 39.6504 171.165 39.0466C170.946 38.8793 170.472 38.6102 169.582 38.6102H168.685V35.9332H169.487V35.9332ZM112.933 42.3637V43.2221C112.933 45.2807 112.204 46.4664 111.679 47.0338C111.052 47.7176 109.827 48.4377 107.771 48.4377C105.802 48.4377 104.665 47.6375 104.008 46.8665C102.929 45.6153 102.966 44.175 102.966 43.1129V32.2961C102.966 30.9285 103.148 29.3864 104.497 28.2225C105.416 27.3859 106.786 27.0004 107.895 27.0004C109.149 27.0004 110.607 27.4732 111.504 28.3389C112.255 29.0808 112.853 30.332 112.853 31.7942V33.2199H109.958V32.0269C109.958 31.605 109.842 31.0376 109.572 30.6448C109.426 30.4484 108.974 29.9174 108.019 29.9174C107.246 29.9174 106.765 30.2375 106.466 30.5939C105.984 31.1758 105.955 31.9251 105.955 32.6307V42.9093C105.955 43.6003 105.955 44.2186 106.342 44.7569C106.56 45.0479 107.027 45.5062 107.873 45.5062C108.529 45.5062 109.185 45.2661 109.535 44.7788C109.681 44.5823 109.958 44.1022 109.958 43.0911V42.3491H112.948L112.933 42.3637ZM80.3979 38.7993H80.5219L84.4302 27.3059H87.4052V48.1395H84.4156V35.0967H84.2698L81.1344 44.5023H79.5594L76.4239 35.0967H76.2781V48.1395H73.2885V27.2986H76.2781L80.3906 38.792L80.3979 38.7993ZM39.5208 26.9931V29.6701H40.2281C41.5114 29.6701 43.101 29.7283 44.4135 31.0376C45.7989 32.4416 45.9448 34.2529 45.9448 35.8023V39.4103C45.9448 40.5742 45.8208 42.3346 44.6541 43.644C43.3125 45.1934 41.4021 45.3171 40.5416 45.3171H39.5208V48.1395H36.5312V45.3025H35.5104C34.65 45.3025 32.7396 45.1934 31.3979 43.644C30.2312 42.3346 30.1146 40.5742 30.1146 39.4249V35.8096C30.1146 34.2601 30.2604 32.4488 31.6458 31.0449C32.9583 29.7355 34.5333 29.6773 35.8166 29.6773H36.5312V27.0004H39.5208V26.9931ZM60.4479 48.1395H63.4375V39.8904H65.1875C66.4781 39.8904 68.0896 39.6504 69.3146 38.2537C70.4812 36.9225 70.5979 35.1985 70.5979 34.0346V33.4381C70.5979 31.8887 70.4521 30.0701 69.0666 28.6735C67.7541 27.3641 66.1791 27.3059 64.8958 27.3059H60.4479V48.1395V48.1395ZM53.8854 27.2986L58.45 48.1395H55.4604L54.4833 43.6731H50.6771L49.6927 48.1395H46.7031L51.275 27.2986H53.9H53.8854ZM96.6875 27.2986L101.245 48.1395H98.2552L97.2781 43.6731H93.4573L92.4656 48.1395H89.476L94.0479 27.2986H96.6729H96.6875ZM118.439 27.2986V40.1014L123.36 29.6773V27.2986H126.35V48.1395H123.36V35.3367L118.439 45.7535V48.1395H115.449V27.2986H118.439V27.2986ZM132.912 36.2606H136.937V27.2986H139.927V48.1395H136.937V38.9375H132.912V48.1395H129.923V27.2986H132.912V36.2606V36.2606ZM152.192 27.2986V30.1356H148.487V48.1395H145.498V30.1283H141.801V27.2914H152.184L152.192 27.2986ZM162.932 27.2986V30.1356H157.055V36.2606H162.254V38.9375H157.062V45.3098H163.042V48.1467H154.073V27.2986H162.932V27.2986ZM36.2177 32.3906C35.4156 32.3906 34.5698 32.3615 33.8844 32.9217C33.0458 33.6055 33.0823 34.6239 33.0823 35.3367V39.6795C33.0823 40.4287 33.0094 41.1125 33.6437 41.8254C34.3 42.5383 35.051 42.5674 35.6416 42.5674H36.5166V32.3834H36.225L36.2177 32.3906ZM40.3594 42.5746C40.9573 42.5746 41.701 42.5383 42.3573 41.8254C42.9844 41.1125 42.926 40.4287 42.926 39.6795V35.3367C42.926 34.6239 42.9552 33.6055 42.1239 32.9217C41.4312 32.3615 40.5927 32.3906 39.7906 32.3906H39.4989V42.5746H40.3594ZM54.1187 41.0179L52.5146 33.1108L50.9687 41.0107H54.1406L54.1187 41.0179ZM96.9208 41.0179L95.3021 33.1108L93.7489 41.0252H96.9135L96.9208 41.0179ZM65.0562 37.228C65.625 37.228 66.4271 37.1335 67.0541 36.4497C67.6812 35.7732 67.6229 35.0676 67.6229 34.3183V32.9362C67.6229 32.2306 67.6521 31.2195 66.8208 30.5357C66.1281 29.9683 65.2896 29.9974 64.4875 29.9974H63.4448V37.2353H65.0489L65.0562 37.228Z" fill="#00A650"/>
</svg>
