<svg width="215" height="75" viewBox="0 0 215 75" fill="none" xmlns="http://www.w3.org/2000/svg">
<path d="M96.132 33.9427L100.614 30.6507H85.6094V50.3704H100.614V47.0784H89.8964V42.0435H99.055V38.7516H89.8964V33.9427H96.132Z" fill="#21A038"/>
<path d="M74.2769 38.3318H69.0806V33.9424H77.3948L81.8766 30.6504H64.7936V50.3701H73.7248C78.7263 50.3701 81.6168 48.1109 81.6168 44.1734C81.6168 40.3973 79.0186 38.3318 74.2769 38.3318ZM73.5624 47.0781H69.0806V41.6238H73.5624C76.2905 41.6238 77.5571 42.5274 77.5571 44.3671C77.5571 46.2067 76.1931 47.0781 73.5624 47.0781Z" fill="#21A038"/>
<path d="M112.761 30.6507H104.609V50.3704H108.896V44.7869H112.794C117.99 44.7869 121.238 42.0758 121.238 37.7188C121.238 33.3617 117.99 30.6507 112.761 30.6507ZM112.664 41.4949H108.864V33.9427H112.664C115.424 33.9427 116.918 35.2982 116.918 37.7188C116.918 40.1394 115.424 41.4949 112.664 41.4949Z" fill="#21A038"/>
<path d="M57.4534 46.1102C56.3167 46.7235 55.0501 47.0462 53.751 47.0462C49.8862 47.0462 47.0931 44.3029 47.0931 40.5268C47.0931 36.7506 49.8862 34.0073 53.751 34.0073C55.1475 33.975 56.5116 34.4269 57.6483 35.2337L60.7336 32.9745L60.5388 32.7809C58.7525 31.1994 56.3492 30.3926 53.6211 30.3926C50.6657 30.3926 47.97 31.3931 46.0214 33.2005C44.0727 35.0724 42.9685 37.6866 43.0335 40.3977C43.001 43.141 44.0727 45.7875 46.0214 47.724C48.0675 49.6282 50.7956 50.6932 53.5886 50.6287C56.674 50.6287 59.3696 49.5636 61.1883 47.6271L58.4277 45.5939L57.4534 46.1102Z" fill="#21A038"/>
<path d="M172.781 30.6827V50.4024H177.068V42.3338H186.194V50.4024H190.481V30.6827H186.194V38.7836H177.068V30.6827H172.781ZM165.408 50.4024H169.923L161.544 30.6827H157.192L148.65 50.4024H152.97L154.691 46.4327H163.785L165.408 50.4024ZM155.99 43.1407L159.303 35.2334L162.421 43.1407H155.99ZM200.094 42.4306H202.757L209.318 50.3702H214.839L206.07 40.1714L213.735 30.6504H208.831L202.465 39.1064H200.094V30.6504H195.807V50.3702H200.094V42.4306ZM134.49 38.364V33.9747H145.695V30.6827H130.203V50.4024H139.134C144.136 50.4024 147.026 48.1432 147.026 44.2057C147.026 40.4296 144.428 38.364 139.686 38.364H134.49ZM134.49 41.656H138.972C141.7 41.656 142.967 42.5597 142.967 44.3994C142.967 46.239 141.635 47.1427 138.972 47.1427H134.49V41.656Z" fill="#21A038"/>
<path d="M29.6208 30.5215C30.4002 31.522 31.0498 32.6193 31.6019 33.7812L16.5974 44.7868L10.2968 40.8493V36.1372L16.5649 40.0424L29.6208 30.5215Z" fill="#21A038"/>
<path d="M3.8975 40.5266C3.8975 40.3007 3.8975 40.1071 3.92998 39.8811L0.130134 39.6875C0.130134 39.9457 0.0976562 40.2362 0.0976562 40.4944C0.0976562 45.0128 1.94886 49.1116 4.93678 52.0809L7.6324 49.4021C5.32651 47.1429 3.8975 44.0123 3.8975 40.5266Z" fill="url(#paint0_linear_270_5962)"/>
<path d="M16.5644 27.9392C16.7918 27.9392 16.9867 27.9392 17.214 27.9715L17.4089 24.1954C17.149 24.1954 16.8567 24.1631 16.5969 24.1631C12.0501 24.1631 7.92548 26.0027 4.93756 28.972L7.63318 31.6508C9.90659 29.3593 13.0894 27.9392 16.5644 27.9392Z" fill="url(#paint1_linear_270_5962)"/>
<path d="M16.5632 53.1129C16.3358 53.1129 16.141 53.1129 15.9136 53.0807L15.7188 56.8568C15.9786 56.8568 16.2709 56.889 16.5307 56.889C21.0775 56.889 25.2021 55.0494 28.19 52.0801L25.4944 49.4014C23.221 51.7251 20.0707 53.1129 16.5632 53.1129Z" fill="url(#paint2_linear_270_5962)"/>
<path d="M23.7114 30.1339L26.9267 27.7779C24.1011 25.5187 20.4962 24.1309 16.5664 24.1309V27.907C19.2295 27.9393 21.6978 28.7461 23.7114 30.1339Z" fill="url(#paint3_linear_270_5962)"/>
<path d="M33.0631 40.5268C33.0631 39.5263 32.9657 38.5581 32.8033 37.5898L29.2632 40.2041C29.2632 40.3009 29.2632 40.43 29.2632 40.5268C29.2632 44.2384 27.6394 47.5627 25.0737 49.8541L27.6394 52.662C30.9521 49.6928 33.0631 45.3357 33.0631 40.5268Z" fill="#21A038"/>
<path d="M16.563 53.1146C12.8281 53.1146 9.48298 51.5009 7.17709 48.9512L4.35156 51.5009C7.37196 54.8251 11.7239 56.8907 16.563 56.8907V53.1146Z" fill="url(#paint4_linear_270_5962)"/>
<path d="M8.08708 31.1995L5.52137 28.3916C2.17621 31.3931 0.0976562 35.7179 0.0976562 40.5268H3.89751C3.89751 36.8475 5.52137 33.491 8.08708 31.1995Z" fill="url(#paint5_linear_270_5962)"/>
<defs>
<linearGradient id="paint0_linear_270_5962" x1="4.54372" y1="51.6215" x2="0.697744" y2="40.4703" gradientUnits="userSpaceOnUse">
<stop offset="0.1444" stop-color="#F2E913"/>
<stop offset="0.3037" stop-color="#E7E518"/>
<stop offset="0.5823" stop-color="#CADB26"/>
<stop offset="0.891" stop-color="#A3CD39"/>
</linearGradient>
<linearGradient id="paint1_linear_270_5962" x1="6.02071" y1="28.5342" x2="15.8636" y2="24.7718" gradientUnits="userSpaceOnUse">
<stop offset="0.0592" stop-color="#0FA8E0"/>
<stop offset="0.5385" stop-color="#0099F9"/>
<stop offset="0.9234" stop-color="#0291EB"/>
</linearGradient>
<linearGradient id="paint2_linear_270_5962" x1="15.4956" y1="53.6679" x2="27.2354" y2="51.0065" gradientUnits="userSpaceOnUse">
<stop offset="0.1226" stop-color="#A3CD39"/>
<stop offset="0.2846" stop-color="#86C339"/>
<stop offset="0.8693" stop-color="#21A038"/>
</linearGradient>
<linearGradient id="paint3_linear_270_5962" x1="15.7857" y1="26.5469" x2="25.5452" y2="29.5674" gradientUnits="userSpaceOnUse">
<stop offset="0.0566" stop-color="#0291EB"/>
<stop offset="0.79" stop-color="#0C8ACB"/>
</linearGradient>
<linearGradient id="paint4_linear_270_5962" x1="5.31773" y1="52.1142" x2="15.7941" y2="56.0405" gradientUnits="userSpaceOnUse">
<stop offset="0.1324" stop-color="#F2E913"/>
<stop offset="0.2977" stop-color="#EBE716"/>
<stop offset="0.5306" stop-color="#D9E01F"/>
<stop offset="0.8023" stop-color="#BBD62D"/>
<stop offset="0.9829" stop-color="#A3CD39"/>
</linearGradient>
<linearGradient id="paint5_linear_270_5962" x1="2.98899" y1="40.9829" x2="7.14869" y2="30.1288" gradientUnits="userSpaceOnUse">
<stop offset="0.0698" stop-color="#A3CD39"/>
<stop offset="0.2599" stop-color="#81C55F"/>
<stop offset="0.9216" stop-color="#0FA8E0"/>
</linearGradient>
</defs>
</svg>
