<svg width="124" height="75" viewBox="0 0 124 75" fill="none" xmlns="http://www.w3.org/2000/svg">
<path d="M0.124691 40.8263L0.596615 39.7516C0.911998 39.0245 1.48061 38.8346 2.20576 39.372C3.5939 40.3845 5.86374 41.1439 8.89326 41.1439C11.4796 41.1439 12.5835 40.4788 12.5835 39.6884C12.5835 38.8024 11.6684 38.5493 10.1548 38.3594L6.71666 37.9176C2.58445 37.3803 0.501079 35.8926 0.501079 33.3003C0.501079 30.517 2.77322 28.3032 8.04034 28.3032C10.9732 28.3032 12.8666 28.7462 14.0959 29.2191C15.4518 29.7564 15.6418 30.1994 15.6418 31.3074V32.7307C15.6418 33.6167 15.3264 33.9331 14.4424 33.9331H13.4652C12.5823 33.9331 12.2669 33.6167 12.2669 32.7307V32.2555C11.6983 32.0657 10.2791 31.7815 8.6078 31.7815C5.7072 31.7815 4.28683 32.3188 4.28683 33.2048C4.28683 33.8687 5.13859 34.2484 6.68328 34.4704L10.0581 34.9122C14.1903 35.4496 16.3658 36.6842 16.3658 39.6573C16.3658 42.6926 13.4962 44.6233 8.3868 44.6233C4.63329 44.6233 1.60492 43.4209 0.406694 42.314C-0.0341511 41.9021 -0.0974579 41.3636 0.124691 40.8263V40.8263ZM37.3514 44.369H35.6168C34.765 44.369 34.4807 44.2424 34.071 43.6096L30.7905 38.7702C30.3186 38.1063 29.971 37.9475 28.9937 37.9475H25.7133V43.1666C25.7133 44.0526 25.3979 44.369 24.5151 44.369H23.2524C22.3696 44.369 22.0542 44.0526 22.0542 43.1666V27.4483H20.887C20.0042 27.4483 19.6888 27.1319 19.6888 26.246V25.2024C19.6888 24.3164 20.0042 24 20.887 24H24.5151C25.3979 24 25.7133 24.3164 25.7133 25.2024V34.4071H28.6473C29.6245 34.4071 29.9721 34.2495 30.4452 33.5845L33.1893 29.3457C33.6301 28.6829 33.9144 28.5564 34.7662 28.5564H36.5008C37.4481 28.5564 37.6369 29.3158 37.0993 30.1051L34.0399 34.7546C33.7171 35.2145 33.3584 35.6481 32.9671 36.0513C33.347 36.3677 33.8822 36.9051 34.1032 37.2215L37.9511 42.8514C38.4863 43.6107 38.2975 44.369 37.3514 44.369ZM43.323 47.2788V46.2364C43.323 45.3504 43.6383 45.034 44.5212 45.034H46.0359C46.9499 45.034 47.3919 44.8442 47.7395 44.117L47.9294 43.7062L40.7055 30.0107C40.2647 29.188 40.6111 28.5564 41.5573 28.5564H43.1975C44.0493 28.5564 44.4279 28.7128 44.7433 29.3158L47.7705 35.5451C48.5007 37.0298 49.2053 38.5269 49.8838 40.0358C50.5146 38.6436 51.2398 37.0639 51.9338 35.6716L55.0244 29.3146C55.3075 28.7151 55.7184 28.5552 56.5702 28.5552H58.2104C59.1566 28.5552 59.503 29.188 59.0622 30.0107L50.8288 45.668C49.8827 47.4698 48.78 48.4824 46.3179 48.4824H44.52C43.6383 48.4824 43.323 48.1648 43.323 47.2788V47.2788ZM79.2202 36.3988V36.7785C79.2202 37.6645 78.9048 37.9809 78.0208 37.9809H65.0878C65.5298 39.6573 67.2011 41.2693 70.7659 41.2693C73.9519 41.2693 75.4034 40.2268 76.0652 39.7505C76.7904 39.2143 77.2945 39.403 77.6732 40.1302L78.2096 41.1738C78.4928 41.7111 78.3362 42.123 77.862 42.5338C77.1679 43.1344 74.8014 44.6221 70.7647 44.6221C65.3399 44.6221 61.5542 41.4269 61.5542 36.4299C61.5542 31.5272 65.1822 28.3021 70.386 28.3021C75.5922 28.3021 79.2202 31.4961 79.2202 36.3988ZM65.0878 34.9122H75.7188C75.309 33.2669 73.6354 31.7182 70.3872 31.7182C67.139 31.7182 65.4976 33.268 65.0878 34.9122ZM102.221 35.8603V43.1666C102.221 44.0526 101.906 44.369 101.022 44.369H99.7615C98.8787 44.369 98.5622 44.0526 98.5622 43.1666V35.9547C98.5622 33.3935 97.0486 32.0012 94.4933 32.0012C92.5066 32.0012 90.1412 33.2347 88.9729 34.5302V43.1655C88.9729 44.0514 88.6575 44.3678 87.7735 44.3678H86.512C85.6292 44.3678 85.3126 44.0514 85.3126 43.1655V32.0012H84.1466C83.2626 32.0012 82.9473 31.6848 82.9473 30.7989V29.7553C82.9473 28.8693 83.2626 28.5529 84.1466 28.5529H87.2061C88.0889 28.5529 88.4043 28.8693 88.4043 29.7553V30.6412C90.1078 29.249 92.4111 28.3009 94.903 28.3009C99.6349 28.3009 102.222 31.1164 102.222 35.8603H102.221ZM124 29.7564V44.56C124 47.8484 120.467 50 115.957 50C111.698 50 109.68 48.7343 108.765 47.8806C108.323 47.4698 108.258 46.9314 108.479 46.3952L108.951 45.3194C109.3 44.5289 109.866 44.3701 110.561 44.9397C111.666 45.8256 112.737 46.5517 115.923 46.585C118.762 46.585 120.339 45.5414 120.339 44.2758V42.757C119.202 43.4842 117.814 43.9594 115.828 43.9594C110.717 43.9594 107.183 40.954 107.183 36.1468C107.183 31.3396 110.717 28.3032 115.828 28.3032C118.035 28.3032 119.487 28.9361 120.465 29.6954C120.717 29.157 121.223 28.5564 121.853 28.5564H122.799C123.685 28.5552 124 28.8705 124 29.7564V29.7564ZM120.341 38.677V33.6167C119.458 32.5409 118.164 31.877 115.83 31.877C113.023 31.877 110.973 33.4901 110.973 36.1468C110.973 38.8047 113.023 40.3856 115.83 40.3856C118.133 40.3833 119.427 39.7206 120.341 38.677V38.677Z" fill="#00AEEF"/>
</svg>
