<svg width="141" height="67" viewBox="0 0 141 67" fill="none" xmlns="http://www.w3.org/2000/svg">
<path d="M52.6224 17.3115L57.7806 51.0515L62.4209 51.0365L57.2828 17.3216L52.6224 17.3115Z" fill="#0091D9"/>
<path d="M52.4062 17.3115H44.5081V50.9413H52.4062V17.3115Z" fill="#0091D9"/>
<path d="M29.0336 17.3115H0V50.9413H26.1377L29.0336 17.3115Z" fill="#0091D9"/>
<path d="M33.136 50.9413H41.9541L41.9893 17.3115H36.0267L33.136 50.9413Z" fill="#0091D9"/>
<path d="M79.3131 32.8773H76.5782V26.5035C75.4793 27.2279 74.1848 27.6006 72.8679 27.5716C70.51 27.5716 68.1371 26.3078 68.1371 22.6069V17.3613H70.867V21.8396C70.867 24.322 72.0686 25.029 73.602 25.029C74.673 25.0032 75.7108 24.6534 76.5782 24.0261V17.3613H79.3131V32.8773Z" fill="#0091D9"/>
<path d="M82.2793 32.8773V17.3613H85.0143V28.3991L93.1684 17.3613H95.5672V32.8773H92.8371V21.8597L84.6824 32.8773H82.2793Z" fill="#0091D9"/>
<path d="M97.9501 17.3613H110.77V19.9089H105.727V32.8773H102.993V19.9089H97.9501V17.3613Z" fill="#0091D9"/>
<path d="M115.003 17.3174H117.406L123.982 32.8634H121.071L119.447 28.8967H112.806L111.182 32.8634H108.427L115.003 17.3174ZM113.851 26.3441H118.406L116.139 20.8278L113.851 26.3441Z" fill="#0091D9"/>
<path d="M125.646 32.8773V17.3613H128.376V28.3991L136.53 17.3613H138.933V32.8773H136.199V21.8597L128.044 32.8773H125.646Z" fill="#0091D9"/>
<path d="M68.0214 35.4561H76.7994V38.0037H70.7513V50.967H68.0214V35.4561Z" fill="#0091D9"/>
<path d="M136.556 13.2598H128.588V15.8224H134.705L136.556 13.2598Z" fill="#0091D9"/>
<path d="M85.6427 35.21C90.2629 35.21 93.7518 38.3793 93.7518 43.2337C93.7518 47.8875 90.2629 51.2575 85.6427 51.2575C81.0225 51.2575 77.5535 48.0932 77.5535 43.2337C77.5535 38.7204 80.8666 35.21 85.6427 35.21ZM85.6427 48.6598C88.9058 48.6598 90.8613 46.2677 90.8613 43.2086C90.8613 39.9941 88.5736 37.7575 85.6427 37.7575C82.7117 37.7575 80.4443 39.9941 80.4443 43.2086C80.4443 46.3178 82.7318 48.6598 85.6427 48.6598Z" fill="#0091D9"/>
<path d="M96.2554 50.9664V35.4554C97.1208 35.4554 99.5839 35.4053 100.675 35.4053C105.249 35.4053 106.708 37.8475 106.708 40.4201C106.708 43.058 104.732 45.4351 101.017 45.4351C100.549 45.4351 99.6641 45.4351 99.0058 45.3699V50.9764L96.2554 50.9664ZM98.9855 38.003V42.7671C99.6341 42.8323 100.298 42.8774 100.921 42.8774C102.54 42.8774 103.807 42.1001 103.807 40.3701C103.807 38.7553 102.801 37.9579 100.941 37.9579C100.388 37.9579 99.7196 37.9579 98.9855 38.003Z" fill="#0091D9"/>
<path d="M116.663 35.21C121.282 35.21 124.772 38.3793 124.772 43.2337C124.772 47.8875 121.282 51.2575 116.663 51.2575C112.042 51.2575 108.573 48.0932 108.573 43.2337C108.573 38.7204 111.886 35.21 116.663 35.21ZM116.663 48.6598C119.925 48.6598 121.88 46.2677 121.88 43.2086C121.88 39.9941 119.593 37.7575 116.663 37.7575C113.731 37.7575 111.459 39.9941 111.459 43.2086C111.459 46.3178 113.751 48.6598 116.663 48.6598Z" fill="#0091D9"/>
<path d="M125.008 48.4196H127.124C128.909 40.6967 129.985 35.4512 129.985 35.4512H138.874V48.4196H141V53.7404H138.446V50.9672H127.566V53.7404H125.008V48.4196ZM129.849 48.4196H136.164V38.0037H132.051C132.051 38.0037 131.081 43.0186 129.849 48.4196Z" fill="#0091D9"/>
</svg>
