<svg width="113" height="75" viewBox="0 0 113 75" fill="none" xmlns="http://www.w3.org/2000/svg">
<g clip-path="url(#clip0_315_4585)">
<path d="M35.621 33.6357H42.7265V35.9781H39.3463V52.4359H35.621V33.6357Z" fill="#0079C2"/>
<path d="M46.9391 45.3781L47.5776 35.9781H47.7914L48.4299 45.3781H46.9391ZM42.8136 52.4359H46.4611L46.8063 47.4431H48.5628L48.9095 52.4359H52.5555L50.6126 33.6357H44.7565L42.8136 52.4359Z" fill="#0079C2"/>
<path d="M57.8908 45.8558V49.4001C57.8908 49.8778 58.2573 50.0165 58.4712 50.0165C58.8225 50.0165 59.0669 49.7237 59.0669 49.4001V45.0237C59.0669 44.4381 58.9599 43.7909 57.57 43.7909H56.0578V41.726H57.6311C58.685 41.726 59.0669 41.4794 59.0669 40.3237V36.5945C59.0669 36.2709 58.8225 35.9781 58.4712 35.9781C58.2573 35.9781 57.8908 36.1013 57.8908 36.5945V39.661H54.1638V36.9951C54.1638 35.6853 54.3166 33.6357 56.9285 33.6357H60.0139C62.6258 33.6357 62.7938 35.6853 62.7938 36.9951V40C62.7938 42.0496 61.3733 42.6043 60.2583 42.5581V42.743C62.7632 42.6814 62.7938 44.623 62.7938 45.2857V49.0765C62.7938 50.4018 62.6258 52.4359 60.0139 52.4359H56.9285C54.3166 52.4359 54.1638 50.4018 54.1638 49.0765V45.8558H57.8908Z" fill="#0079C2"/>
<path d="M65.2376 33.6357H73.8675V52.4359H70.1406V35.9781H68.9645V52.4359H65.2376V33.6357Z" fill="#0079C2"/>
<path d="M80.0383 43.9758V35.9781H80.5271C80.9242 35.9781 81.2144 36.3171 81.2144 36.9181V43.0358C81.2144 43.6368 80.9242 43.9758 80.5271 43.9758H80.0383ZM76.3114 52.4359H80.0383V46.0408H82.1767C84.7733 46.0408 84.9413 44.0066 84.9413 42.6814V36.9951C84.9413 35.6853 84.7733 33.6357 82.1767 33.6357H76.3114V52.4359Z" fill="#0079C2"/>
<path d="M92.2882 49.4001C92.2882 49.7237 92.0438 50.0165 91.6925 50.0165C91.4787 50.0165 91.1121 49.8778 91.1121 49.4001V36.5945C91.1121 36.1013 91.4787 35.9781 91.6925 35.9781C92.0438 35.9781 92.2882 36.2709 92.2882 36.5945V49.4001ZM87.3852 49.0765C87.3852 50.4018 87.5532 52.4359 90.1498 52.4359H93.2505C95.8471 52.4359 96.0151 50.4018 96.0151 49.0765V36.9951C96.0151 35.6853 95.8471 33.6357 93.2505 33.6357H90.1498C87.5532 33.6357 87.3852 35.6853 87.3852 36.9951V49.0765Z" fill="#0079C2"/>
<path d="M108.143 33.6357H113V52.4359H109.273V40.6473H109.136L107.211 52.4359H104.233L102.323 40.6473H102.186V52.4359H98.4589V33.6357H103.301L105.729 46.8575L108.143 33.6357Z" fill="#0079C2"/>
<path d="M30.7913 7.93157C29.6503 2.89253 26.791 -1.20651 26.3969 -1.86914C25.7737 -0.929134 23.4933 2.6922 22.334 6.69879C21.0677 11.1831 20.8814 15.1588 21.3182 19.0575C21.752 22.9717 23.3909 26.9937 23.3909 26.9937C24.2616 29.0894 25.566 31.3547 26.4152 32.4642C27.6601 30.8308 30.5209 25.9612 31.4129 19.6123C31.9094 16.068 31.9307 12.9706 30.7913 7.93157ZM26.3969 31.2006C25.8363 30.1373 24.9657 28.1186 24.8832 24.975C24.8618 21.9546 26.0639 19.3503 26.4152 18.811C26.7283 19.3503 27.7639 21.6156 27.8877 24.713C27.9717 27.7334 26.9758 30.1219 26.3969 31.2006ZM30.4598 16.4841C30.4171 18.4103 30.1895 20.4444 29.8993 21.6618C30.0031 19.5661 29.7542 16.6228 29.2776 14.3113C28.8011 12.0152 27.4523 8.16272 26.3755 6.39058C25.3812 8.08568 24.1562 11.4142 23.5147 14.2959C22.8701 17.1775 22.8518 20.6756 22.8518 21.7235C22.6807 20.8451 22.253 17.6861 22.3737 14.527C22.4745 11.9227 23.0793 9.22602 23.4108 7.99322C24.6755 3.87877 26.1067 1.24367 26.3755 0.827592C26.6443 1.24367 28.4467 4.49516 29.3815 7.90076C30.3117 11.3064 30.4995 14.5733 30.4598 16.4841Z" fill="#0079C2"/>
<path d="M28.3321 33.6355H19.6579V39.5067C19.6656 39.5067 19.6717 39.4913 19.6793 39.4913C21.723 37.4264 25.0375 37.4264 27.0827 39.4913C29.1264 41.5408 29.1264 44.8848 27.0827 46.9497C27.0736 46.9651 27.0644 46.9651 27.0552 46.9805C27.0445 46.9805 27.0338 46.9959 27.0247 47.0113C24.9856 49.0455 22.3218 50.0625 19.6579 50.0625C16.9819 50.0625 14.3059 49.0455 12.2652 46.9805C8.66662 43.3592 8.24048 37.7345 10.9837 33.6355C11.3533 33.0808 11.7795 32.5568 12.2652 32.0637C14.3059 29.9988 16.9819 28.9817 19.6579 28.9817V14.8662C9.37535 14.8662 1.04022 23.2646 1.04022 33.6355C1.04022 44.0064 9.37535 52.4202 19.6579 52.4202C25.0192 52.4202 29.8489 50.1241 33.2458 46.472V33.6355H28.3321Z" fill="#0079C2"/>
</g>
<defs>
<clipPath id="clip0_315_4585">
<rect width="113" height="75" fill="white"/>
</clipPath>
</defs>
</svg>
