<svg width="208" height="75" viewBox="0 0 208 75" fill="none" xmlns="http://www.w3.org/2000/svg">
<g clip-path="url(#clip0_317_4983)">
<path d="M27.5396 47.6199C27.0021 47.6199 19.927 47.6199 19.927 47.6199C16.1209 47.6199 13.2998 27.3799 9.71722 27.3799C9.71722 27.3799 15.7623 27.3799 19.1209 27.3799C22.4795 27.3799 25.1661 47.6199 27.5396 47.6199Z" fill="url(#paint0_linear_317_4983)"/>
<path d="M0 47.6199H9.17969C12.9863 47.6199 15.8074 27.3799 19.3894 27.3799C19.3894 27.3799 13.3443 27.3799 9.9857 27.3799C6.62769 27.3799 2.32855 47.6199 0 47.6199Z" fill="url(#paint1_linear_317_4983)"/>
<path d="M19.7029 47.6199H28.8832C32.6893 47.6199 35.5109 27.3799 39.0929 27.3799C39.0929 27.3799 33.0478 27.3799 29.6892 27.3799C26.3301 27.3799 22.0315 47.6199 19.7029 47.6199Z" fill="url(#paint2_linear_317_4983)"/>
<path d="M47.2426 47.6199C46.705 47.6199 39.6299 47.6199 39.6299 47.6199C35.8232 47.6199 33.0028 27.3799 29.4196 27.3799C29.4196 27.3799 35.4653 27.3799 38.8239 27.3799C42.1824 27.3799 44.869 47.6199 47.2426 47.6199Z" fill="url(#paint3_linear_317_4983)"/>
<path d="M39.8533 47.6199H49.033C52.8397 47.6199 55.6607 27.3799 59.2427 27.3799C59.2427 27.3799 53.1976 27.3799 49.839 27.3799C46.481 27.3799 42.1825 47.6199 39.8533 47.6199Z" fill="url(#paint4_linear_317_4983)"/>
<path d="M67.393 47.6199C66.856 47.6199 59.7809 47.6199 59.7809 47.6199C55.9748 47.6199 53.1532 27.3799 49.5706 27.3799C49.5706 27.3799 55.6157 27.3799 58.9749 27.3799C62.3329 27.3799 65.0644 47.6199 67.393 47.6199Z" fill="url(#paint5_linear_317_4983)"/>
<path d="M86.6484 27.3799C86.6484 27.3799 79.1703 27.3799 78.0507 27.3799C75.9462 27.3799 70.7065 47.6199 68.647 47.6199H76.3042C78.0507 47.6199 80.8268 40.0132 82.3043 34.8087C83.3788 41.1701 84.8568 47.6199 86.6034 47.6199H94.2611C91.126 47.6199 89.2455 27.3799 86.6484 27.3799Z" fill="#E62025"/>
<path d="M200.522 27.3799C199.135 27.3799 197.746 27.3799 196.582 27.3799C194.925 27.3799 194.657 27.3799 194.657 27.3799C193.045 27.825 191.118 35.6094 188.88 39.836C188.88 35.832 187.581 31.517 186.059 27.3799C186.059 27.3799 185.119 27.3799 183.731 27.3799C182.567 27.3799 181.134 27.3799 179.611 27.3799C176.253 27.3799 170.61 47.6199 168.237 47.6199C168.774 47.6199 175.85 47.6199 175.85 47.6199C178.179 47.6199 180.104 40.191 182.074 34.3189C182.925 38.5896 185.388 47.8418 186.06 47.6199H190.135C192.418 44.818 194.523 40.1021 196.583 34.6751C197.479 40.4578 198.106 47.6199 200.388 47.6199C200.388 47.6199 207.464 47.6199 208.001 47.6199C205.627 47.6199 203.88 27.3799 200.522 27.3799Z" fill="#E62025"/>
<path d="M97.5747 32.7181H102.097L101.291 41.0813L108.501 32.7181H112.755L111.322 47.6199H106.799L107.605 39.2567L100.396 47.6199H96.1416L97.5747 32.7181Z" fill="#E62025"/>
<path d="M134.876 32.7622H147.862L147.549 36.2765H138.996L138.772 38.5449H146.519L146.205 41.7924H138.459L138.235 44.1498H146.922L146.609 47.664H133.488L134.876 32.7622Z" fill="#E62025"/>
<path d="M150.951 32.7622L157.847 32.7181C161.923 32.6733 164.386 34.6309 164.072 37.9673C163.758 41.481 160.669 43.3503 156.683 43.3944H154.489L154.131 47.6646L149.653 47.7094L150.951 32.7622ZM156.862 40.1469C158.43 40.1469 159.505 39.3468 159.593 38.1451C159.728 36.8552 158.788 36.1881 157.175 36.1881H155.071L154.713 40.1469H156.862Z" fill="#E62025"/>
<path d="M129.681 44.7733C129.099 42.0597 126.726 33.0742 126.726 33.0742C126.726 33.0742 122.382 33.0742 120.412 33.0742C118.666 33.5635 115.755 43.1719 115.218 44.7733H113.516V47.5763H130.801V44.7733H129.681ZM122.651 38.6791L123.815 43.8395L120.77 43.7948L122.651 38.6791Z" fill="#E62025"/>
<path d="M166.938 43.9278C167.877 43.9278 168.639 43.1711 168.639 42.2375C168.639 41.304 167.877 40.5472 166.938 40.5472C165.998 40.5472 165.236 41.304 165.236 42.2375C165.236 43.1711 165.998 43.9278 166.938 43.9278Z" fill="#E62025"/>
</g>
<defs>
<linearGradient id="paint0_linear_317_4983" x1="18.628" y1="47.621" x2="18.628" y2="27.3807" gradientUnits="userSpaceOnUse">
<stop stop-color="#E21E24"/>
<stop offset="0.0915" stop-color="#E22126"/>
<stop offset="0.1479" stop-color="#E4292D"/>
<stop offset="0.1948" stop-color="#E63838"/>
<stop offset="0.2366" stop-color="#E94C48"/>
<stop offset="0.2748" stop-color="#ED675C"/>
<stop offset="0.3101" stop-color="#F18775"/>
<stop offset="0.3427" stop-color="#F7AC92"/>
<stop offset="0.3842" stop-color="#F19881"/>
<stop offset="0.4901" stop-color="#E36A5A"/>
<stop offset="0.5963" stop-color="#D74439"/>
<stop offset="0.7011" stop-color="#CE2620"/>
<stop offset="0.8042" stop-color="#C7110E"/>
<stop offset="0.9048" stop-color="#C30404"/>
<stop offset="1" stop-color="#C20000"/>
</linearGradient>
<linearGradient id="paint1_linear_317_4983" x1="9.69434" y1="27.1749" x2="9.69434" y2="47.6206" gradientUnits="userSpaceOnUse">
<stop stop-color="#E21E24"/>
<stop offset="0.0915" stop-color="#E22126"/>
<stop offset="0.1479" stop-color="#E4292D"/>
<stop offset="0.1948" stop-color="#E63838"/>
<stop offset="0.2366" stop-color="#E94C48"/>
<stop offset="0.2748" stop-color="#ED675C"/>
<stop offset="0.3101" stop-color="#F18775"/>
<stop offset="0.3427" stop-color="#F7AC92"/>
<stop offset="0.3842" stop-color="#F19881"/>
<stop offset="0.4901" stop-color="#E36A5A"/>
<stop offset="0.5963" stop-color="#D74439"/>
<stop offset="0.7011" stop-color="#CE2620"/>
<stop offset="0.8042" stop-color="#C7110E"/>
<stop offset="0.9048" stop-color="#C30404"/>
<stop offset="1" stop-color="#C20000"/>
</linearGradient>
<linearGradient id="paint2_linear_317_4983" x1="29.3974" y1="47.621" x2="29.3974" y2="27.3807" gradientUnits="userSpaceOnUse">
<stop stop-color="#4B5051"/>
<stop offset="0.6856" stop-color="#DCDDDE"/>
<stop offset="0.9777" stop-color="#4B5051"/>
</linearGradient>
<linearGradient id="paint3_linear_317_4983" x1="38.3307" y1="47.621" x2="38.3307" y2="27.3807" gradientUnits="userSpaceOnUse">
<stop offset="0.0223" stop-color="#4B5051"/>
<stop offset="0.3144" stop-color="#DCDDDE"/>
<stop offset="1" stop-color="#4B5051"/>
</linearGradient>
<linearGradient id="paint4_linear_317_4983" x1="49.5481" y1="47.621" x2="49.5481" y2="27.3807" gradientUnits="userSpaceOnUse">
<stop stop-color="#4B5051"/>
<stop offset="0.6856" stop-color="#DCDDDE"/>
<stop offset="0.9777" stop-color="#4B5051"/>
</linearGradient>
<linearGradient id="paint5_linear_317_4983" x1="58.4814" y1="47.621" x2="58.4814" y2="27.3807" gradientUnits="userSpaceOnUse">
<stop offset="0.0223" stop-color="#4B5051"/>
<stop offset="0.3144" stop-color="#DCDDDE"/>
<stop offset="1" stop-color="#4B5051"/>
</linearGradient>
<clipPath id="clip0_317_4983">
<rect width="208" height="75" fill="white"/>
</clipPath>
</defs>
</svg>
