<svg width="210" height="75" viewBox="0 0 210 75" fill="none" xmlns="http://www.w3.org/2000/svg">
<path fill-rule="evenodd" clip-rule="evenodd" d="M16.4757 38.7304L26.1708 44.1826L22.3156 46.9408C21.8661 47.2629 21.7628 47.8873 22.084 48.3364C22.4057 48.7863 23.0325 48.8877 23.4791 48.5679L28.5828 44.9169C28.82 44.7471 28.9714 44.4826 28.9969 44.1915L29.5539 37.905C29.6025 37.3541 29.1959 36.8693 28.6455 36.8207C28.0942 36.7735 27.6098 37.1787 27.5612 37.7291L27.1447 42.4356L17.4831 37.0023V26.8087L21.7628 28.7816C22.2642 29.0136 22.8584 28.7938 23.09 28.292C23.3211 27.7906 23.1023 27.1959 22.6 26.9653L16.9016 24.3377C16.6096 24.2189 16.345 24.2175 16.0498 24.3377L10.3514 26.9653C9.84955 27.1959 9.63023 27.7906 9.86181 28.292C10.0929 28.7938 10.6877 29.0136 11.1885 28.7816L15.4682 26.8087V37.0023L5.80662 42.4356L5.39016 37.7291C5.34158 37.1787 4.8572 36.7735 4.30585 36.8207C3.75544 36.8693 3.34888 37.3541 3.39793 37.905L3.95447 44.1915C3.97994 44.4826 4.13134 44.7471 4.36857 44.9169L9.47223 48.5679C9.91888 48.8877 10.5462 48.7863 10.8674 48.3364C11.1885 47.8873 11.0853 47.2629 10.6358 46.9408L6.78056 44.1826L16.4757 38.7304Z" fill="white"/>
<path d="M64.9848 29.2751V45.5582H61.7979V34.9976L57.2154 42.5576H56.8428L52.2603 35.0207V45.5582H49.0503V29.2751H52.3537L57.0296 36.9747L61.6814 29.2751H64.9848ZM196.793 32.2758V37.0912H193.491C192.186 37.0912 191.28 35.9197 191.28 34.6712C191.28 33.42 192.189 32.2758 193.491 32.2758H196.793ZM188.07 34.6712C188.07 36.8799 189.52 38.8184 191.583 39.5565L187.605 45.5582H191.211L194.956 39.906H196.793V45.5582H200V29.2751H193.491C190.478 29.2751 188.07 31.6518 188.07 34.6712ZM85.0985 37.021V32.2758H89.4249V42.4878H83.9821C84.7264 41.2007 85.0985 39.3787 85.0985 37.021ZM94.38 45.5582V42.4878H92.6354V29.2751H81.8885V36.9747C81.8885 39.3938 81.4381 41.2318 80.5396 42.4878H78.9572V45.5582H94.38ZM182.278 45.5582V35.6254L175.299 45.5582H172.857V29.2751H176.068V39.2311L183.046 29.2751H185.488V45.5582H182.278ZM171.066 29.2751V32.3456H165.018V45.5582H161.808V29.2751H171.066ZM151.085 42.7439C154.153 42.7439 156.342 40.4673 156.342 37.4167C156.342 34.3699 154.157 32.0668 151.085 32.0668C148.012 32.0668 145.827 34.3694 145.827 37.4167C145.827 40.4673 148.016 42.7439 151.085 42.7439ZM151.085 45.8841C146.316 45.8841 142.64 42.1779 142.64 37.4167C142.64 32.6559 146.316 28.9492 151.085 28.9492C155.848 28.9492 159.552 32.6526 159.552 37.4167C159.552 42.1808 155.848 45.8841 151.085 45.8841ZM126.403 45.5582V42.5812C128.954 42.95 129.288 40.9691 129.288 38.9052V29.2751H140.361V45.5582H137.174V32.3456H132.475V38.8123C132.475 42.7878 131.062 45.9959 126.403 45.5582ZM115.983 39.6263H120.449L118.215 32.9738L115.983 39.6263ZM122.425 45.5582L121.449 42.6269H114.959L113.982 45.5582H110.515L116.215 29.2751H120.193L125.915 45.5582H122.425ZM105.724 45.5582V35.6254L98.746 45.5582H96.3034V29.2751H99.5134V39.2311L106.492 29.2751H108.934V45.5582H105.724ZM70.5681 42.4878H77.4315V45.5582H67.3586V29.2751H77.3145V32.3456H70.5681V35.8112H76.7334V38.8354H70.5681V42.4878Z" fill="#005061"/>
<path fill-rule="evenodd" clip-rule="evenodd" d="M16.4755 37.9424V21H5.56304C2.50301 21 0 23.5035 0 26.563V47.0541L16.4755 37.9424Z" fill="#FACD07"/>
<path fill-rule="evenodd" clip-rule="evenodd" d="M16.4755 21V37.9424L0 47.0541V48.3879C0 51.4475 2.50301 53.951 5.56304 53.951H27.3879C30.4474 53.951 32.9509 51.4475 32.9509 48.3879V26.5635C32.9509 23.5035 30.4474 21 27.3879 21H16.4755Z" fill="#005061"/>
<path fill-rule="evenodd" clip-rule="evenodd" d="M16.4757 38.7304L26.1708 44.1826L22.3156 46.9408C21.8661 47.2629 21.7628 47.8874 22.084 48.3364C22.4057 48.7863 23.0325 48.8877 23.4791 48.568L28.5828 44.917C28.82 44.7472 28.9714 44.4826 28.9969 44.1916L29.5539 37.905C29.6025 37.3541 29.1959 36.8693 28.6455 36.8207C28.0942 36.7736 27.6098 37.1787 27.5612 37.7291L27.1447 42.4356L17.4831 37.0023V26.8087L21.7628 28.7816C22.2642 29.0136 22.8584 28.7938 23.09 28.292C23.3211 27.7906 23.1023 27.1959 22.6 26.9653L16.9016 24.3377C16.6096 24.2189 16.345 24.2175 16.0498 24.3377L10.3514 26.9653C9.84955 27.1959 9.63023 27.7906 9.86181 28.292C10.0929 28.7938 10.6877 29.0136 11.1885 28.7816L15.4682 26.8087V37.0023L5.80662 42.4356L5.39016 37.7291C5.34158 37.1787 4.8572 36.7736 4.30585 36.8207C3.75544 36.8693 3.34888 37.3541 3.39793 37.905L3.95447 44.1916C3.97994 44.4826 4.13134 44.7472 4.36857 44.917L9.47223 48.568C9.91888 48.8877 10.5462 48.7863 10.8674 48.3364C11.1885 47.8874 11.0853 47.2629 10.6358 46.9408L6.78056 44.1826L16.4757 38.7304Z" fill="white"/>
</svg>
