<svg width="131" height="75" viewBox="0 0 131 75" fill="none" xmlns="http://www.w3.org/2000/svg">
<g clip-path="url(#clip0_315_4826)">
<path d="M98.0626 45.6552L96.7165 42.9759C96.6559 42.8763 96.5053 42.807 96.3732 42.8914C95.2762 43.6484 93.8076 44.0942 92.1788 44.0942C88.6743 44.0942 86.2167 41.2705 86.2167 37.7857C86.2167 34.3004 88.6743 31.475 92.1788 31.475C93.8094 31.475 95.278 31.9227 96.3732 32.6797C96.496 32.749 96.6486 32.7172 96.7145 32.5974L98.0644 29.9139C98.1359 29.7773 98.1021 29.6424 97.9835 29.5693C96.3431 28.421 94.3421 27.7461 92.1788 27.7461C86.6006 27.7461 82.0798 32.2413 82.0798 37.7857C82.0798 43.328 86.6006 47.8248 92.1788 47.8248C94.3421 47.8248 96.3394 47.1485 97.9835 46.0018C98.1021 45.9212 98.1359 45.7938 98.0626 45.6552ZM59.4319 45.6552L58.0856 42.9759C58.0274 42.8763 57.8746 42.807 57.7425 42.8914C56.6455 43.6484 55.1786 44.0942 53.5498 44.0942C50.0436 44.0942 47.586 41.2705 47.586 37.7857C47.586 34.3004 50.0436 31.475 53.5498 31.475C55.1815 31.475 56.6473 31.9227 57.7445 32.6797C57.8652 32.749 58.0179 32.7172 58.0838 32.5974L59.4337 29.9139C59.5072 29.7773 59.4733 29.6424 59.3546 29.5693C57.7124 28.421 55.7104 27.7461 53.5498 27.7461C47.9716 27.7461 43.449 32.2413 43.449 37.7857C43.449 43.328 47.9716 47.8248 53.5498 47.8248C55.7104 47.8248 57.7106 47.1485 59.3526 46.0018C59.4733 45.9212 59.5072 45.7938 59.4319 45.6552ZM78.9181 28.2239H75.4756C75.3116 28.2257 75.1673 28.3063 75.0817 28.4321L66.6547 40.5137H66.3653L66.6547 33.9614V28.4637C66.6547 28.3309 66.5453 28.2239 66.4152 28.2239H63.0464C62.9145 28.2239 62.8069 28.3327 62.8069 28.4637V47.1071C62.8069 47.2385 62.9123 47.3452 63.0464 47.3452H65.8215C65.9837 47.3452 66.1285 47.2646 66.2154 47.139L75.3116 34.1002H75.601L75.3116 40.6523V47.1071C75.3116 47.2385 75.417 47.3452 75.5511 47.3452H78.9181C79.0483 47.3452 79.1572 47.2402 79.1594 47.1109V28.4637C79.1594 28.3327 79.05 28.2257 78.9181 28.2239ZM40.1591 28.2239H36.7168C36.5526 28.2257 36.4084 28.3063 36.3226 28.4321L27.8959 40.5137H27.6065L27.8959 33.9614V28.4637C27.8959 28.3309 27.7865 28.2239 27.6564 28.2239H24.2874C24.1555 28.2239 24.0481 28.3327 24.0481 28.4637V47.1071C24.0481 47.2385 24.1537 47.3452 24.2874 47.3452H27.0626C27.2246 47.3452 27.3699 47.2646 27.4565 47.139L36.5526 34.1002H36.8422L36.5526 40.6523V47.1071C36.5526 47.2385 36.6584 47.3452 36.7923 47.3452H40.1591C40.2892 47.3452 40.3986 47.2402 40.4006 47.1109V28.4637C40.4006 28.3327 40.2912 28.2257 40.1591 28.2239ZM19.2371 28.4637L19.235 47.1109C19.2332 47.2402 19.1275 47.3452 18.9956 47.3452H15.6306C15.4966 47.3452 15.3891 47.2385 15.3891 47.1071V40.6523L15.6775 34.2404H15.3891L9.92777 41.9921H9.30753L3.84594 34.2404H3.5575L3.84594 40.6523V47.1071C3.84594 47.2385 3.7384 47.3452 3.60651 47.3452H0.239425C0.107533 47.3452 0.00297051 47.2402 3.76417e-10 47.1109V28.4637C3.76417e-10 28.3327 0.107533 28.2239 0.239425 28.2239H3.59522C3.75741 28.2239 3.90237 28.3045 3.98911 28.4263L9.61854 36.431L15.2468 28.4263C15.3326 28.3045 15.4776 28.2239 15.6401 28.2239H18.9956C19.1296 28.2239 19.2371 28.3327 19.2371 28.4637Z" fill="black"/>
<path d="M110.616 11.0158C107.249 11.0158 104.196 12.3388 101.948 14.4878C101.853 14.574 101.85 14.7293 101.944 14.825L104.323 17.1916C104.418 17.2872 104.571 17.2872 104.665 17.1954C106.216 15.7358 108.311 14.84 110.616 14.84C115.395 14.84 119.273 18.6923 119.273 23.4442C119.273 28.1961 115.395 32.0483 110.616 32.0483C108.312 32.0483 106.219 31.1546 104.668 29.6967C104.565 29.5993 104.418 29.6031 104.325 29.6967L101.944 32.0631C101.85 32.157 101.852 32.3069 101.947 32.3988C104.195 34.5496 107.249 35.8726 110.616 35.8726C117.522 35.8726 123.121 30.3076 123.121 23.4442C123.121 16.5808 117.522 11.0158 110.616 11.0158ZM110.616 3.36736V6.95362C110.616 7.08471 110.717 7.19542 110.869 7.19542C119.782 7.32828 126.968 14.5516 126.968 23.4442C126.968 32.3368 119.782 39.5618 110.867 39.6947C110.722 39.6947 110.616 39.8036 110.616 39.9347V43.2812C110.616 43.4085 110.717 43.5119 110.846 43.5192C121.897 43.3954 130.815 34.4559 130.815 23.4442C130.815 12.3556 121.772 3.36736 110.616 3.36736ZM110.616 -0.217117C110.616 -0.348202 110.51 -0.453307 110.38 -0.455078C97.2858 -0.329307 86.6944 10.1971 86.5701 23.21C86.5701 23.3393 86.6777 23.4425 86.8078 23.4442H90.1801C90.3103 23.4425 90.4179 23.3373 90.4179 23.1989C90.5515 12.2245 99.5424 3.36736 110.616 3.36736V-0.217117ZM115.425 23.4442C115.425 26.0841 113.27 28.224 110.616 28.224C107.96 28.224 105.806 26.0841 105.806 23.4442C105.806 20.8041 107.96 18.6642 110.616 18.6642C113.27 18.6642 115.425 20.8041 115.425 23.4442Z" fill="black"/>
<path d="M5.01155 53.6572C5.08583 53.6572 5.12919 53.7221 5.0986 53.787L2.98834 58.3136C2.46374 59.406 2.03391 59.8873 1.23899 59.8873H1.19473C1.0373 59.8873 0.785991 59.8521 0.650832 59.8001C0.611324 59.7873 0.589342 59.7478 0.589342 59.7042V59.0736C0.589342 59.0131 0.628849 58.9912 0.690043 59.0131C0.830845 59.0656 0.927981 59.0878 1.03908 59.0878H1.07413C1.48495 59.0878 1.72052 58.9175 2.04133 58.2439L2.06421 58.1959L0.00979318 53.787C-0.0205061 53.7223 0.0225661 53.6572 0.0968293 53.6572H0.843916C0.905108 53.6572 0.953529 53.6876 0.979668 53.74L2.0951 56.1301L2.54247 57.3854H2.56593L3.01329 56.1301L4.12842 53.74C4.15486 53.6878 4.20298 53.6572 4.26418 53.6572H5.01155Z" fill="black"/>
<path d="M8.87385 55.4102C8.92612 55.4102 8.96119 55.4449 8.96119 55.497V59.705C8.96119 59.757 8.92612 59.7918 8.87385 59.7918H8.17459C8.12201 59.7918 8.08725 59.757 8.08725 59.705V57.9072H6.07859V59.705C6.07859 59.757 6.04383 59.7918 5.99125 59.7918H5.29198C5.23972 59.7918 5.20465 59.757 5.20465 59.705V55.497C5.20465 55.4449 5.23972 55.4102 5.29198 55.4102H5.99125C6.04383 55.4102 6.07859 55.4449 6.07859 55.497V57.2197H8.08725V55.497C8.08725 55.4449 8.12201 55.4102 8.17459 55.4102H8.87385Z" fill="black"/>
<path d="M13.639 55.4102C13.6913 55.4102 13.7263 55.4447 13.7263 55.497V59.7045C13.7263 59.7568 13.6913 59.7913 13.639 59.7913H12.9397C12.8872 59.7913 12.8524 59.7568 12.8524 59.7045V57.9039L12.8782 56.6116H12.804L12.0812 57.8609L10.9973 59.7001C10.9664 59.7568 10.9444 59.7913 10.8829 59.7913H10.0265C9.97397 59.7913 9.9389 59.7568 9.9389 59.7045V55.497C9.9389 55.4447 9.97397 55.4102 10.0265 55.4102H10.7258C10.7781 55.4102 10.8131 55.4447 10.8131 55.497V57.1727L10.787 58.5899H10.8616L11.6692 57.2157L12.6682 55.5014C12.6988 55.4447 12.7211 55.4102 12.7823 55.4102H13.639Z" fill="black"/>
<path d="M15.5745 59.151H16.5486C17.1367 59.151 17.3592 58.8768 17.3592 58.5367V58.453C17.3592 58.0908 17.1367 57.8301 16.5486 57.8301H15.5745V59.151ZM15.5745 57.3184H16.3971C16.9852 57.3184 17.2211 57.0173 17.2211 56.6993V56.6158C17.2211 56.2757 16.9986 56.0505 16.4108 56.0505H15.5745V57.3184ZM16.5061 55.4102C17.5722 55.4102 18.095 55.8302 18.095 56.547V56.6176C18.095 56.9993 17.8915 57.3468 17.498 57.5363C18 57.6922 18.2504 58.0551 18.2504 58.5137V58.5839C18.2504 59.3007 17.7276 59.7913 16.6615 59.7913H14.788C14.7354 59.7913 14.7006 59.7568 14.7006 59.7045V55.497C14.7006 55.4449 14.7354 55.4102 14.788 55.4102H16.5061Z" fill="black"/>
<path d="M20.9085 55.9491C20.2995 55.9491 19.8911 56.4165 19.8741 57.2086H21.9327C21.9431 56.3534 21.6223 55.9491 20.9619 55.9491H20.9085ZM20.9925 55.2959C22.042 55.2959 22.7535 55.9535 22.7535 57.2376V57.6116C22.7535 57.6856 22.6966 57.7416 22.6227 57.7416H19.8762L19.8774 58.0429C19.8762 58.8035 20.4118 59.209 21.1229 59.209H21.1624C21.5825 59.209 22.0328 59.0639 22.4861 58.8706C22.5298 58.8531 22.5734 58.8791 22.5734 58.9313V59.4581C22.5734 59.5278 22.5474 59.567 22.4948 59.589C22.1896 59.7431 21.5388 59.9052 21.0501 59.9052H20.9756C19.8566 59.9052 18.9806 59.2349 18.9806 57.9535V57.3813C18.9806 56.0629 19.8293 55.2959 20.8954 55.2959H20.9925Z" fill="black"/>
<path d="M25.5998 56.0054C25.2621 56.0054 24.896 56.157 24.5414 56.5111V58.6818C24.9014 59.0409 25.2746 59.1959 25.5998 59.1959H25.6304C26.2711 59.1959 26.6313 58.7721 26.6313 57.9637V57.2376C26.6313 56.4296 26.2711 56.0054 25.6304 56.0054H25.5998ZM25.8817 55.2959C26.9486 55.2959 27.5225 56.0742 27.5225 57.2206V57.9249C27.5225 59.209 26.8145 59.9054 25.7994 59.9054H25.7337C25.3345 59.9054 24.8853 59.7508 24.5416 59.3943V61.168C24.5416 61.2202 24.5066 61.2548 24.454 61.2548H23.7547C23.7026 61.2548 23.6674 61.2202 23.6674 61.168V55.4967C23.6674 55.4447 23.7026 55.4099 23.7547 55.4099H24.3763C24.4202 55.4099 24.4507 55.4361 24.4594 55.4795L24.4917 55.9115C24.8388 55.5202 25.3327 55.2959 25.8159 55.2959H25.8817Z" fill="black"/>
<path d="M30.4588 55.2959C30.8866 55.2959 31.3754 55.458 31.6579 55.6121C31.7105 55.6338 31.737 55.6732 31.737 55.7427V56.2695C31.737 56.3218 31.6931 56.3477 31.6494 56.3304C31.2488 56.1329 30.9305 56.0054 30.5711 56.0054H30.509C29.8172 56.0054 29.2622 56.4593 29.2622 57.3448V57.8561C29.2622 58.7415 29.8172 59.1959 30.509 59.1959H30.5711C30.9305 59.1959 31.2488 59.0682 31.6494 58.8706C31.6931 58.8531 31.737 58.8795 31.737 58.9313V59.4581C31.737 59.5278 31.7105 59.567 31.6579 59.589C31.3754 59.7431 30.8866 59.9052 30.4588 59.9052H30.3617C29.2954 59.9052 28.3708 59.226 28.3708 57.8689V57.3321C28.3708 55.9748 29.2954 55.2959 30.3617 55.2959H30.4588Z" fill="black"/>
<path d="M36.3342 55.4102C36.3866 55.4102 36.4216 55.4447 36.4216 55.497V59.7045C36.4216 59.7568 36.3866 59.7913 36.3342 59.7913H35.6351C35.5825 59.7913 35.5478 59.7568 35.5478 59.7045V57.9039L35.5736 56.6116H35.4992L34.7765 57.8609L33.6926 59.7001C33.6617 59.7568 33.6398 59.7913 33.5783 59.7913H32.7219C32.6694 59.7913 32.6342 59.7568 32.6342 59.7045V55.497C32.6342 55.4447 32.6694 55.4102 32.7219 55.4102H33.421C33.4734 55.4102 33.5084 55.4447 33.5084 55.497V57.1727L33.4823 58.5899H33.5569L34.3646 57.2157L35.3635 55.5014C35.3941 55.4447 35.4163 55.4102 35.4776 55.4102H36.3342Z" fill="black"/>
<path d="M40.754 55.4102C40.8063 55.4102 40.8413 55.4449 40.8413 55.497V56.0113C40.8413 56.0632 40.8063 56.0981 40.754 56.0981H39.4001V59.705C39.4001 59.757 39.3651 59.7918 39.3127 59.7918H38.6134C38.5608 59.7918 38.5261 59.757 38.5261 59.705V56.0981H37.1722C37.1196 56.0981 37.0848 56.0632 37.0848 56.0113V55.497C37.0848 55.4449 37.1196 55.4102 37.1722 55.4102H40.754Z" fill="black"/>
<path d="M43.2775 55.9491C42.6686 55.9491 42.26 56.4165 42.2431 57.2086H44.3016C44.3121 56.3534 43.9913 55.9491 43.3309 55.9491H43.2775ZM43.3615 55.2959C44.411 55.2959 45.1224 55.9535 45.1224 57.2376V57.6116C45.1224 57.6856 45.0658 57.7416 44.9918 57.7416H42.2453L42.2464 58.0429C42.2453 58.8035 42.7809 59.209 43.492 59.209H43.5314C43.9514 59.209 44.4019 59.0639 44.855 58.8706C44.8987 58.8531 44.9424 58.8791 44.9424 58.9313V59.4581C44.9424 59.5278 44.9163 59.567 44.8637 59.589C44.5587 59.7431 43.9077 59.9052 43.4192 59.9052H43.3445C42.2257 59.9052 41.3497 59.2349 41.3497 57.9535V57.3813C41.3497 56.0629 42.1983 55.2959 43.2643 55.2959H43.3615Z" fill="black"/>
<path d="M49.2444 55.4102C49.2965 55.4102 49.3317 55.4449 49.3317 55.497V56.0113C49.3317 56.0632 49.2965 56.0981 49.2444 56.0981H47.8903V59.705C47.8903 59.757 47.8553 59.7918 47.803 59.7918H47.1039C47.0513 59.7918 47.0165 59.757 47.0165 59.705V56.0981H45.6624C45.6098 56.0981 45.5751 56.0632 45.5751 56.0113V55.497C45.5751 55.4449 45.6098 55.4102 45.6624 55.4102H49.2444Z" fill="black"/>
<path d="M55.4716 55.4102C55.524 55.4102 55.5589 55.4449 55.5589 55.497V59.705C55.5589 59.757 55.524 59.7918 55.4716 59.7918H54.7723C54.7197 59.7918 54.6849 59.757 54.6849 59.705V57.9072H52.6763V59.705C52.6763 59.757 52.6415 59.7918 52.5889 59.7918H51.8898C51.8375 59.7918 51.8025 59.757 51.8025 59.705V55.497C51.8025 55.4449 51.8375 55.4102 51.8898 55.4102H52.5889C52.6415 55.4102 52.6763 55.4449 52.6763 55.497V57.2197H54.6849V55.497C54.6849 55.4449 54.7197 55.4102 54.7723 55.4102H55.4716Z" fill="black"/>
<path d="M58.3144 57.692C57.54 57.7141 57.1924 57.988 57.1924 58.488V58.523C57.1924 58.9477 57.5043 59.226 57.9898 59.226H58.0292C58.3618 59.226 58.6869 59.0746 59.0273 58.7134V57.6718L58.3144 57.692ZM58.2999 55.2959C59.2795 55.2959 59.8919 55.7334 59.9013 56.9515V59.7043C59.9013 59.7563 59.8661 59.7911 59.8135 59.7911H59.1924C59.1485 59.7911 59.118 59.7652 59.1093 59.7214L59.0667 59.2517C58.7263 59.6186 58.203 59.9052 57.6921 59.9052H57.6433C56.792 59.9052 56.3144 59.3589 56.3144 58.6563V58.5868C56.3144 57.6831 56.9284 57.2411 58.2607 57.1674L59.0264 57.1289L59.0248 56.979C59.0271 56.2852 58.7869 55.9923 58.1136 55.9923H58.0869C57.6672 55.9923 57.1986 56.1369 56.7453 56.3047C56.7016 56.3176 56.6579 56.2959 56.6579 56.2438V55.7299C56.6579 55.6601 56.6842 55.6167 56.7368 55.599C57.1155 55.4493 57.7108 55.2959 58.2553 55.2959H58.2999Z" fill="black"/>
<path d="M64.554 55.4102C64.6193 55.4102 64.6585 55.462 64.6367 55.5271L63.0007 60.0925C62.7314 60.8507 62.3805 61.3688 61.5909 61.3688H61.5294C61.2763 61.3688 60.9303 61.2864 60.81 61.2333C60.7615 61.2156 60.7399 61.1722 60.7399 61.1241V60.6151C60.7399 60.5628 60.7835 60.528 60.8361 60.5455C61.0694 60.6288 61.2498 60.6724 61.4343 60.6724H61.4608C61.7709 60.6724 61.9485 60.5181 62.1093 60.0929L62.221 59.7913H62.1078C62.0594 59.7913 62.0198 59.761 62.002 59.713L60.5084 55.5271C60.4868 55.462 60.526 55.4102 60.5957 55.4102H61.2948C61.3432 55.4102 61.3826 55.4405 61.4002 55.4885L62.1289 57.5018L62.562 59.0562H62.5834L63.0165 57.5018L63.7451 55.4885C63.7627 55.4405 63.8021 55.4102 63.8507 55.4102H64.554Z" fill="black"/>
<path d="M69.0452 59.6653C69.0804 59.7262 69.0497 59.7913 68.9797 59.7913H68.1982C68.1501 59.7913 68.1064 59.7699 68.0843 59.7307L66.841 57.8853H66.2015V59.7045C66.2015 59.7566 66.1668 59.7913 66.1142 59.7913H65.4151C65.3627 59.7913 65.3278 59.7566 65.3278 59.7045V55.497C65.3278 55.4447 65.3627 55.4102 65.4151 55.4102H66.1142C66.1668 55.4102 66.2015 55.4447 66.2015 55.497V57.1975H66.8421L67.9337 55.475C67.9558 55.4361 68.0039 55.4102 68.052 55.4102H68.7901C68.8603 55.4102 68.8908 55.4753 68.8559 55.5317L67.6129 57.5133L69.0452 59.6653Z" fill="black"/>
<path d="M73.427 55.4102C73.4794 55.4102 73.5144 55.4447 73.5144 55.497V59.7045C73.5144 59.7568 73.4794 59.7913 73.427 59.7913H72.7279C72.6754 59.7913 72.6406 59.7568 72.6406 59.7045V57.9039L72.6664 56.6116H72.592L71.8693 57.8609L70.7854 59.7001C70.7545 59.7568 70.7326 59.7913 70.6712 59.7913H69.8148C69.7622 59.7913 69.7274 59.7568 69.7274 59.7045V55.497C69.7274 55.4447 69.7622 55.4102 69.8148 55.4102H70.5139C70.5662 55.4102 70.6012 55.4447 70.6012 55.497V57.1727L70.5751 58.5899H70.6498L71.4574 57.2157L72.4564 55.5014C72.4869 55.4447 72.5092 55.4102 72.5704 55.4102H73.427Z" fill="black"/>
<path d="M79.996 55.4102C80.0481 55.4102 80.0833 55.4447 80.0833 55.497V59.7045C80.0833 59.7568 80.0481 59.7913 79.996 59.7913H79.2967C79.2443 59.7913 79.2093 59.7568 79.2093 59.7045V57.9039L79.2352 56.6116H79.161L78.4383 57.8609L77.3542 59.7001C77.3236 59.7568 77.3014 59.7913 77.2399 59.7913H76.3835C76.3309 59.7913 76.2961 59.7568 76.2961 59.7045V55.497C76.2961 55.4447 76.3309 55.4102 76.3835 55.4102H77.0828C77.1349 55.4102 77.1701 55.4447 77.1701 55.497V57.1727L77.1443 58.5899H77.2185L78.0265 57.2157L79.0251 55.5014C79.056 55.4447 79.0781 55.4102 79.1391 55.4102H79.996Z" fill="black"/>
<path d="M86.223 55.4102C86.2751 55.4102 86.3103 55.4449 86.3103 55.497V56.0113C86.3103 56.0632 86.2751 56.0981 86.223 56.0981H84.8689V59.705C84.8689 59.757 84.8339 59.7918 84.7815 59.7918H84.0824C84.0298 59.7918 83.9946 59.757 83.9946 59.705V56.0981H82.641C82.5884 56.0981 82.5534 56.0632 82.5534 56.0113V55.497C82.5534 55.4449 82.5884 55.4102 82.641 55.4102H86.223Z" fill="black"/>
<path d="M88.7465 55.9491C88.1374 55.9491 87.729 56.4165 87.7118 57.2086H89.7706C89.7811 56.3534 89.4603 55.9491 88.7999 55.9491H88.7465ZM88.8302 55.2959C89.8796 55.2959 90.5912 55.9535 90.5912 57.2376V57.6116C90.5912 57.6856 90.5346 57.7416 90.4606 57.7416H87.7141L87.7154 58.0429C87.7141 58.8035 88.2497 59.209 88.9608 59.209H89.0005C89.4204 59.209 89.8707 59.0639 90.3241 58.8706C90.3677 58.8531 90.4114 58.8791 90.4114 58.9313V59.4581C90.4114 59.5278 90.3853 59.567 90.3327 59.589C90.0275 59.7431 89.3765 59.9052 88.8882 59.9052H88.8135C87.6945 59.9052 86.8185 59.2349 86.8185 57.9535V57.3813C86.8185 56.0629 87.6673 55.2959 88.7333 55.2959H88.8302Z" fill="black"/>
<path d="M94.8612 55.4102C94.9313 55.4102 94.9619 55.4757 94.9269 55.5322L93.6458 57.5525L94.9888 59.6654C95.024 59.722 94.9933 59.7918 94.9233 59.7918H94.1761C94.1284 59.7918 94.0888 59.7703 94.0625 59.7309L93.2802 58.5139L93.0648 58.0334H93.0265L92.8113 58.5139L92.0291 59.7309C92.003 59.7703 91.9633 59.7918 91.9152 59.7918H91.1682C91.098 59.7918 91.0675 59.722 91.1029 59.6654L92.4455 57.5525L91.1604 55.5322C91.1297 55.4757 91.1557 55.4102 91.2259 55.4102H91.9553C92.0034 55.4102 92.052 55.4365 92.0736 55.4755L92.8113 56.6167L93.0274 57.0972H93.0635L93.2802 56.6167L94.0135 55.4755C94.0395 55.4365 94.0834 55.4102 94.1313 55.4102H94.8612Z" fill="black"/>
<path d="M99.3359 55.4102C99.388 55.4102 99.4232 55.4449 99.4232 55.497V59.705C99.4232 59.757 99.388 59.7918 99.3359 59.7918H98.6365C98.5842 59.7918 98.5492 59.757 98.5492 59.705V57.9072H96.5408V59.705C96.5408 59.757 96.5058 59.7918 96.4532 59.7918H95.7539C95.7017 59.7918 95.6665 59.757 95.6665 59.705V55.497C95.6665 55.4449 95.7017 55.4102 95.7539 55.4102H96.4532C96.5058 55.4102 96.5408 55.4449 96.5408 55.497V57.2197H98.5492V55.497C98.5492 55.4449 98.5842 55.4102 98.6365 55.4102H99.3359Z" fill="black"/>
<path d="M102.311 56.0054C101.676 56.0054 101.226 56.4296 101.226 57.2378V57.9637C101.226 58.7721 101.676 59.1961 102.311 59.1961H102.373C103.009 59.1961 103.459 58.7721 103.459 57.9637V57.2378C103.459 56.4296 103.009 56.0054 102.373 56.0054H102.311ZM102.391 55.2959C103.466 55.2959 104.35 55.9925 104.35 57.2764V57.9251C104.35 59.209 103.466 59.9056 102.391 59.9056H102.294C101.219 59.9056 100.335 59.209 100.335 57.9251V57.2764C100.335 55.9925 101.219 55.2959 102.294 55.2959H102.391Z" fill="black"/>
<path d="M109.012 55.4102C109.064 55.4102 109.099 55.4449 109.099 55.497V59.705C109.099 59.757 109.064 59.7918 109.012 59.7918H108.312C108.26 59.7918 108.225 59.757 108.225 59.705V56.0981H106.71L106.513 58.6552C106.456 59.3534 106.172 59.9058 105.439 59.9058H105.386C105.189 59.9058 104.979 59.8405 104.887 59.7924C104.834 59.7663 104.816 59.7316 104.816 59.6835V59.2088C104.816 59.1654 104.847 59.1175 104.913 59.139C105.014 59.1789 105.094 59.1964 105.187 59.1964H105.227C105.511 59.1964 105.63 58.9439 105.661 58.5606L105.904 55.497C105.908 55.4449 105.939 55.4102 105.991 55.4102H109.012Z" fill="black"/>
<path d="M111.983 56.0054C111.348 56.0054 110.898 56.4296 110.898 57.2378V57.9637C110.898 58.7721 111.348 59.1961 111.983 59.1961H112.046C112.681 59.1961 113.131 58.7721 113.131 57.9637V57.2378C113.131 56.4296 112.681 56.0054 112.046 56.0054H111.983ZM112.063 55.2959C113.138 55.2959 114.022 55.9925 114.022 57.2764V57.9251C114.022 59.209 113.138 59.9056 112.063 59.9056H111.966C110.891 59.9056 110.007 59.209 110.007 57.9251V57.2764C110.007 55.9925 110.891 55.2959 111.966 55.2959H112.063Z" fill="black"/>
<path d="M117.749 55.4102C117.802 55.4102 117.836 55.4449 117.836 55.497V56.0113C117.836 56.0632 117.802 56.0981 117.749 56.0981H115.806V59.705C115.806 59.757 115.771 59.7918 115.718 59.7918H115.019C114.967 59.7918 114.932 59.757 114.932 59.705V55.497C114.932 55.4449 114.967 55.4102 115.019 55.4102H117.749Z" fill="black"/>
<path d="M122.202 55.4102C122.255 55.4102 122.29 55.4447 122.29 55.497V59.7045C122.29 59.7568 122.255 59.7913 122.202 59.7913H121.503C121.451 59.7913 121.416 59.7568 121.416 59.7045V57.9039L121.442 56.6116H121.367L120.645 57.8609L119.561 59.7001C119.53 59.7568 119.508 59.7913 119.447 59.7913H118.59C118.538 59.7913 118.502 59.7568 118.502 59.7045V55.497C118.502 55.4447 118.538 55.4102 118.59 55.4102H119.289C119.342 55.4102 119.377 55.4447 119.377 55.497V57.1727L119.351 58.5899H119.425L120.233 57.2157L121.232 55.5014C121.262 55.4447 121.285 55.4102 121.346 55.4102H122.202Z" fill="black"/>
<path d="M126.281 53.8496C126.342 53.8191 126.394 53.8452 126.394 53.9105V54.3383C126.394 54.3994 126.368 54.4298 126.333 54.4561C126.166 54.5874 125.725 54.7938 125.192 54.7938C124.659 54.7938 124.219 54.5874 124.051 54.4561C124.016 54.4298 123.989 54.3994 123.989 54.3383V53.9105C123.989 53.8452 124.042 53.8191 124.104 53.8496C124.398 53.9989 124.711 54.1621 125.192 54.1621C125.673 54.1621 125.987 53.9989 126.281 53.8496ZM126.964 55.4107C127.016 55.4107 127.051 55.4455 127.051 55.4975V59.7051C127.051 59.7573 127.016 59.7919 126.964 59.7919H126.265C126.212 59.7919 126.177 59.7573 126.177 59.7051V57.9044L126.203 56.6122H126.128L125.406 57.8615L124.322 59.7007C124.291 59.7574 124.269 59.7919 124.207 59.7919H123.351C123.299 59.7919 123.264 59.7573 123.264 59.7051V55.4975C123.264 55.4455 123.299 55.4107 123.351 55.4107H124.05C124.103 55.4107 124.138 55.4455 124.138 55.4975V57.1733L124.112 58.5904H124.186L124.994 57.2162L125.993 55.5019C126.024 55.4455 126.046 55.4107 126.107 55.4107H126.964Z" fill="black"/>
</g>
<defs>
<clipPath id="clip0_315_4826">
<rect width="131" height="75" fill="white"/>
</clipPath>
</defs>
</svg>
