<svg width="96" height="75" viewBox="0 0 96 75" fill="none" xmlns="http://www.w3.org/2000/svg">
<path fill-rule="evenodd" clip-rule="evenodd" d="M0 40.0334C0 44.7468 2.63427 49.5 8.53324 49.5C14.4269 49.5 17.0664 44.7468 17.0664 40.0334C17.0664 36.8139 15.984 33.1064 14.1773 30.1118C12.4203 27.22 10.3093 25.5 8.53324 25.5C6.75213 25.5 4.64015 27.22 2.89843 30.1118C1.08321 33.1064 0 36.8139 0 40.0334Z" fill="#E30611"/>
<path fill-rule="evenodd" clip-rule="evenodd" d="M60.5845 32.5717H54.6113V26.7861H72.9577V32.5717H66.9845V48.2146H60.5845V32.5717Z" fill="#E30611"/>
<path fill-rule="evenodd" clip-rule="evenodd" d="M86.6104 32.5719H95.9975V26.7861H86.6112C77.9863 26.7861 73.3818 31.0933 73.3818 37.5005C73.3818 43.9077 77.9863 48.2148 86.6112 48.2148H95.9975V42.429H86.6104C82.6197 42.429 79.995 40.996 79.995 37.5005C79.995 34.005 82.6197 32.5719 86.6104 32.5719Z" fill="#E30611"/>
<path fill-rule="evenodd" clip-rule="evenodd" d="M38.1841 39.5766L41.596 26.7861H52.9054V48.2148H46.5052V30.7738L41.853 48.2148H34.515L29.8658 30.7849L29.8655 48.2148H23.4658V26.7861H34.772L38.1841 39.5766Z" fill="#E30611"/>
</svg>
