<svg width="238" height="75" viewBox="0 0 238 75" fill="none" xmlns="http://www.w3.org/2000/svg">
<path d="M99.9 35.3004H95.3V29.1004H90V45.8004H95.4V39.9004H100V45.8004H105.4V29.1004H100V35.3004H99.9ZM149.7 35.3004H145.1V29.1004H139.7V45.8004H145.1V39.9004H149.7V45.8004H155.1V29.1004H149.7V35.3004ZM231.6 34.0004H229V29.1004H223.6V45.8004H231.5C235 45.8004 237.8 43.9004 237.8 40.5004V39.3004C237.9 35.9004 235 34.0004 231.6 34.0004V34.0004ZM231 41.7004H229V38.1004H230.8C232.3 38.1004 232.7 39.2004 232.7 39.9004C232.7 41.4004 231.4 41.7004 231 41.7004V41.7004ZM197 39.5004H203V35.5004H197V33.5004H203.6V29.2004H191.6V45.9004H204V41.5004H197V39.5004ZM190.4 29.1004H184.6L181.8 35.4004H180.5V29.1004H175.1V45.8004H180.5V39.9004H181.8L184.7 45.8004H190.9L186.4 37.4004L190.4 29.1004V29.1004ZM116 28.9004H113.4C109.9 28.9004 107.1 31.4004 107.1 35.2004V39.9004C107.1 43.8004 109.9 46.2004 113.4 46.2004H116C119.5 46.2004 122.3 43.7004 122.3 39.9004V35.2004C122.4 31.1004 119.5 28.9004 116 28.9004ZM117 40.2004C117 41.3004 116.1 42.2004 115 42.2004H114.5C113.4 42.2004 112.5 41.3004 112.5 40.2004V34.8004C112.5 33.7004 113.4 32.8004 114.5 32.8004H115C116.1 32.8004 117 33.7004 117 34.8004V40.2004ZM208.1 38.0004C208.1 40.5004 207.4 40.9004 206.5 41.3004C206.1 41.5004 205 41.5004 205 41.5004V45.9004H207.1C211.6 45.9004 213.3 43.3004 213.3 37.4004V33.6004H216.3V45.9004H221.7V29.1004H208.2V38.0004H208.1ZM132.1 29.1004H124.2V45.8004H129.6V41.7004H132.2C135.7 41.7004 138.5 39.8004 138.5 36.4004V34.5004C138.4 31.0004 135.6 29.1004 132.1 29.1004ZM133.2 35.9004C133.2 36.5004 132.9 37.7004 131.3 37.7004H129.5V33.3004H131.5C132 33.3004 133.1 33.7004 133.1 35.0004V35.9004H133.2ZM162.5 37.6004V29.2004H157.4V45.9004H162.1L167.6 37.5004V45.9004H172.7V29.1004H168L162.5 37.6004Z" fill="#626261"/>
<path d="M25 45.6L50 62.5V29.4L25 12.5V45.6Z" fill="#00589C"/>
<path d="M0 37.5C0 51.3 11.2 62.5 25 62.5V12.5C11.2 12.5 0 23.7 0 37.5ZM50 12.5V62.5C63.8 62.5 75 51.3 75 37.5C75 23.7 63.8 12.5 50 12.5Z" fill="#0080C8"/>
</svg>
