<svg width="280" height="75" viewBox="0 0 280 75" fill="none" xmlns="http://www.w3.org/2000/svg">
<path d="M76.686 32.4784L80.225 29.9488H68.3787V45.1432H80.225V42.6137H71.7593V38.7228H78.9813V36.1933H71.7593V32.4784H76.686Z" fill="#21A038"/>
<path d="M58.849 42.612H55.3225V38.4019H58.849C60.9947 38.4019 61.9929 39.1059 61.9929 40.5069C61.9929 41.9391 60.9343 42.612 58.849 42.612ZM59.4361 35.8706H55.3225V32.4784H61.8897L65.4304 29.9488H51.9419V45.1432H59.0002C62.9608 45.1432 65.2276 43.4023 65.2276 40.3689C65.2276 37.4684 63.169 35.8706 59.4326 35.8706" fill="#21A038"/>
<path d="M89.7493 38.3087H86.7531V32.4784H89.7493C91.9165 32.4784 93.1086 33.5136 93.1086 35.3944C93.1086 37.2751 91.9165 38.3087 89.7493 38.3087ZM89.8223 29.9488H83.3725V45.1432H86.7531V40.8382H89.8223C93.9377 40.8382 96.4945 38.7401 96.4945 35.3858C96.4945 32.0315 93.9377 29.9488 89.8223 29.9488Z" fill="#21A038"/>
<path d="M46.1397 41.8528C45.2436 42.324 44.2393 42.5679 43.22 42.562C40.1721 42.562 37.9605 40.4517 37.9605 37.546C37.9605 34.6404 40.1721 32.5284 43.22 32.5284C44.3219 32.513 45.4 32.8401 46.2963 33.4619L48.7197 31.7364L48.5595 31.6001C47.145 30.3923 45.2519 29.7556 43.0901 29.7556C40.7432 29.7556 38.6152 30.5234 37.094 31.9159C35.5727 33.3083 34.7222 35.2822 34.7222 37.4615C34.7222 39.6408 35.562 41.6509 37.0851 43.0951C38.6081 44.5393 40.7379 45.3382 43.0687 45.3382C45.5045 45.3382 47.6325 44.5152 49.0755 43.0158L46.8888 41.4525L46.1397 41.8528Z" fill="#21A038"/>
<path d="M117.449 43.4695C117.214 43.7387 116.939 43.9714 116.632 44.1597C116.24 44.404 115.823 44.6076 115.387 44.7671C114.272 45.1807 113.088 45.3907 111.894 45.3865C110.706 45.4019 109.523 45.218 108.4 44.843C107.408 44.5106 106.499 43.9818 105.731 43.2901C104.979 42.5994 104.391 41.7588 104.007 40.8261C103.577 39.7728 103.365 38.6476 103.384 37.515C103.371 36.4372 103.576 35.3674 103.987 34.366C104.376 33.4318 104.964 32.588 105.713 31.89C106.489 31.1759 107.407 30.6239 108.412 30.2681C109.543 29.8721 110.738 29.6774 111.94 29.6935C113.021 29.6715 114.098 29.8243 115.127 30.1455C115.839 30.363 116.517 30.6736 117.143 31.0687V34.8474C116.594 34.1028 115.885 33.4824 115.065 33.0288C114.605 32.775 114.117 32.5747 113.609 32.4318C113.067 32.2769 112.505 32.1996 111.94 32.2023C111.151 32.191 110.366 32.3238 109.627 32.594C108.974 32.8339 108.379 33.2036 107.882 33.6793C107.394 34.1566 107.019 34.7313 106.784 35.3633C106.525 36.0614 106.398 36.799 106.409 37.5409C106.406 38.2456 106.526 38.9456 106.764 39.6114C106.983 40.2467 107.342 40.8282 107.816 41.3157C108.29 41.8031 108.867 42.1848 109.508 42.4343C110.262 42.7301 111.068 42.8813 111.882 42.8794C112.52 42.8852 113.156 42.8121 113.775 42.662C114.32 42.5292 114.846 42.3328 115.342 42.0771C115.795 41.8446 116.214 41.5544 116.588 41.2144C116.933 40.8972 117.227 40.5313 117.459 40.1291L117.449 43.4695Z" fill="#21A038"/>
<path d="M132.074 32.437H126.788V45.1415H123.989V32.437H118.792V29.9385H132.074V32.437Z" fill="#21A038"/>
<path d="M137.337 40.4069V45.1415H134.537V29.9385H139.755C142.234 29.9385 144.03 30.3693 145.141 31.2309C146.253 32.0924 146.809 33.3779 146.81 35.0873C146.81 36.8679 146.213 38.2 145.018 39.0834C143.824 39.9669 142.07 40.408 139.755 40.4069H137.337ZM137.337 32.437V37.9101H139.956C141.272 37.9101 142.258 37.6893 142.914 37.2475C143.569 36.8058 143.898 36.0639 143.899 35.0217C143.899 34.0796 143.593 33.4136 142.981 33.0236C142.369 32.6337 141.376 32.4381 140.001 32.437H137.337Z" fill="#21A038"/>
<path d="M163.025 45.1415H160.046L158.541 41.537H151.356L149.878 45.1415H147.031L153.392 29.9385H156.584L163.025 45.1415ZM157.509 39.0386L154.94 32.8062L152.365 39.0386H157.509Z" fill="#21A038"/>
<path d="M169.497 37.4097L164.19 29.9385H167.549L171.558 35.6946L175.812 29.9385H179.061L173.462 37.2579L179.262 45.1415H175.924L171.467 39.0179L167.168 45.1415H163.898L169.497 37.4097Z" fill="#21A038"/>
<path d="M179.821 37.515C179.809 36.4381 180.01 35.369 180.415 34.366C180.793 33.435 181.369 32.5915 182.105 31.89C182.862 31.1785 183.762 30.6263 184.749 30.2681C185.86 29.8713 187.037 29.6765 188.221 29.6935C189.39 29.6799 190.553 29.8638 191.658 30.237C192.645 30.568 193.549 31.0972 194.311 31.7899C195.057 32.4812 195.638 33.3221 196.014 34.2539C196.433 35.3061 196.638 36.4269 196.619 37.5547C196.632 38.6322 196.43 39.7021 196.024 40.7054C195.646 41.6362 195.07 42.4796 194.334 43.1814C193.575 43.8931 192.67 44.4437 191.679 44.7982C190.573 45.1946 189.4 45.3899 188.221 45.3745C187.052 45.3877 185.89 45.2079 184.783 44.843C183.795 44.5174 182.89 43.9915 182.128 43.3005C181.383 42.607 180.802 41.7645 180.426 40.8313C180.008 39.7734 179.802 38.6477 179.821 37.515ZM182.778 37.5374C182.776 38.2466 182.896 38.9511 183.134 39.6218C183.352 40.2521 183.707 40.8299 184.175 41.3162C184.658 41.8076 185.241 42.1961 185.888 42.4567C187.371 43.0089 189.01 43.0205 190.502 42.4895C191.141 42.2457 191.721 41.8755 192.204 41.4024C192.686 40.9231 193.056 40.3495 193.29 39.7201C193.552 39.0208 193.681 38.2814 193.672 37.5374C193.674 36.8277 193.554 36.1226 193.316 35.4513C193.098 34.8216 192.743 34.2444 192.275 33.7587C191.793 33.2666 191.209 32.8781 190.562 32.6181C189.812 32.3221 189.008 32.1776 188.199 32.1937C187.427 32.1842 186.661 32.3184 185.941 32.5888C185.297 32.8289 184.714 33.2017 184.232 33.6817C183.751 34.1616 183.383 34.7371 183.153 35.3685C182.896 36.0654 182.769 36.8009 182.778 37.5409V37.5374Z" fill="#21A038"/>
<path d="M199.665 45.1415V29.9385H206.472C209.996 29.9385 211.758 31.1981 211.758 33.7172C211.758 34.5869 211.572 35.311 211.198 35.8896C210.824 36.4682 210.234 36.9099 209.428 37.2148C210.397 37.3735 211.108 37.7462 211.563 38.3329C212.017 38.9195 212.241 39.7126 212.233 40.7123C212.253 41.4079 212.107 42.0985 211.808 42.7311C211.533 43.2871 211.112 43.7632 210.588 44.1114C210.003 44.4876 209.349 44.7528 208.663 44.8931C207.819 45.0675 206.959 45.1509 206.097 45.1415H199.665ZM206.07 36.3676C206.966 36.3676 207.671 36.1864 208.186 35.824C208.436 35.6539 208.638 35.4255 208.773 35.1599C208.908 34.8942 208.972 34.5999 208.96 34.3039C208.974 34.0389 208.921 33.7745 208.806 33.5338C208.69 33.2932 208.516 33.0836 208.298 32.9235C207.859 32.6038 207.139 32.4444 206.138 32.4456H202.464V36.3676H206.07ZM206.271 42.6448C207.346 42.6448 208.137 42.4722 208.645 42.1271C209.152 41.782 209.406 41.2426 209.406 40.5087C209.406 39.7702 209.138 39.2491 208.6 38.9454C208.063 38.6417 207.301 38.4899 206.316 38.4899H202.464V42.631L206.271 42.6448Z" fill="#21A038"/>
<path d="M229.631 45.1415H226.651L225.151 41.537H217.968L216.489 45.1415H213.643L220.003 29.9385H223.183L229.631 45.1415ZM224.115 39.0386L221.544 32.8062L218.97 39.0386H224.115Z" fill="#21A038"/>
<path d="M243.337 38.5606H234.759V45.1415H231.96V29.9385H234.759V36.0639H243.337V29.9385H246.135V45.1415H243.337V38.5606Z" fill="#21A038"/>
<path d="M253.123 41.2972L261.679 29.9385H264.725V45.1415H261.925V33.6103L253.325 45.1415H250.324V29.9385H253.123V41.2972Z" fill="#21A038"/>
<path d="M278.924 38.5606H271.712V42.6448H279.998V45.1415H268.912V29.9385H279.753V32.437H271.712V36.0604H278.924V38.5606Z" fill="#21A038"/>
<path d="M25.3357 29.3311C25.9969 30.1532 26.5479 31.0549 27.0163 32.0097L14.2879 41.0533L8.943 37.8177V33.9457L14.2603 37.1547L25.3357 29.3311Z" fill="#21A038"/>
<path d="M3.51443 37.5528C3.51443 37.3672 3.51443 37.2081 3.54198 37.0224L0.318544 36.8633C0.318544 37.0754 0.290993 37.3141 0.290993 37.5263C0.290993 41.2392 1.86139 44.6074 4.39606 47.0473L6.68277 44.8461C4.72667 42.9896 3.51443 40.4171 3.51443 37.5528Z" fill="url(#paint0_linear_319_5029)"/>
<path d="M14.2599 27.2094C14.4527 27.2094 14.618 27.2094 14.8109 27.2359L14.9762 24.133C14.7558 24.133 14.5078 24.1064 14.2874 24.1064C10.4303 24.1064 6.93137 25.6181 4.3967 28.0581L6.68341 30.2593C8.61197 28.3763 11.3119 27.2094 14.2599 27.2094Z" fill="url(#paint1_linear_319_5029)"/>
<path d="M14.2588 47.8956C14.066 47.8956 13.9007 47.8956 13.7078 47.8691L13.5425 50.972C13.7629 50.972 14.0109 50.9985 14.2313 50.9985C18.0884 50.9985 21.5873 49.4869 24.122 47.0469L21.8353 44.8457C19.9067 46.7552 17.2343 47.8956 14.2588 47.8956Z" fill="url(#paint2_linear_319_5029)"/>
<path d="M20.3227 29.013L23.0503 27.0769C20.6533 25.2205 17.5952 24.0801 14.2616 24.0801V27.183C16.5207 27.2095 18.6146 27.8726 20.3227 29.013Z" fill="url(#paint3_linear_319_5029)"/>
<path d="M28.2559 37.553C28.2559 36.7309 28.1732 35.9353 28.0354 35.1396L25.0324 37.2878C25.0324 37.3674 25.0324 37.4735 25.0324 37.553C25.0324 40.6029 23.6549 43.3346 21.4784 45.2176L23.6549 47.5249C26.4651 45.085 28.2559 41.5047 28.2559 37.553Z" fill="#21A038"/>
<path d="M14.2587 47.8968C11.0903 47.8968 8.25261 46.5707 6.29651 44.4756L3.89959 46.5707C6.46181 49.3024 10.1536 50.9997 14.2587 50.9997V47.8968Z" fill="url(#paint4_linear_319_5029)"/>
<path d="M7.06848 29.8884L4.89197 27.5811C2.05424 30.0475 0.290993 33.6013 0.290993 37.5529H3.51443C3.51443 34.5295 4.89197 31.7714 7.06848 29.8884Z" fill="url(#paint5_linear_319_5029)"/>
<defs>
<linearGradient id="paint0_linear_319_5029" x1="4.06262" y1="46.6698" x2="0.981084" y2="37.4461" gradientUnits="userSpaceOnUse">
<stop offset="0.1444" stop-color="#F2E913"/>
<stop offset="0.3037" stop-color="#E7E518"/>
<stop offset="0.5823" stop-color="#CADB26"/>
<stop offset="0.891" stop-color="#A3CD39"/>
</linearGradient>
<linearGradient id="paint1_linear_319_5029" x1="5.31554" y1="27.6983" x2="13.5959" y2="24.4308" gradientUnits="userSpaceOnUse">
<stop offset="0.0592" stop-color="#0FA8E0"/>
<stop offset="0.5385" stop-color="#0099F9"/>
<stop offset="0.9234" stop-color="#0291EB"/>
</linearGradient>
<linearGradient id="paint2_linear_319_5029" x1="13.3532" y1="48.3517" x2="23.2802" y2="46.0284" gradientUnits="userSpaceOnUse">
<stop offset="0.1226" stop-color="#A3CD39"/>
<stop offset="0.2846" stop-color="#86C339"/>
<stop offset="0.8693" stop-color="#21A038"/>
</linearGradient>
<linearGradient id="paint3_linear_319_5029" x1="13.5993" y1="26.0654" x2="21.8311" y2="28.6955" gradientUnits="userSpaceOnUse">
<stop offset="0.0566" stop-color="#0291EB"/>
<stop offset="0.79" stop-color="#0C8ACB"/>
</linearGradient>
<linearGradient id="paint4_linear_319_5029" x1="4.7192" y1="47.0747" x2="13.535" y2="50.4856" gradientUnits="userSpaceOnUse">
<stop offset="0.1324" stop-color="#F2E913"/>
<stop offset="0.2977" stop-color="#EBE716"/>
<stop offset="0.5306" stop-color="#D9E01F"/>
<stop offset="0.8023" stop-color="#BBD62D"/>
<stop offset="0.9829" stop-color="#A3CD39"/>
</linearGradient>
<linearGradient id="paint5_linear_319_5029" x1="2.74373" y1="37.9277" x2="6.08115" y2="28.9376" gradientUnits="userSpaceOnUse">
<stop offset="0.0698" stop-color="#A3CD39"/>
<stop offset="0.2599" stop-color="#81C55F"/>
<stop offset="0.9216" stop-color="#0FA8E0"/>
</linearGradient>
</defs>
</svg>
