<svg width="111" height="75" viewBox="0 0 111 75" fill="none" xmlns="http://www.w3.org/2000/svg">
<g clip-path="url(#clip0_315_4710)">
<path d="M14.1716 30.0398C4.9587 36.346 -1.49988 44.8598 -1.49988 44.8598L10.5832 52.9761C10.5832 52.9761 11.6343 50.3825 11.6644 50.3101C14.5374 56.1912 20.6996 57.7696 24.1443 57.6866H86.763C90.2479 57.781 96.4722 56.2235 99.3722 50.3494C99.4702 50.5931 100.416 52.8792 100.416 52.8792L112.5 44.8497C112.5 44.8497 105.941 36.3257 96.6625 30.0283C88.1125 24.2272 74.005 17.3096 55.3524 17.3096C40.6424 17.2956 26.2774 21.7363 14.1716 30.0398V30.0398Z" fill="white"/>
<path d="M37.0562 36.4796L38.1019 34.2607H24.7012L23.6552 36.4796H28.8438L23.4716 47.3429H26.9398L32.3134 36.4796H37.0562Z" fill="#E1242A"/>
<path d="M85.4478 43.7399C84.4522 45.1321 83.0411 45.8368 82.2949 45.3152C81.549 44.7872 81.7545 43.2324 82.7508 41.8384C83.747 40.4443 85.1592 39.7406 85.9052 40.2632C86.6491 40.7909 86.4445 42.3448 85.4478 43.7399ZM73.718 43.6868C72.7197 45.0832 71.3091 45.7856 70.5637 45.2641C69.817 44.7363 70.0217 43.1813 71.0205 41.7817C72.0161 40.3897 73.4271 39.6851 74.1743 40.2097C74.9215 40.7344 74.7126 42.2926 73.718 43.6866V43.6868ZM59.1461 42.6756C59.1461 42.6756 59.7919 40.5109 61.8983 39.6445C61.8983 39.6445 62.4933 39.4399 62.8131 39.6998C62.8131 39.6998 63.2645 40.1352 62.7273 40.929C62.2475 41.6379 61.0982 42.9225 59.8497 43.3535C59.8497 43.3535 58.7192 43.8412 59.1461 42.6756V42.6756ZM38.685 43.6868C37.6875 45.0832 36.2766 45.7856 35.5305 45.2641C34.7853 44.7363 34.9912 43.1813 35.9873 41.7817C36.9836 40.3897 38.3953 39.6851 39.1407 40.2097C39.8861 40.7344 39.6811 42.2926 38.685 43.6866V43.6868ZM88.7863 45.3857C88.7863 45.3857 88.1105 45.6944 87.8181 45.3953C87.5256 45.0962 87.7864 44.5396 87.7864 44.5396L90.6206 38.6242H87.7324L87.2922 39.4127C85.6052 37.9388 82.4347 38.7008 80.4681 40.7421C79.3353 41.9203 78.6916 43.3123 78.6059 44.5245C78.1182 44.8467 77.5982 45.1178 77.0542 45.3335C77.0542 45.3335 76.3794 45.6399 76.0871 45.3398C75.7949 45.0396 76.0544 44.483 76.0544 44.483L81.0838 34.2058H78.198L75.5597 39.3585C73.8749 37.8876 70.704 38.6486 68.7379 40.6899C68.3556 41.0882 68.0171 41.5259 67.7284 41.9957L67.7295 41.9861C67.7107 42.0212 67.6898 42.0574 67.6706 42.0935C67.6095 42.1989 67.5495 42.3053 67.4965 42.4082C65.9272 45.1072 63.9762 45.5573 63.9762 45.5573C59.8524 46.7834 59.3801 44.7762 59.3801 44.7762C64.0008 43.0771 65.7339 41.0703 65.5781 39.5336C65.4185 37.9918 63.2929 37.9147 63.2929 37.9147C59.8005 37.7061 56.7804 40.133 56.0451 42.5071C55.8167 43.1984 55.7633 43.935 55.8898 44.6516C54.4922 45.3903 53.689 45.5084 53.689 45.5084C52.5252 45.8734 52.3823 45.3286 52.2417 44.9892C52.1011 44.6499 51.5782 41.6963 51.5782 41.6963L56.4817 38.5108H53.4789L49.794 40.7799C48.9659 41.1184 49.2873 40.2563 49.2873 40.2563L52.2936 34.2021H49.407L44.5275 44.0263C43.9665 44.3566 42.8378 45.0108 42.0236 45.3333C42.0236 45.3333 41.3474 45.6398 41.0538 45.3396C40.7603 45.0394 41.0222 44.4828 41.0222 44.4828L43.8554 38.5698H40.9693L40.5269 39.3583C38.8424 37.8875 35.6713 38.6484 33.7056 40.6897C31.7399 42.731 31.2372 45.4227 32.583 46.6987C33.6597 47.7246 35.5929 47.5363 37.329 46.371C37.329 46.371 37.7694 45.9942 38.0072 46.438C38.2551 46.8904 39.2491 47.9227 41.538 47.0244C42.2119 46.7594 42.8668 46.4491 43.4983 46.0959L42.8979 47.3049H45.7856L47.2306 44.3972L48.4871 43.6034C48.4871 43.6034 48.8703 43.3023 49.0267 43.9449C49.0267 43.9449 49.6486 46.3875 49.891 46.7079C50.1335 47.0282 50.614 47.7445 52.6422 47.1655C53.9225 46.7989 55.1806 46.3601 56.4106 45.8511C57.0892 46.7782 58.397 47.4125 60.5355 47.4125C62.8532 47.4022 65.096 46.5956 66.8834 45.1296C66.9299 45.7233 67.19 46.2806 67.6161 46.6994C68.6928 47.7253 70.6245 47.537 72.3622 46.3717C72.3622 46.3717 72.8024 45.9949 73.0418 46.4387C73.2876 46.891 74.2821 47.9233 76.5716 47.025C77.3486 46.7336 78.0917 46.36 78.7883 45.9107C78.9102 46.2296 79.101 46.5181 79.3474 46.7557C80.424 47.7783 82.3557 47.5881 84.0929 46.4253C84.0929 46.4253 84.5326 46.0517 84.7727 46.4912C85.019 46.9475 86.0124 47.9759 88.3019 47.0787C90.5914 46.1814 91.2507 45.3673 91.2507 45.3673L90.6719 44.353C90.0878 44.772 89.4548 45.1191 88.7866 45.3865" fill="#E1242A"/>
<path d="M96.8725 45.113C96.8725 45.113 95.5069 53.0302 86.6987 53.0302H24.0587C15.253 53.0302 14.0126 45.0407 14.0126 45.0407C13.6755 42.9195 14.0889 41.4694 14.7452 40.4652C21.0863 32.1681 33.6333 21.0369 55.3238 21.0369C77.2014 21.0369 89.8506 32.3301 96.1927 40.6291C96.9248 41.5487 97.1974 43.0606 96.8725 45.113ZM55.3523 19.665C20.4134 19.665 1.88409 44.2935 1.88409 44.2935L9.48156 49.3946C9.48156 49.3946 10.3999 47.1106 12.5037 43.8411C12.5054 44.308 12.5458 44.774 12.6245 45.2343C13.9671 55.5814 24.0878 55.3355 24.0878 55.3355H86.829C86.829 55.3355 97.0817 55.6122 98.4233 45.2705C98.4987 44.8249 98.5366 44.3739 98.5368 43.9221C100.6 47.1106 101.507 49.3265 101.507 49.3265L109.093 44.2808C109.093 44.2808 90.2914 19.665 55.3523 19.665Z" fill="#E1242A"/>
</g>
<defs>
<clipPath id="clip0_315_4710">
<rect width="111" height="75" fill="white"/>
</clipPath>
</defs>
</svg>
