<svg width="170" height="75" viewBox="0 0 170 75" fill="none" xmlns="http://www.w3.org/2000/svg">
<g clip-path="url(#clip0_313_4404)">
<path d="M63.9936 43.9242L58.1279 28.041H61.8154L66.0254 40.2573L70.2122 28.041H73.8997L68.0456 43.9242H63.9936Z" fill="#292929"/>
<path d="M74.9347 29.3745C74.9347 29.0168 75.0361 28.6671 75.226 28.3696C75.4159 28.0722 75.6858 27.8403 76.0017 27.7033C76.3175 27.5663 76.665 27.5304 77.0004 27.6001C77.3357 27.6697 77.6438 27.8419 77.8856 28.0947C78.1275 28.3475 78.2923 28.6697 78.3592 29.0205C78.4261 29.3713 78.3921 29.735 78.2615 30.0656C78.1309 30.3962 77.9095 30.6789 77.6254 30.8779C77.3413 31.0769 77.0072 31.1833 76.6653 31.1836C76.4382 31.1839 76.2132 31.1372 76.0032 31.0464C75.7932 30.9556 75.6024 30.8224 75.4417 30.6544C75.281 30.4864 75.1535 30.2869 75.0665 30.0673C74.9795 29.8476 74.9347 29.6123 74.9347 29.3745V29.3745ZM75.2309 43.924V32.4216H78.1214V43.924H75.2309Z" fill="#292929"/>
<path d="M80.0384 42.4228L81.2898 40.3038C82.0868 41.0891 83.7243 41.8709 85.0905 41.8709C86.3418 41.8709 86.9342 41.3485 86.9342 40.6329C86.9342 38.728 80.4028 40.2846 80.4028 35.7575C80.4028 33.8283 82.0186 32.1376 84.9091 32.1376C86.5164 32.1118 88.0833 32.6651 89.3471 33.7047L88.1822 35.7767C87.5166 35.0384 86.2703 34.4429 84.9274 34.4429C83.8807 34.4429 83.1984 34.9426 83.1984 35.5852C83.1984 37.3002 89.7065 35.8707 89.7065 40.5145C89.7065 42.6039 87.9992 44.2058 84.9507 44.2058C83.042 44.2041 81.1982 43.5424 80.0384 42.4228Z" fill="#292929"/>
<path d="M91.5536 29.3745C91.5536 29.0167 91.655 28.667 91.845 28.3695C92.0349 28.0719 92.305 27.8401 92.6209 27.7031C92.9368 27.5662 93.2844 27.5304 93.6198 27.6002C93.9552 27.67 94.2633 27.8423 94.5051 28.0953C94.7469 28.3483 94.9115 28.6707 94.9783 29.0216C95.045 29.3725 95.0107 29.7363 94.8799 30.0668C94.749 30.3974 94.5274 30.68 94.2431 30.8788C93.9587 31.0775 93.6245 31.1836 93.2825 31.1836C92.824 31.1836 92.3842 30.993 92.06 30.6538C91.7357 30.3145 91.5536 29.8543 91.5536 29.3745ZM91.8498 43.924V32.4216H94.7369V43.924H91.8498Z" fill="#292929"/>
<path d="M96.9001 38.1603C96.9001 34.8973 99.085 32.1357 102.704 32.1357C106.324 32.1357 108.528 34.8973 108.528 38.1603C108.528 41.4233 106.342 44.204 102.704 44.204C99.0667 44.204 96.9001 41.4477 96.9001 38.1603ZM105.525 38.1603C105.525 36.3738 104.5 34.8259 102.696 34.8259C100.892 34.8259 99.8954 36.3686 99.8954 38.1603C99.8954 39.952 100.894 41.5173 102.694 41.5173C104.495 41.5173 105.523 39.9711 105.523 38.1603H105.525Z" fill="#292929"/>
<path d="M118.09 43.9222V36.9696C118.09 35.3746 117.293 34.8262 116.065 34.8262C115.576 34.8327 115.096 34.959 114.663 35.1949C114.229 35.4307 113.855 35.7696 113.569 36.1843V43.9239H110.67V32.4198H113.561V33.9207C114.04 33.3502 114.633 32.8951 115.296 32.5867C115.96 32.2784 116.68 32.124 117.406 32.1343C119.819 32.1343 120.979 33.5638 120.979 35.8012V43.9222H118.09Z" fill="#292929"/>
<path d="M123.916 43.9242V28.041H127.148V40.9485H133.566V43.926L123.916 43.9242Z" fill="#292929"/>
<path d="M142.19 43.9228V42.7318C141.44 43.6598 140.142 44.2083 138.709 44.2083C136.957 44.2083 134.882 42.9703 134.882 40.3986C134.882 37.7084 136.954 36.6829 138.709 36.6829C140.165 36.6829 141.463 37.1826 142.19 38.088V36.5418C142.19 35.3752 141.235 34.6126 139.778 34.6126C138.58 34.6126 137.43 35.0996 136.569 35.9707L135.478 33.944C136.814 32.7474 138.522 32.1039 140.28 32.1349C142.776 32.1349 145.083 33.1796 145.083 36.4879V43.9175L142.19 43.9228ZM142.19 41.1612V39.7317C141.713 39.0648 140.803 38.7323 139.869 38.7323C138.731 38.7323 137.797 39.3521 137.797 40.4735C137.797 41.5443 138.731 42.1642 139.869 42.1642C140.803 42.1607 141.713 41.8281 142.19 41.1612Z" fill="#292929"/>
<path d="M147.95 43.9242V28.041H150.84V33.8984C151.236 33.3489 151.748 32.9035 152.337 32.5976C152.925 32.2917 153.574 32.1337 154.232 32.1363C157.03 32.1363 159.102 34.4225 159.102 38.1852C159.102 42.0159 157.009 44.2098 154.232 44.2098C153.575 44.2087 152.927 44.0492 152.339 43.7436C151.751 43.438 151.238 42.9945 150.84 42.4477V43.9242H147.95ZM153.311 41.5196C154.995 41.5196 156.11 40.1859 156.11 38.1852C156.11 36.1846 155 34.8282 153.311 34.8282C152.378 34.8282 151.314 35.3993 150.83 36.162V40.2346C151.314 40.9711 152.386 41.5196 153.311 41.5196Z" fill="#292929"/>
<path d="M160.33 42.4228L161.582 40.3038C162.379 41.0891 164.016 41.8709 165.382 41.8709C166.634 41.8709 167.226 41.3485 167.226 40.6329C167.226 38.728 160.695 40.2846 160.695 35.7575C160.695 33.8283 162.31 32.1376 165.201 32.1376C166.808 32.1118 168.375 32.6651 169.639 33.7047L168.474 35.7767C167.808 35.0384 166.562 34.4429 165.219 34.4429C164.173 34.4429 163.49 34.9426 163.49 35.5852C163.49 37.3002 170 35.8707 170 40.5145C170 42.6039 168.293 44.2058 165.244 44.2058C163.334 44.2041 161.49 43.5424 160.33 42.4228Z" fill="#292929"/>
<path d="M67.1935 57.2639V53.1947L65.5794 57.2639H65.185L63.5792 53.186V57.2639H62.659V51.7773H63.952L65.3764 55.3938L66.8092 51.7773H68.1121V57.2639H67.1935Z" fill="#575757"/>
<path d="M75.1011 57.2639L74.7217 56.2191H72.3172L71.9328 57.2639H70.8861L72.9378 51.7773H74.0877L76.1544 57.2639H75.1011ZM73.5103 52.7367L72.5651 55.3485H74.4538L73.5103 52.7367Z" fill="#575757"/>
<path d="M78.4292 54.5279C78.4292 52.8389 79.6339 51.6863 81.1848 51.6863C81.6101 51.6755 82.0304 51.7846 82.4016 52.0021C82.7728 52.2195 83.0813 52.5375 83.2948 52.9225L82.5077 53.3422C82.3716 53.101 82.1784 52.9008 81.9466 52.7607C81.7148 52.6207 81.4524 52.5457 81.1848 52.5429C80.1464 52.5429 79.3743 53.3752 79.3743 54.5279C79.3743 55.6806 80.1464 56.5129 81.1848 56.5129C81.4526 56.511 81.7153 56.4363 81.9472 56.2962C82.1791 56.1561 82.3723 55.9554 82.5077 55.7137L83.2948 56.1333C83.0801 56.5172 82.7714 56.8342 82.4004 57.0516C82.0295 57.2689 81.6098 57.3787 81.1848 57.3695C79.6306 57.3695 78.4292 56.2186 78.4292 54.5279Z" fill="#575757"/>
<path d="M89.8861 57.2639V54.8749H87.1537V57.2639H86.2335V51.7773H87.1537V54.0252H89.8845V51.7773H90.8047V57.2639H89.8861Z" fill="#575757"/>
<path d="M94.1278 57.2639V51.7773H95.048V57.2639H94.1278Z" fill="#575757"/>
<path d="M102.03 57.2639L99.2913 53.3427V57.2639H98.3711V51.7773H99.3163L102 55.5906V51.7773H102.922V57.2639H102.03Z" fill="#575757"/>
<path d="M106.242 57.2639V51.7773H109.84V52.6253H107.162V54.0496H109.783V54.8976H107.162V56.4211H109.838V57.2639H106.242Z" fill="#575757"/>
<path d="M112.649 56.498L113.159 55.7562C113.372 55.9955 113.63 56.1863 113.916 56.3167C114.202 56.447 114.511 56.5141 114.824 56.5136C115.579 56.5136 115.879 56.1271 115.879 55.7649C115.879 54.6123 112.817 55.3279 112.817 53.3029C112.817 52.3975 113.58 51.6975 114.729 51.6975C115.089 51.6827 115.448 51.7428 115.786 51.8743C116.124 52.0058 116.434 52.2061 116.697 52.4636L116.17 53.181C115.762 52.7703 115.216 52.5455 114.65 52.5559C114.108 52.5559 113.762 52.8275 113.762 53.2402C113.762 54.2623 116.815 53.6267 116.815 55.6779C116.815 56.592 116.201 57.3738 114.785 57.3738C113.813 57.3703 113.113 57.0169 112.649 56.498Z" fill="#575757"/>
<path d="M123.858 54.5279C123.858 52.8389 125.062 51.6863 126.613 51.6863C127.039 51.6755 127.459 51.7846 127.83 52.0021C128.201 52.2195 128.51 52.5375 128.723 52.9225L127.936 53.3422C127.8 53.101 127.607 52.9008 127.375 52.7607C127.143 52.6207 126.881 52.5457 126.613 52.5429C125.575 52.5429 124.803 53.3752 124.803 54.5279C124.803 55.6806 125.575 56.5129 126.613 56.5129C126.881 56.511 127.144 56.4363 127.376 56.2962C127.608 56.1561 127.801 55.9554 127.936 55.7137L128.723 56.1333C128.509 56.5172 128.2 56.8342 127.829 57.0516C127.458 57.2689 127.038 57.3787 126.613 57.3695C125.061 57.3695 123.858 56.2186 123.858 54.5279Z" fill="#575757"/>
<path d="M135.301 57.264L134.915 56.2193H132.511L132.125 57.264H131.078L133.14 51.7705H134.29L136.338 57.264H135.301ZM133.712 52.7369L132.767 55.3487H134.656L133.712 52.7369Z" fill="#575757"/>
<path d="M142.786 57.2639L140.047 53.3427V57.2639H139.127V51.7773H140.072L142.756 55.5906V51.7773H143.676V57.2639H142.786Z" fill="#575757"/>
<path d="M150.885 56.498L151.396 55.7562C151.609 55.9955 151.866 56.1863 152.152 56.3167C152.439 56.447 152.748 56.5141 153.06 56.5136C153.815 56.5136 154.115 56.1271 154.115 55.7649C154.115 54.6123 151.053 55.3279 151.053 53.3029C151.053 52.3975 151.817 51.6975 152.965 51.6975C153.325 51.6827 153.685 51.7428 154.023 51.8743C154.361 52.0058 154.67 52.2061 154.934 52.4636L154.406 53.181C153.999 52.7703 153.452 52.5455 152.887 52.5559C152.344 52.5559 151.998 52.8275 151.998 53.2402C151.998 54.2623 155.052 53.6267 155.052 55.6779C155.052 56.592 154.438 57.3738 153.022 57.3738C152.05 57.3703 151.349 57.0169 150.885 56.498Z" fill="#575757"/>
<path d="M158.104 57.2639V51.7773H161.701V52.6253H159.024V54.0496H161.645V54.8976H159.024V56.4211H161.7V57.2639H158.104Z" fill="#575757"/>
<path d="M164.848 57.2639V51.7773H168.454V52.6253H165.77V54.0496H168.391V54.8976H165.77V56.4211H168.454V57.2639H164.848Z" fill="#575757"/>
<path d="M46.2732 41.8464C46.2732 48.3291 43.8121 54.5463 39.4312 59.1302C35.0504 63.7141 29.1088 66.2894 22.9133 66.2894C16.7179 66.2894 10.7762 63.7141 6.39541 59.1302C2.01459 54.5463 -0.446533 48.3291 -0.446533 41.8464C-0.445728 41.8431 -0.444064 41.84 -0.44172 41.8376C-0.439375 41.8351 -0.436437 41.8334 -0.433221 41.8325C2.47013 38.4357 6.01999 35.7113 9.98862 33.8343C13.9573 31.9572 18.257 30.9689 22.6121 30.9326C19.9057 31.0203 17.3381 32.2069 15.4533 34.2412C13.5684 36.2754 12.5144 38.9974 12.5144 41.8308C12.5144 44.6641 13.5684 47.3861 15.4533 49.4204C17.3381 51.4546 19.9057 52.6412 22.6121 52.7289H23.2145C27.5693 52.6912 31.8686 51.7026 35.8372 49.8262C39.8059 47.9499 43.3564 45.2273 46.2615 41.8325C46.2615 41.8325 46.2699 41.8395 46.2732 41.8464Z" fill="url(#paint0_linear_313_4404)"/>
<path d="M46.2732 41.8148L46.2616 41.8322C43.3572 45.228 39.8072 47.9518 35.8389 49.8293C31.8705 51.7069 27.5712 52.6967 23.2162 52.7356C25.9227 52.6479 28.4903 51.4612 30.3751 49.427C32.2599 47.3928 33.314 44.6707 33.314 41.8374C33.314 39.0041 32.2599 36.282 30.3751 34.2478C28.4903 32.2136 25.9227 31.0269 23.2162 30.9392H22.6138C18.26 30.9753 13.9613 31.9627 9.99341 33.8382C6.02548 35.7137 2.47577 38.4359 -0.428216 41.8304L-0.441528 41.813C-0.389529 35.3668 2.09424 29.2031 6.46895 24.664C10.8437 20.1249 16.755 17.5781 22.9158 17.5781C29.0767 17.5781 34.988 20.1249 39.3627 24.664C43.7375 29.2031 46.2212 35.3668 46.2732 41.813V41.8148Z" fill="url(#paint1_linear_313_4404)"/>
<path d="M20.8532 31.1451C21.672 31.0058 22.2361 30.9571 22.474 30.9414C21.9294 30.964 21.3874 31.0321 20.8532 31.1451V31.1451Z" fill="url(#paint2_radial_313_4404)"/>
<path d="M21.5189 31.0212C21.6087 31.0108 21.8716 30.9759 22.1146 30.9568C22.3575 30.9376 22.6022 30.9307 22.6022 30.9307C19.1086 30.9671 15.6451 31.6108 12.3533 32.8355C4.11961 35.9053 -0.44653 41.8428 -0.44653 41.8428C-0.539717 45.6629 0.819808 49.8122 0.819808 49.8122C1.79345 52.6877 3.25518 55.3556 5.13468 57.6877C5.13468 57.6877 10.4779 43.4795 13.41 37.3348C13.9275 36.2605 15.1123 33.7566 18.1908 32.1112C19.2329 31.5527 20.3584 31.1841 21.5189 31.0212V31.0212Z" fill="url(#paint3_linear_313_4404)"/>
</g>
<defs>
<linearGradient id="paint0_linear_313_4404" x1="-0.441541" y1="48.5065" x2="46.2732" y2="48.5065" gradientUnits="userSpaceOnUse">
<stop stop-color="#8A3D79"/>
<stop offset="0.25" stop-color="#824E88"/>
<stop offset="0.61" stop-color="#3A97BA"/>
<stop offset="0.74" stop-color="#2AB2C7"/>
<stop offset="1" stop-color="#7EE8FC"/>
</linearGradient>
<linearGradient id="paint1_linear_313_4404" x1="-0.441528" y1="35.1564" x2="39.1428" y2="35.1564" gradientUnits="userSpaceOnUse">
<stop stop-color="#B81F68"/>
<stop offset="0.25" stop-color="#ED1F55"/>
<stop offset="0.5" stop-color="#FC4844"/>
<stop offset="0.75" stop-color="#FC972B"/>
<stop offset="1" stop-color="#FBC325"/>
</linearGradient>
<radialGradient id="paint2_radial_313_4404" cx="0" cy="0" r="1" gradientUnits="userSpaceOnUse" gradientTransform="translate(5.4841 37.3559) scale(15.3691 16.0816)">
<stop stop-color="#70025A"/>
<stop offset="1" stop-color="#070606" stop-opacity="0"/>
</radialGradient>
<linearGradient id="paint3_linear_313_4404" x1="18.0959" y1="48.4628" x2="-1.33153" y2="31.0019" gradientUnits="userSpaceOnUse">
<stop offset="0.37" stop-color="#5C2350" stop-opacity="0"/>
<stop offset="0.68" stop-color="#4F1744" stop-opacity="0.9"/>
</linearGradient>
<clipPath id="clip0_313_4404">
<rect width="170" height="75" fill="white"/>
</clipPath>
</defs>
</svg>
