<svg width="201" height="75" viewBox="0 0 201 75" fill="none" xmlns="http://www.w3.org/2000/svg">
<g clip-path="url(#clip0_313_4337)">
<path d="M51.9688 20.959L48.6906 25.4252L41.6605 25.4077L26.0732 47.1897L10.6509 27.1245L9.33966 25.4252H5.60887L23.4084 48.5796L24.1951 49.6036L21.5683 52.9979L21.4245 53.1809L21.2849 52.9979L17.9052 48.6101L0 25.3772L3.15975 20.959H11.3785L11.5054 21.1246L14.9062 25.5385L25.8998 39.7954L36.0981 25.5472L36.2039 25.399L38.6318 22.0614L39.4228 20.9808L39.4355 20.959H51.9688Z" fill="url(#paint0_linear_313_4337)"/>
<path d="M44.4352 50.2049L63.271 25.4252H58.8212L36.4026 54.7408L35.7977 55.5338H57.7256L54.1979 60H26.7076L26.8345 59.8344L28.8691 57.2157L28.8734 57.2201L29.5755 56.305L38.0269 45.316L56.4947 20.959H65.3945L65.7032 21.386L68.6261 25.4644L68.6177 25.4775L49.7818 50.2049H44.4352Z" fill="url(#paint1_linear_313_4337)"/>
<path d="M29.5756 56.3047L28.8734 57.2197L28.8692 57.2154L29.5756 56.3047Z" fill="url(#paint2_linear_313_4337)"/>
<path fill-rule="evenodd" clip-rule="evenodd" d="M116.572 50.8007C115.68 50.3214 114.935 49.6025 114.415 48.7223C113.907 47.8204 113.637 46.7921 113.637 45.7507C113.637 44.7093 113.907 43.6853 114.415 42.779C114.935 41.8989 115.68 41.1799 116.572 40.705C117.532 40.2082 118.59 39.9512 119.664 39.9512C120.735 39.9512 121.792 40.2082 122.752 40.705C123.649 41.193 124.402 41.9207 124.922 42.8095C125.447 43.6984 125.722 44.7137 125.722 45.7507C125.722 46.7877 125.447 47.803 124.922 48.6918C124.402 49.5807 123.649 50.3084 122.752 50.8007C121.792 51.2931 120.735 51.5502 119.664 51.5502C118.59 51.5502 117.532 51.2931 116.572 50.8007ZM121.428 48.8836C121.949 48.5829 122.376 48.1385 122.663 47.6069C122.959 47.0317 123.112 46.3956 123.112 45.7463C123.112 45.0971 122.959 44.4609 122.663 43.8858C122.376 43.3542 121.949 42.9141 121.428 42.6135C120.887 42.3128 120.282 42.1559 119.664 42.1559C119.051 42.1559 118.446 42.3128 117.905 42.6135C117.38 42.9141 116.953 43.3629 116.67 43.8988C116.373 44.474 116.221 45.1102 116.221 45.755C116.221 46.4043 116.373 47.0404 116.67 47.6156C116.957 48.1472 117.384 48.5916 117.905 48.8879C118.446 49.1886 119.051 49.3454 119.664 49.3454C120.282 49.3454 120.887 49.1886 121.428 48.8879V48.8836ZM88.3714 40.1429L83.6001 51.3585H81.0791L76.3289 40.1429H79.0825L82.4326 48.1559L85.8293 40.1429H88.3714ZM92.4237 40.1429H94.9743V51.3585H92.4237V40.1429ZM109.656 51.3585V49.2452H103.396L109.424 41.8248V40.1429H100.152V42.2562H106.069L100.025 49.6766V51.3585H109.656ZM135.653 48.2343L137.777 51.3585H140.518L138.048 47.7507C138.737 47.4718 139.329 46.9838 139.735 46.3476C140.141 45.7158 140.344 44.9664 140.315 44.2082C140.34 43.4544 140.141 42.705 139.744 42.0644C139.342 41.4283 138.758 40.9272 138.069 40.6353C137.354 40.3085 136.504 40.1429 135.527 40.1429H130.764V51.3585H133.31V48.2343H135.653ZM135.387 42.2562C136.153 42.2562 136.732 42.4261 137.134 42.7616C137.532 43.0971 137.73 43.5808 137.73 44.2126C137.73 44.8313 137.532 45.315 137.134 45.6548C136.732 45.999 136.153 46.169 135.387 46.169H133.31V42.2562H135.387ZM145.475 40.1429H148.022V49.2452H153.546V51.3585H145.471L145.475 40.1429ZM160.36 48.9533H165.474L166.46 51.3585H169.129L164.205 40.1429H161.684L156.778 51.3585H159.392L160.36 48.9533ZM162.924 42.6832L164.675 46.9794L161.177 46.9881L162.924 42.6832ZM182.99 46.5437C183.358 47.0491 183.545 47.6679 183.523 48.2997C183.523 49.2801 183.151 50.0382 182.402 50.5655C181.65 51.097 180.558 51.3585 179.124 51.3585H173.422V40.1429H178.803C180.148 40.1429 181.176 40.4043 181.895 40.9272C182.238 41.1625 182.517 41.4806 182.703 41.8509C182.893 42.2257 182.982 42.6396 182.974 43.0579C182.986 43.5721 182.851 44.0731 182.593 44.5132C182.335 44.9489 181.958 45.3019 181.51 45.5285C182.094 45.7028 182.614 46.0557 182.99 46.5437ZM175.952 42.0949V44.7398H178.486C179.116 44.7398 179.594 44.6265 179.92 44.4043C180.076 44.2954 180.203 44.1472 180.288 43.9729C180.372 43.7986 180.414 43.6069 180.402 43.4152C180.414 43.2191 180.376 43.0274 180.288 42.8531C180.203 42.6788 180.076 42.535 179.92 42.4261C179.594 42.2082 179.116 42.0993 178.486 42.0993L175.952 42.0949ZM180.444 49.0666C180.782 48.84 180.952 48.4958 180.952 48.0252C180.952 47.0927 180.275 46.6308 178.921 46.6308H175.948V49.4021H178.921C179.598 49.4021 180.106 49.2931 180.448 49.0666H180.444ZM187.741 50.2517C188.24 50.6352 188.891 50.9489 189.699 51.1885C190.524 51.4282 191.378 51.5502 192.237 51.5458C193.244 51.5458 194.098 51.3933 194.8 51.084C195.503 50.7702 196.027 50.3519 196.378 49.8247C196.725 49.3062 196.911 48.6962 196.907 48.0687C196.907 47.3237 196.712 46.7267 196.332 46.291C195.955 45.8596 195.486 45.5285 194.953 45.328C194.28 45.084 193.591 44.8836 192.893 44.718C192.275 44.6004 191.67 44.413 191.091 44.169C190.697 43.9816 190.499 43.6941 190.499 43.3106C190.499 43.1233 190.545 42.9403 190.634 42.7747C190.723 42.6135 190.854 42.4784 191.01 42.3825C191.349 42.1472 191.873 42.0296 192.588 42.0296C193.608 42.0296 194.627 42.3215 195.642 42.9098L196.425 40.949C195.879 40.6091 195.283 40.3608 194.661 40.2083C193.988 40.0383 193.295 39.9512 192.601 39.9512C191.59 39.9512 190.74 40.108 190.042 40.4174C189.344 40.7268 188.823 41.1451 188.477 41.6766C188.134 42.1995 187.952 42.8182 187.956 43.4457C187.956 44.1951 188.151 44.7921 188.532 45.2409C188.904 45.681 189.378 46.0165 189.911 46.2213C190.587 46.4653 191.273 46.6657 191.975 46.8269C192.516 46.9576 192.948 47.0753 193.273 47.1799C193.557 47.2714 193.823 47.4152 194.06 47.6069C194.157 47.6853 194.234 47.7855 194.289 47.8988C194.339 48.0121 194.369 48.1385 194.369 48.2648C194.365 48.6265 194.191 48.9184 193.849 49.1363C193.506 49.3541 192.969 49.4674 192.241 49.4674C191.581 49.4631 190.922 49.3541 190.291 49.145C189.691 48.9576 189.12 48.67 188.608 48.2953L187.741 50.2517Z" fill="#292A2E"/>
<path d="M78.9176 29.917H76.1301V34.2437H76.7307L76.7265 30.4529H78.9133L78.9176 29.917Z" fill="#292A2E"/>
<path d="M82.8175 29.917H81.1594V34.2437H81.7685V32.9322H82.8175C83.9216 32.9322 84.5899 32.3658 84.5899 31.4246C84.5899 30.4834 83.9216 29.917 82.8175 29.917ZM82.8006 32.3963H81.7685V30.4529H82.8006C83.5747 30.4529 83.985 30.8059 83.985 31.4246C83.985 32.0433 83.5747 32.3963 82.8006 32.3963Z" fill="#292A2E"/>
<path d="M89.7377 29.917L88.3207 32.6621L86.9417 29.917H86.2946L88.0077 33.198L87.9104 33.3549C87.72 33.6642 87.4959 33.7862 87.2463 33.7862C87.1194 33.7862 86.984 33.7557 86.8444 33.7078L86.6879 34.2002C86.8825 34.2873 87.0771 34.3309 87.259 34.3309C87.72 34.3309 88.1473 34.0651 88.4476 33.4856L90.3383 29.917H89.7377Z" fill="#292A2E"/>
<path d="M92.4871 29.917V34.2437H93.0878V30.4529H95.5538V34.2437H96.146V29.917H92.4871Z" fill="#292A2E"/>
<path d="M98.9885 29.917V34.2437H99.5892V30.4529H102.055V34.2437H102.652V29.917H98.9885Z" fill="#292A2E"/>
<path d="M108.726 34.2437H109.36L107.431 29.917H106.831L104.906 34.2437H105.532L105.998 33.1631H108.256L108.726 34.2437ZM106.209 32.6664L107.127 30.5488L108.045 32.6664H106.209Z" fill="#292A2E"/>
<path d="M117.621 34.2437H118.315L116.725 32.0128L118.243 29.917H117.592L116.255 31.795H115.358V29.917H114.762V34.2437H115.358V32.3396H116.242L117.621 34.2437Z" fill="#292A2E"/>
<path d="M122.355 34.2927C123.649 34.2927 124.609 33.3559 124.609 32.0836C124.609 30.8069 123.649 29.8701 122.355 29.8701C121.052 29.8701 120.092 30.8156 120.092 32.0836C120.092 33.3472 121.052 34.2927 122.355 34.2927ZM122.355 33.7437C121.403 33.7437 120.696 33.0378 120.696 32.0836C120.696 31.125 121.403 30.4191 122.355 30.4191C123.298 30.4191 124 31.125 124 32.0836C124 33.0378 123.298 33.7437 122.355 33.7437Z" fill="#292A2E"/>
<path d="M131.631 34.2437L131.627 29.917H131.127L129.376 32.9584L127.604 29.917H127.109V34.2437H127.689V31.1109L129.228 33.7209H129.507L131.043 31.0891L131.047 34.2437H131.631Z" fill="#292A2E"/>
<path d="M134.473 29.917V34.2437H135.074V30.4529H137.54V34.2437H138.132V29.917H134.473Z" fill="#292A2E"/>
<path d="M144.206 34.2437H144.845L142.912 29.917H142.311L140.387 34.2437H141.013L141.482 33.1631H143.741L144.206 34.2437ZM141.694 32.6664L142.612 30.5488L143.525 32.6664H141.694Z" fill="#292A2E"/>
<path d="M150.145 29.917V31.7775H147.705V29.917H147.095V34.2437H147.705V32.3135H150.145V34.2437H150.75V29.917H150.145Z" fill="#292A2E"/>
<path d="M153.593 34.2437H154.155L156.672 30.9104V34.2437H157.268V29.917H156.71L154.197 33.2547V29.917H153.593V34.2437Z" fill="#292A2E"/>
<path d="M161.938 29.6139C162.594 29.6139 162.97 29.3045 162.979 28.7686H162.552C162.539 29.091 162.302 29.274 161.938 29.274C161.562 29.274 161.333 29.091 161.325 28.7686H160.893C160.902 29.3045 161.27 29.6139 161.938 29.6139ZM160.111 34.2456H160.669L163.19 30.9123V34.2456H163.782V29.9189H163.228L160.711 33.2565V29.9189H160.111V34.2456Z" fill="#292A2E"/>
<path d="M171.675 34.2927C172.34 34.2927 172.911 34.0618 173.3 33.613L172.902 33.2252C172.576 33.5781 172.175 33.7437 171.709 33.7437C170.749 33.7437 170.038 33.0378 170.038 32.0836C170.038 31.125 170.749 30.4191 171.709 30.4191C172.175 30.4191 172.576 30.5804 172.902 30.9333L173.3 30.5411C172.911 30.0967 172.34 29.8701 171.684 29.8701C170.39 29.8701 169.429 30.8026 169.429 32.0836C169.429 33.3603 170.39 34.2927 171.675 34.2927Z" fill="#292A2E"/>
<path d="M178.782 34.2437H179.42L177.487 29.917H176.887L174.962 34.2437H175.588L176.058 33.1631H178.316L178.782 34.2437ZM176.269 32.6664L177.187 30.5488L178.101 32.6664H176.269Z" fill="#292A2E"/>
<path d="M184.378 29.917H180.875V30.4529H182.326V34.2437H182.919V30.4529H184.378V29.917Z" fill="#292A2E"/>
<path d="M187.242 33.7078V32.3091H189.373V31.7819H187.242V30.4529H189.631V29.917H186.632V34.2437H189.72V33.7078H187.242Z" fill="#292A2E"/>
<path d="M192.669 29.917L192.601 31.7383C192.554 33.0804 192.372 33.7209 191.844 33.7209C191.776 33.7209 191.721 33.7122 191.649 33.6947L191.607 34.2437C191.755 34.283 191.869 34.2917 191.988 34.2917C192.829 34.2917 193.087 33.442 193.142 31.7209L193.185 30.4529H195.067V34.2437H195.663V29.917H192.669Z" fill="#292A2E"/>
</g>
<defs>
<linearGradient id="paint0_linear_313_4337" x1="50.3213" y1="58.5581" x2="19.1881" y2="14.892" gradientUnits="userSpaceOnUse">
<stop offset="0.16" stop-color="#E01723"/>
<stop offset="0.34" stop-color="#B71419"/>
<stop offset="0.7" stop-color="#6E1417"/>
<stop offset="1" stop-color="#531417"/>
</linearGradient>
<linearGradient id="paint1_linear_313_4337" x1="20817.1" y1="14037.5" x2="14629.3" y2="2262.32" gradientUnits="userSpaceOnUse">
<stop offset="0.16" stop-color="#E01723"/>
<stop offset="0.34" stop-color="#B71419"/>
<stop offset="0.7" stop-color="#6E1417"/>
<stop offset="1" stop-color="#531417"/>
</linearGradient>
<linearGradient id="paint2_linear_313_4337" x1="198.789" y1="321.071" x2="199.55" y2="321.606" gradientUnits="userSpaceOnUse">
<stop offset="0.16" stop-color="#E01723"/>
<stop offset="0.34" stop-color="#B71419"/>
<stop offset="0.7" stop-color="#6E1417"/>
<stop offset="1" stop-color="#531417"/>
</linearGradient>
<clipPath id="clip0_313_4337">
<rect width="201" height="75" fill="white"/>
</clipPath>
</defs>
</svg>
