<svg width="245" height="70" viewBox="0 0 245 70" fill="none" xmlns="http://www.w3.org/2000/svg">
<g filter="url(#filter0_d_312_4139)">
<path d="M5.34546 22.3715C5.34546 21.2126 5.91903 20.1289 6.87725 19.4773L27.7973 5.25037C28.3778 4.85562 29.0635 4.64453 29.7655 4.64453H236.154C238.087 4.64453 239.654 6.21153 239.654 8.14453V46.8684C239.654 48.017 239.091 49.0925 238.146 49.7462L217.208 64.2397C216.623 64.6449 215.928 64.8619 215.216 64.8619H8.84545C6.91246 64.8619 5.34546 63.2949 5.34546 61.3619V22.3715Z" stroke="#FF8B60" shape-rendering="crispEdges"/>
</g>
<path d="M168.896 2.29004H237.077C239.286 2.29004 241.077 4.0809 241.077 6.29004V20.1261H172.896C170.687 20.1261 168.896 18.3352 168.896 16.1261V2.29004Z" fill="#3F5168"/>
<path d="M4.84546 47.8457H73.0267C75.2358 47.8457 77.0267 49.6366 77.0267 51.8457V65.6818H8.84546C6.63632 65.6818 4.84546 63.8909 4.84546 61.6818V47.8457Z" fill="#3F5168"/>
<path d="M12.3049 25.349C12.3049 25.0118 12.4748 24.6974 12.7568 24.5126L32.1528 11.8013L31.6095 10.9722L32.1528 11.8013C32.3157 11.6946 32.5062 11.6377 32.701 11.6377H231.695C232.247 11.6377 232.695 12.0854 232.695 12.6377V44.1583C232.695 44.4955 232.525 44.8099 232.243 44.9947L212.847 57.706L213.395 58.5424L212.847 57.706C212.684 57.8127 212.494 57.8696 212.299 57.8696H13.3049C12.7526 57.8696 12.3049 57.4219 12.3049 56.8696V25.349Z" fill="#FF8B60" stroke="#FF8B60" stroke-width="2"/>
<path d="M65.7631 33.865C66.4831 34.0517 67.1097 34.365 67.6431 34.805C68.1764 35.245 68.6431 35.845 69.0431 36.605L71.1631 40.665H69.2231L67.3231 37.145C66.9497 36.465 66.5697 35.9517 66.1831 35.605C65.7964 35.245 65.3431 34.9984 64.8231 34.865C64.3164 34.7184 63.6697 34.645 62.8831 34.645V40.665H60.9231V27.685H62.8831V33.285C63.6831 33.285 64.3031 33.2117 64.7431 33.065C65.1831 32.905 65.5831 32.565 65.9431 32.045L69.0431 27.685H71.1631L67.4631 32.545C66.9697 33.185 66.4031 33.625 65.7631 33.865ZM77.6613 30.985H85.8413V40.665H84.0413V32.305H79.4613V40.665H77.6613V30.985ZM93.1843 40.865C92.331 40.865 91.691 40.8317 91.2643 40.765C90.8376 40.7117 90.411 40.585 89.9843 40.385C89.5443 40.185 89.2243 39.865 89.0243 39.425C88.8243 38.9717 88.7243 38.365 88.7243 37.605V34.245C88.7243 33.645 88.7976 33.1184 88.9443 32.665C89.091 32.2117 89.2843 31.8584 89.5243 31.605C89.7243 31.3784 90.0243 31.205 90.4243 31.085C90.8376 30.9517 91.2576 30.865 91.6843 30.825C92.1643 30.7984 92.6643 30.785 93.1843 30.785C93.8776 30.785 94.3976 30.805 94.7443 30.845C95.1043 30.8717 95.4843 30.9384 95.8843 31.045C96.2976 31.165 96.6176 31.345 96.8443 31.585C97.071 31.825 97.2643 32.1717 97.4243 32.625C97.571 33.0917 97.6443 33.6317 97.6443 34.245V37.605C97.6443 38.7384 97.3843 39.565 96.8643 40.085C96.651 40.2984 96.3443 40.465 95.9443 40.585C95.5443 40.705 95.131 40.785 94.7043 40.825C94.1976 40.8517 93.691 40.865 93.1843 40.865ZM93.1843 39.685C93.7443 39.685 94.151 39.6717 94.4043 39.645C94.6576 39.6184 94.9043 39.545 95.1443 39.425C95.3843 39.3184 95.551 39.145 95.6443 38.905C95.751 38.6517 95.8043 38.305 95.8043 37.865V33.945C95.8043 33.345 95.731 32.9117 95.5843 32.645C95.4376 32.365 95.1843 32.185 94.8243 32.105C94.4776 32.0117 93.931 31.965 93.1843 31.965C92.4376 31.965 91.8843 32.0117 91.5243 32.105C91.1776 32.185 90.931 32.365 90.7843 32.645C90.6376 32.9117 90.5643 33.345 90.5643 33.945V37.865C90.5643 38.305 90.611 38.6517 90.7043 38.905C90.811 39.145 90.9843 39.3184 91.2243 39.425C91.4643 39.545 91.711 39.6184 91.9643 39.645C92.2176 39.6717 92.6243 39.685 93.1843 39.685ZM104.351 40.865C103.685 40.865 103.198 40.8517 102.891 40.825C102.598 40.7984 102.258 40.7317 101.871 40.625C101.458 40.5184 101.138 40.3584 100.911 40.145C100.685 39.9317 100.491 39.6184 100.331 39.205C100.171 38.805 100.091 38.305 100.091 37.705V34.145C100.091 33.065 100.298 32.2917 100.711 31.825C100.938 31.5584 101.165 31.3584 101.391 31.225C101.631 31.0784 101.938 30.9784 102.311 30.925C102.685 30.8717 103.018 30.8384 103.311 30.825C103.605 30.7984 104.018 30.785 104.551 30.785C105.471 30.785 106.391 30.885 107.311 31.085V32.405C106.245 32.1384 105.251 32.005 104.331 32.005C103.638 32.005 103.125 32.0584 102.791 32.165C102.471 32.2584 102.245 32.4384 102.111 32.705C101.991 32.9584 101.931 33.3517 101.931 33.885V37.845C101.931 38.3384 101.998 38.705 102.131 38.945C102.278 39.185 102.531 39.3584 102.891 39.465C103.265 39.5584 103.811 39.605 104.531 39.605C105.505 39.605 106.478 39.4784 107.451 39.225V40.585C106.545 40.7717 105.511 40.865 104.351 40.865ZM109.349 40.685C109.149 40.685 108.956 40.665 108.769 40.625V39.085C108.956 39.125 109.142 39.145 109.329 39.145C109.902 39.145 110.356 38.7317 110.689 37.905C111.036 37.065 111.209 35.5184 111.209 33.265V30.985H117.789V40.665H115.989V32.165H112.809V33.565C112.809 35.765 112.549 37.505 112.029 38.785C111.509 40.0517 110.616 40.685 109.349 40.685ZM124.981 40.865C122.021 40.865 120.541 39.8784 120.541 37.905V34.085C120.541 32.9117 120.874 32.0717 121.541 31.565C122.221 31.045 123.314 30.785 124.821 30.785C126.247 30.785 127.274 31.0317 127.901 31.525C128.541 32.0184 128.861 32.8717 128.861 34.085V36.225H122.361V37.685C122.361 38.3517 122.594 38.8317 123.061 39.125C123.527 39.4184 124.247 39.565 125.221 39.565C126.141 39.565 127.227 39.405 128.481 39.085V40.465C127.254 40.7317 126.087 40.865 124.981 40.865ZM127.061 35.045V33.525C127.061 32.9384 126.881 32.5384 126.521 32.325C126.174 32.0984 125.574 31.985 124.721 31.985C123.894 31.985 123.294 32.0984 122.921 32.325C122.547 32.5384 122.361 32.9384 122.361 33.525V35.045H127.061ZM140.784 39.485V43.345H139.244V40.665H131.784V43.345H130.244V39.485H130.864C131.157 39.485 131.444 39.265 131.724 38.825C132.004 38.3717 132.237 37.6517 132.424 36.665C132.611 35.665 132.704 34.3984 132.704 32.865V30.985H139.424V39.485H140.784ZM137.624 39.485V32.165H134.284V33.565C134.284 34.9517 134.191 36.145 134.004 37.145C133.831 38.1317 133.504 38.9117 133.024 39.485H137.624ZM142.951 30.985H144.751V35.005H149.511V30.985H151.311V40.665H149.511V36.325H144.751V40.665H142.951V30.985ZM158.516 40.865C155.556 40.865 154.076 39.8784 154.076 37.905V34.085C154.076 32.9117 154.409 32.0717 155.076 31.565C155.756 31.045 156.849 30.785 158.356 30.785C159.783 30.785 160.809 31.0317 161.436 31.525C162.076 32.0184 162.396 32.8717 162.396 34.085V36.225H155.896V37.685C155.896 38.3517 156.129 38.8317 156.596 39.125C157.063 39.4184 157.783 39.565 158.756 39.565C159.676 39.565 160.763 39.405 162.016 39.085V40.465C160.789 40.7317 159.623 40.865 158.516 40.865ZM160.596 35.045V33.525C160.596 32.9384 160.416 32.5384 160.056 32.325C159.709 32.0984 159.109 31.985 158.256 31.985C157.429 31.985 156.829 32.0984 156.456 32.325C156.083 32.5384 155.896 32.9384 155.896 33.525V35.045H160.596ZM165.259 30.985H168.159L171.099 38.865H171.179L173.919 30.985H176.719V40.665H175.059V32.625H174.959L171.979 40.665H170.159L167.059 32.625H166.959V40.665H165.259V30.985ZM182.263 40.805L178.523 30.985H180.483L183.183 38.885H183.223L185.663 30.985H187.483L182.623 44.825H180.743L182.263 40.805Z" fill="white"/>
<defs>
<filter id="filter0_d_312_4139" x="0.845459" y="0.144531" width="243.309" height="69.2178" filterUnits="userSpaceOnUse" color-interpolation-filters="sRGB">
<feFlood flood-opacity="0" result="BackgroundImageFix"/>
<feColorMatrix in="SourceAlpha" type="matrix" values="0 0 0 0 0 0 0 0 0 0 0 0 0 0 0 0 0 0 127 0" result="hardAlpha"/>
<feOffset/>
<feGaussianBlur stdDeviation="2"/>
<feComposite in2="hardAlpha" operator="out"/>
<feColorMatrix type="matrix" values="0 0 0 0 1 0 0 0 0 0.882689 0 0 0 0 0.608333 0 0 0 0.25 0"/>
<feBlend mode="normal" in2="BackgroundImageFix" result="effect1_dropShadow_312_4139"/>
<feBlend mode="normal" in="SourceGraphic" in2="effect1_dropShadow_312_4139" result="shape"/>
</filter>
</defs>
</svg>
