<svg width="245" height="70" viewBox="0 0 245 70" fill="none" xmlns="http://www.w3.org/2000/svg">
<g filter="url(#filter0_d_312_4158)">
<path d="M5.3457 22.3715C5.3457 21.2126 5.91927 20.1289 6.8775 19.4773L27.7976 5.25037C28.378 4.85562 29.0638 4.64453 29.7658 4.64453H236.155C238.088 4.64453 239.655 6.21153 239.655 8.14453V46.8684C239.655 48.017 239.091 49.0925 238.147 49.7462L217.208 64.2397C216.623 64.6449 215.928 64.8619 215.216 64.8619H8.8457C6.9127 64.8619 5.3457 63.2949 5.3457 61.3619V22.3715Z" stroke="#FF8B60" shape-rendering="crispEdges"/>
</g>
<path d="M168.896 2.29004H237.077C239.286 2.29004 241.077 4.0809 241.077 6.29004V20.1261H172.896C170.687 20.1261 168.896 18.3352 168.896 16.1261V2.29004Z" fill="#3F5168"/>
<path d="M4.8457 47.8457H73.0269C75.2361 47.8457 77.0269 49.6366 77.0269 51.8457V65.6818H8.84571C6.63657 65.6818 4.8457 63.8909 4.8457 61.6818V47.8457Z" fill="#3F5168"/>
<path d="M12.3052 25.349C12.3052 25.0118 12.4751 24.6974 12.757 24.5126L32.1531 11.8013L31.6097 10.9722L32.1531 11.8013C32.316 11.6946 32.5065 11.6377 32.7012 11.6377H231.695C232.247 11.6377 232.695 12.0854 232.695 12.6377V44.1583C232.695 44.4955 232.525 44.8099 232.243 44.9947L212.847 57.706L213.395 58.5424L212.847 57.706C212.684 57.8127 212.494 57.8696 212.299 57.8696H13.3052C12.7529 57.8696 12.3052 57.4219 12.3052 56.8696V25.349Z" fill="#FF8B60" stroke="#FF8B60" stroke-width="2"/>
<path d="M32.4963 40.865C31.1097 40.865 29.7163 40.7384 28.3163 40.485V39.005C29.903 39.3384 31.2297 39.505 32.2963 39.505C33.2963 39.505 34.0563 39.405 34.5763 39.205C35.0963 38.9917 35.3563 38.5917 35.3563 38.005V35.825C35.3563 34.9984 34.463 34.585 32.6763 34.585H29.9763V33.345H32.3363C34.1363 33.345 35.0363 32.9184 35.0363 32.065V29.885C35.0363 29.1917 34.1697 28.845 32.4363 28.845C31.9697 28.845 31.1897 28.8784 30.0963 28.945L28.5763 29.065V27.705C30.3097 27.5984 31.5897 27.545 32.4163 27.545C33.923 27.545 35.0363 27.7117 35.7563 28.045C36.4897 28.3784 36.8563 28.9384 36.8563 29.725V32.145C36.8563 32.5584 36.6897 32.905 36.3563 33.185C36.023 33.4517 35.5963 33.625 35.0763 33.705V33.785C35.3963 33.8384 35.6563 33.8984 35.8563 33.965C36.0697 34.0184 36.2963 34.105 36.5363 34.225C37.003 34.465 37.2363 34.885 37.2363 35.485V38.085C37.2363 39.125 36.8163 39.8517 35.9763 40.265C35.1363 40.665 33.9763 40.865 32.4963 40.865ZM43.3779 40.865C42.4579 40.865 41.7446 40.7784 41.2379 40.605C40.7446 40.4317 40.3846 40.125 40.1579 39.685C39.9446 39.245 39.8379 38.6117 39.8379 37.785C39.8379 37.0517 39.9379 36.485 40.1379 36.085C40.3512 35.6717 40.7046 35.3784 41.1979 35.205C41.7046 35.0317 42.4179 34.945 43.3379 34.945H46.2379V33.405C46.2379 33.045 46.1646 32.7717 46.0179 32.585C45.8846 32.385 45.6512 32.245 45.3179 32.165C44.9979 32.085 44.5246 32.045 43.8979 32.045C42.8979 32.045 41.7912 32.125 40.5779 32.285V30.965C41.8979 30.845 43.0912 30.785 44.1579 30.785C45.2779 30.785 46.1046 30.8717 46.6379 31.045C47.1712 31.205 47.5379 31.4917 47.7379 31.905C47.9379 32.3184 48.0379 32.9584 48.0379 33.825V40.665H46.2979V39.745C46.1512 40.4917 45.1779 40.865 43.3779 40.865ZM43.6779 39.685C44.3312 39.685 44.8846 39.6384 45.3379 39.545C45.9379 39.425 46.2379 39.145 46.2379 38.705V36.065H43.4579C42.8846 36.065 42.4712 36.1117 42.2179 36.205C41.9646 36.285 41.7979 36.445 41.7179 36.685C41.6379 36.925 41.5979 37.3117 41.5979 37.845C41.5979 38.325 41.6446 38.6984 41.7379 38.965C41.8312 39.2184 41.9979 39.405 42.2379 39.525C42.4779 39.6317 42.8379 39.685 43.3179 39.685H43.6779ZM51.1596 30.985H52.9596V32.025C53.1063 31.1984 54.2063 30.785 56.2596 30.785C57.4863 30.785 58.4129 31.045 59.0396 31.565C59.6663 32.0717 59.9796 32.725 59.9796 33.525V37.505C59.9796 38.0784 59.8929 38.5784 59.7196 39.005C59.5596 39.4317 59.3463 39.765 59.0796 40.005C58.8396 40.2317 58.5063 40.4117 58.0796 40.545C57.6663 40.6784 57.2529 40.765 56.8396 40.805C56.4663 40.845 56.0129 40.865 55.4796 40.865C54.8929 40.865 54.3529 40.7984 53.8596 40.665C53.3796 40.5184 53.0796 40.3117 52.9596 40.045V44.625H51.1596V30.985ZM55.5196 39.645C56.2129 39.645 56.7396 39.5984 57.0996 39.505C57.4729 39.3984 57.7396 39.2117 57.8996 38.945C58.0596 38.6784 58.1396 38.2717 58.1396 37.725V34.165C58.1396 33.565 58.0596 33.1184 57.8996 32.825C57.7396 32.5317 57.4729 32.3384 57.0996 32.245C56.7396 32.1384 56.2063 32.085 55.4996 32.085C54.7929 32.085 54.2529 32.1384 53.8796 32.245C53.5196 32.3384 53.2596 32.5317 53.0996 32.825C52.9396 33.1184 52.8596 33.565 52.8596 34.165V37.725C52.8596 38.2584 52.9396 38.665 53.0996 38.945C53.2729 39.2117 53.5463 39.3984 53.9196 39.505C54.2929 39.5984 54.8263 39.645 55.5196 39.645ZM66.8216 40.865C63.8616 40.865 62.3816 39.8784 62.3816 37.905V34.085C62.3816 32.9117 62.715 32.0717 63.3816 31.565C64.0616 31.045 65.155 30.785 66.6616 30.785C68.0883 30.785 69.115 31.0317 69.7416 31.525C70.3816 32.0184 70.7016 32.8717 70.7016 34.085V36.225H64.2016V37.685C64.2016 38.3517 64.435 38.8317 64.9016 39.125C65.3683 39.4184 66.0883 39.565 67.0616 39.565C67.9816 39.565 69.0683 39.405 70.3216 39.085V40.465C69.095 40.7317 67.9283 40.865 66.8216 40.865ZM68.9016 35.045V33.525C68.9016 32.9384 68.7216 32.5384 68.3616 32.325C68.015 32.0984 67.415 31.985 66.5616 31.985C65.735 31.985 65.135 32.0984 64.7616 32.325C64.3883 32.5384 64.2016 32.9384 64.2016 33.525V35.045H68.9016ZM73.5648 30.985H79.8848V32.305H75.3648V40.665H73.5648V30.985ZM90.4832 30.985V40.665H88.6832V33.525L83.6432 40.665H81.8432V30.985H83.6432V38.365L88.7832 30.985H90.4832ZM97.501 40.865C96.8343 40.865 96.3477 40.8517 96.041 40.825C95.7477 40.7984 95.4077 40.7317 95.021 40.625C94.6077 40.5184 94.2877 40.3584 94.061 40.145C93.8343 39.9317 93.641 39.6184 93.481 39.205C93.321 38.805 93.241 38.305 93.241 37.705V34.145C93.241 33.065 93.4477 32.2917 93.861 31.825C94.0877 31.5584 94.3143 31.3584 94.541 31.225C94.781 31.0784 95.0877 30.9784 95.461 30.925C95.8343 30.8717 96.1677 30.8384 96.461 30.825C96.7543 30.7984 97.1677 30.785 97.701 30.785C98.621 30.785 99.541 30.885 100.461 31.085V32.405C99.3943 32.1384 98.401 32.005 97.481 32.005C96.7877 32.005 96.2743 32.0584 95.941 32.165C95.621 32.2584 95.3943 32.4384 95.261 32.705C95.141 32.9584 95.081 33.3517 95.081 33.885V37.845C95.081 38.3384 95.1477 38.705 95.281 38.945C95.4277 39.185 95.681 39.3584 96.041 39.465C96.4143 39.5584 96.961 39.605 97.681 39.605C98.6543 39.605 99.6277 39.4784 100.601 39.225V40.585C99.6943 40.7717 98.661 40.865 97.501 40.865ZM105.318 32.305H101.918V30.985H110.498V32.305H107.118V40.665H105.318V32.305ZM112.664 30.985H114.464V32.025C114.61 31.1984 115.71 30.785 117.764 30.785C118.99 30.785 119.917 31.045 120.544 31.565C121.17 32.0717 121.484 32.725 121.484 33.525V37.505C121.484 38.0784 121.397 38.5784 121.224 39.005C121.064 39.4317 120.85 39.765 120.584 40.005C120.344 40.2317 120.01 40.4117 119.584 40.545C119.17 40.6784 118.757 40.765 118.344 40.805C117.97 40.845 117.517 40.865 116.984 40.865C116.397 40.865 115.857 40.7984 115.364 40.665C114.884 40.5184 114.584 40.3117 114.464 40.045V44.625H112.664V30.985ZM117.024 39.645C117.717 39.645 118.244 39.5984 118.604 39.505C118.977 39.3984 119.244 39.2117 119.404 38.945C119.564 38.6784 119.644 38.2717 119.644 37.725V34.165C119.644 33.565 119.564 33.1184 119.404 32.825C119.244 32.5317 118.977 32.3384 118.604 32.245C118.244 32.1384 117.71 32.085 117.004 32.085C116.297 32.085 115.757 32.1384 115.384 32.245C115.024 32.3384 114.764 32.5317 114.604 32.825C114.444 33.1184 114.364 33.565 114.364 34.165V37.725C114.364 38.2584 114.444 38.665 114.604 38.945C114.777 39.2117 115.05 39.3984 115.424 39.505C115.797 39.5984 116.33 39.645 117.024 39.645ZM132.886 30.985V40.665H131.086V33.525L126.046 40.665H124.246V30.985H126.046V38.365L131.186 30.985H132.886ZM136.003 30.985H137.803V32.025C137.95 31.1984 139.05 30.785 141.103 30.785C142.33 30.785 143.257 31.045 143.883 31.565C144.51 32.0717 144.823 32.725 144.823 33.525V37.505C144.823 38.0784 144.737 38.5784 144.563 39.005C144.403 39.4317 144.19 39.765 143.923 40.005C143.683 40.2317 143.35 40.4117 142.923 40.545C142.51 40.6784 142.097 40.765 141.683 40.805C141.31 40.845 140.857 40.865 140.323 40.865C139.737 40.865 139.197 40.7984 138.703 40.665C138.223 40.5184 137.923 40.3117 137.803 40.045V44.625H136.003V30.985ZM140.363 39.645C141.057 39.645 141.583 39.5984 141.943 39.505C142.317 39.3984 142.583 39.2117 142.743 38.945C142.903 38.6784 142.983 38.2717 142.983 37.725V34.165C142.983 33.565 142.903 33.1184 142.743 32.825C142.583 32.5317 142.317 32.3384 141.943 32.245C141.583 32.1384 141.05 32.085 140.343 32.085C139.637 32.085 139.097 32.1384 138.723 32.245C138.363 32.3384 138.103 32.5317 137.943 32.825C137.783 33.1184 137.703 33.565 137.703 34.165V37.725C137.703 38.2584 137.783 38.665 137.943 38.945C138.117 39.2117 138.39 39.3984 138.763 39.505C139.137 39.5984 139.67 39.645 140.363 39.645ZM151.685 40.865C150.832 40.865 150.192 40.8317 149.765 40.765C149.339 40.7117 148.912 40.585 148.485 40.385C148.045 40.185 147.725 39.865 147.525 39.425C147.325 38.9717 147.225 38.365 147.225 37.605V34.245C147.225 33.645 147.299 33.1184 147.445 32.665C147.592 32.2117 147.785 31.8584 148.025 31.605C148.225 31.3784 148.525 31.205 148.925 31.085C149.339 30.9517 149.759 30.865 150.185 30.825C150.665 30.7984 151.165 30.785 151.685 30.785C152.379 30.785 152.899 30.805 153.245 30.845C153.605 30.8717 153.985 30.9384 154.385 31.045C154.799 31.165 155.119 31.345 155.345 31.585C155.572 31.825 155.765 32.1717 155.925 32.625C156.072 33.0917 156.145 33.6317 156.145 34.245V37.605C156.145 38.7384 155.885 39.565 155.365 40.085C155.152 40.2984 154.845 40.465 154.445 40.585C154.045 40.705 153.632 40.785 153.205 40.825C152.699 40.8517 152.192 40.865 151.685 40.865ZM151.685 39.685C152.245 39.685 152.652 39.6717 152.905 39.645C153.159 39.6184 153.405 39.545 153.645 39.425C153.885 39.3184 154.052 39.145 154.145 38.905C154.252 38.6517 154.305 38.305 154.305 37.865V33.945C154.305 33.345 154.232 32.9117 154.085 32.645C153.939 32.365 153.685 32.185 153.325 32.105C152.979 32.0117 152.432 31.965 151.685 31.965C150.939 31.965 150.385 32.0117 150.025 32.105C149.679 32.185 149.432 32.365 149.285 32.645C149.139 32.9117 149.065 33.345 149.065 33.945V37.865C149.065 38.305 149.112 38.6517 149.205 38.905C149.312 39.145 149.485 39.3184 149.725 39.425C149.965 39.545 150.212 39.6184 150.465 39.645C150.719 39.6717 151.125 39.685 151.685 39.685ZM159.073 30.985H163.313C164.179 30.985 164.873 31.0384 165.393 31.145C165.913 31.2384 166.293 31.405 166.533 31.645C166.759 31.8717 166.906 32.105 166.973 32.345C167.039 32.585 167.073 32.9184 167.073 33.345V33.685C167.073 34.205 166.939 34.5917 166.673 34.845C166.406 35.0984 165.959 35.2917 165.333 35.425V35.505C166.879 35.7717 167.653 36.445 167.653 37.525V38.105C167.653 38.7584 167.519 39.2717 167.253 39.645C166.999 40.005 166.573 40.265 165.973 40.425C165.373 40.585 164.533 40.665 163.453 40.665H159.073V30.985ZM163.473 35.065C164.006 35.065 164.406 35.025 164.673 34.945C164.939 34.8517 165.119 34.7117 165.213 34.525C165.306 34.325 165.353 34.025 165.353 33.625V33.505C165.353 33.145 165.299 32.8784 165.193 32.705C165.099 32.5317 164.913 32.4117 164.633 32.345C164.366 32.265 163.959 32.225 163.413 32.225H160.873V35.065H163.473ZM163.553 39.365C164.179 39.365 164.653 39.325 164.973 39.245C165.293 39.165 165.513 39.0384 165.633 38.865C165.753 38.6784 165.813 38.405 165.813 38.045V37.405C165.813 37.0717 165.673 36.7917 165.393 36.565C165.099 36.3517 164.519 36.245 163.653 36.245H160.873V39.365H163.553ZM173.397 40.865C172.477 40.865 171.764 40.7784 171.257 40.605C170.764 40.4317 170.404 40.125 170.177 39.685C169.964 39.245 169.857 38.6117 169.857 37.785C169.857 37.0517 169.957 36.485 170.157 36.085C170.371 35.6717 170.724 35.3784 171.217 35.205C171.724 35.0317 172.437 34.945 173.357 34.945H176.257V33.405C176.257 33.045 176.184 32.7717 176.037 32.585C175.904 32.385 175.671 32.245 175.337 32.165C175.017 32.085 174.544 32.045 173.917 32.045C172.917 32.045 171.811 32.125 170.597 32.285V30.965C171.917 30.845 173.111 30.785 174.177 30.785C175.297 30.785 176.124 30.8717 176.657 31.045C177.191 31.205 177.557 31.4917 177.757 31.905C177.957 32.3184 178.057 32.9584 178.057 33.825V40.665H176.317V39.745C176.171 40.4917 175.197 40.865 173.397 40.865ZM173.697 39.685C174.351 39.685 174.904 39.6384 175.357 39.545C175.957 39.425 176.257 39.145 176.257 38.705V36.065H173.477C172.904 36.065 172.491 36.1117 172.237 36.205C171.984 36.285 171.817 36.445 171.737 36.685C171.657 36.925 171.617 37.3117 171.617 37.845C171.617 38.325 171.664 38.6984 171.757 38.965C171.851 39.2184 172.017 39.405 172.257 39.525C172.497 39.6317 172.857 39.685 173.337 39.685H173.697ZM183.619 32.305H180.219V30.985H188.799V32.305H185.419V40.665H183.619V32.305ZM190.964 30.985H192.764V34.485H195.244C196.071 34.485 196.724 34.545 197.204 34.665C197.698 34.785 198.058 34.9984 198.284 35.305C198.511 35.5984 198.624 36.0184 198.624 36.565V38.565C198.624 39.965 197.444 40.665 195.084 40.665H190.964V30.985ZM194.964 39.505C195.351 39.505 195.751 39.4517 196.164 39.345C196.631 39.225 196.864 38.885 196.864 38.325V37.105C196.864 36.7184 196.811 36.425 196.704 36.225C196.611 36.025 196.431 35.885 196.164 35.805C195.911 35.725 195.524 35.685 195.004 35.685H192.744V39.505H194.964ZM204.689 40.865C204.022 40.865 203.535 40.8517 203.229 40.825C202.935 40.7984 202.595 40.7317 202.209 40.625C201.795 40.5184 201.475 40.3584 201.249 40.145C201.022 39.9317 200.829 39.6184 200.669 39.205C200.509 38.805 200.429 38.305 200.429 37.705V34.145C200.429 33.065 200.635 32.2917 201.049 31.825C201.275 31.5584 201.502 31.3584 201.729 31.225C201.969 31.0784 202.275 30.9784 202.649 30.925C203.022 30.8717 203.355 30.8384 203.649 30.825C203.942 30.7984 204.355 30.785 204.889 30.785C205.809 30.785 206.729 30.885 207.649 31.085V32.405C206.582 32.1384 205.589 32.005 204.669 32.005C203.975 32.005 203.462 32.0584 203.129 32.165C202.809 32.2584 202.582 32.4384 202.449 32.705C202.329 32.9584 202.269 33.3517 202.269 33.885V37.845C202.269 38.3384 202.335 38.705 202.469 38.945C202.615 39.185 202.869 39.3584 203.229 39.465C203.602 39.5584 204.149 39.605 204.869 39.605C205.842 39.605 206.815 39.4784 207.789 39.225V40.585C206.882 40.7717 205.849 40.865 204.689 40.865ZM217.866 30.985V40.665H216.066V37.185H213.946L211.486 40.665H209.106L212.066 36.845C211.306 36.725 210.753 36.4784 210.406 36.105C210.073 35.7184 209.906 35.1917 209.906 34.525V33.485C209.906 32.7917 209.999 32.2717 210.186 31.925C210.386 31.5784 210.719 31.3384 211.186 31.205C211.653 31.0584 212.346 30.985 213.266 30.985H217.866ZM216.066 32.225H213.446C212.953 32.225 212.586 32.265 212.346 32.345C212.106 32.425 211.939 32.565 211.846 32.765C211.766 32.965 211.726 33.2584 211.726 33.645V34.325C211.726 34.845 211.846 35.245 212.086 35.525C212.339 35.805 212.719 35.945 213.226 35.945H216.066V32.225Z" fill="white"/>
<defs>
<filter id="filter0_d_312_4158" x="0.845703" y="0.144531" width="243.309" height="69.2178" filterUnits="userSpaceOnUse" color-interpolation-filters="sRGB">
<feFlood flood-opacity="0" result="BackgroundImageFix"/>
<feColorMatrix in="SourceAlpha" type="matrix" values="0 0 0 0 0 0 0 0 0 0 0 0 0 0 0 0 0 0 127 0" result="hardAlpha"/>
<feOffset/>
<feGaussianBlur stdDeviation="2"/>
<feComposite in2="hardAlpha" operator="out"/>
<feColorMatrix type="matrix" values="0 0 0 0 1 0 0 0 0 0.882689 0 0 0 0 0.608333 0 0 0 0.25 0"/>
<feBlend mode="normal" in2="BackgroundImageFix" result="effect1_dropShadow_312_4158"/>
<feBlend mode="normal" in="SourceGraphic" in2="effect1_dropShadow_312_4158" result="shape"/>
</filter>
</defs>
</svg>
