<svg width="126" height="61" viewBox="0 0 126 61" fill="none" xmlns="http://www.w3.org/2000/svg">
<g filter="url(#filter0_d_477_1444)">
<path d="M121.078 20.0129C121.078 19.1684 120.773 18.3523 120.218 17.7152L110.602 6.66571C109.938 5.90189 108.975 5.46338 107.962 5.46338H8.42013C6.48714 5.46338 4.92013 7.03038 4.92013 8.96338V41.1921C4.92013 42.0261 5.21793 42.8327 5.7599 43.4666L15.3971 54.7382C16.062 55.5159 17.034 55.9637 18.0573 55.9637H117.578C119.511 55.9637 121.078 54.3967 121.078 52.4637V20.0129Z" stroke="#65B9F4" shape-rendering="crispEdges"/>
</g>
<path d="M39.9004 3.40234H7.96206C5.75293 3.40234 3.96207 5.1932 3.96207 7.40234V18.4073H35.9004C38.1095 18.4073 39.9004 16.6164 39.9004 14.4073V3.40234Z" fill="#3F5168"/>
<path d="M121.578 41.7271H89.6398C87.4307 41.7271 85.6398 43.5179 85.6398 45.7271V56.732H117.578C119.787 56.732 121.578 54.9411 121.578 52.732V41.7271Z" fill="#3F5168"/>
<path d="M41.298 25.1599H42.85V29.6399H48.37V25.1599H49.922V35.5439H48.37V30.7279H42.85V35.5439H41.298V25.1599ZM54.8985 35.7039C54.1625 35.7039 53.5919 35.6346 53.1865 35.4959C52.7919 35.3573 52.5039 35.1119 52.3225 34.7599C52.1519 34.4079 52.0665 33.9013 52.0665 33.2399C52.0665 32.6533 52.1465 32.1999 52.3065 31.8799C52.4772 31.5493 52.7599 31.3146 53.1545 31.1759C53.5599 31.0373 54.1305 30.9679 54.8665 30.9679H57.1865V29.7359C57.1865 29.4479 57.1279 29.2293 57.0105 29.0799C56.9039 28.9199 56.7172 28.8079 56.4505 28.7439C56.1945 28.6799 55.8159 28.6479 55.3145 28.6479C54.5145 28.6479 53.6292 28.7119 52.6585 28.8399V27.7839C53.7145 27.6879 54.6692 27.6399 55.5225 27.6399C56.4185 27.6399 57.0799 27.7093 57.5065 27.8479C57.9332 27.9759 58.2265 28.2053 58.3865 28.5359C58.5465 28.8666 58.6265 29.3786 58.6265 30.0719V35.5439H57.2345V34.8079C57.1172 35.4053 56.3385 35.7039 54.8985 35.7039ZM55.1385 34.7599C55.6612 34.7599 56.1039 34.7226 56.4665 34.6479C56.9465 34.5519 57.1865 34.3279 57.1865 33.9759V31.8639H54.9625C54.5039 31.8639 54.1732 31.9013 53.9705 31.9759C53.7679 32.0399 53.6345 32.1679 53.5705 32.3599C53.5065 32.5519 53.4745 32.8613 53.4745 33.2879C53.4745 33.6719 53.5119 33.9706 53.5865 34.1839C53.6612 34.3866 53.7945 34.5359 53.9865 34.6319C54.1785 34.7173 54.4665 34.7599 54.8505 34.7599H55.1385ZM62.8519 35.7039C62.2226 35.7039 61.4972 35.6133 60.6759 35.4319V34.2959C61.4759 34.5306 62.2012 34.6479 62.8519 34.6479C63.5879 34.6479 64.1266 34.5679 64.4679 34.4079C64.8092 34.2373 64.9799 33.9173 64.9799 33.4479V32.9519C64.9799 32.5573 64.8039 32.2959 64.4519 32.1679C64.1106 32.0293 63.6252 31.9599 62.9959 31.9599H62.1159V30.9679H62.7239C63.3746 30.9679 63.8706 30.8933 64.2119 30.7439C64.5532 30.5946 64.7239 30.3279 64.7239 29.9439V29.4639C64.7239 28.9093 64.0839 28.6319 62.8039 28.6319C62.1319 28.6319 61.4759 28.6959 60.8359 28.8239V27.7839C61.4439 27.6879 62.0946 27.6399 62.7879 27.6399C63.6092 27.6399 64.2492 27.6826 64.7079 27.7679C65.1666 27.8533 65.5239 28.0133 65.7799 28.2479C66.0466 28.4826 66.1799 28.8613 66.1799 29.3839V30.0079C66.1799 30.3493 66.0519 30.6319 65.7959 30.8559C65.5506 31.0693 65.2306 31.2079 64.8359 31.2719V31.3359C65.9346 31.5066 66.4839 31.9813 66.4839 32.7599V33.5599C66.4839 33.9226 66.4092 34.2479 66.2599 34.5359C66.1212 34.8133 65.9346 35.0266 65.6999 35.1759C65.3799 35.3786 64.9746 35.5173 64.4839 35.5919C64.0039 35.6666 63.4599 35.7039 62.8519 35.7039ZM71.0704 35.7039C70.3344 35.7039 69.7637 35.6346 69.3584 35.4959C68.9637 35.3573 68.6757 35.1119 68.4944 34.7599C68.3237 34.4079 68.2384 33.9013 68.2384 33.2399C68.2384 32.6533 68.3184 32.1999 68.4784 31.8799C68.6491 31.5493 68.9317 31.3146 69.3264 31.1759C69.7317 31.0373 70.3024 30.9679 71.0384 30.9679H73.3584V29.7359C73.3584 29.4479 73.2997 29.2293 73.1824 29.0799C73.0757 28.9199 72.8891 28.8079 72.6224 28.7439C72.3664 28.6799 71.9877 28.6479 71.4864 28.6479C70.6864 28.6479 69.8011 28.7119 68.8304 28.8399V27.7839C69.8864 27.6879 70.8411 27.6399 71.6944 27.6399C72.5904 27.6399 73.2517 27.7093 73.6784 27.8479C74.1051 27.9759 74.3984 28.2053 74.5584 28.5359C74.7184 28.8666 74.7984 29.3786 74.7984 30.0719V35.5439H73.4064V34.8079C73.2891 35.4053 72.5104 35.7039 71.0704 35.7039ZM71.3104 34.7599C71.8331 34.7599 72.2757 34.7226 72.6384 34.6479C73.1184 34.5519 73.3584 34.3279 73.3584 33.9759V31.8639H71.1344C70.6757 31.8639 70.3451 31.9013 70.1424 31.9759C69.9397 32.0399 69.8064 32.1679 69.7424 32.3599C69.6784 32.5519 69.6464 32.8613 69.6464 33.2879C69.6464 33.6719 69.6837 33.9706 69.7584 34.1839C69.8331 34.3866 69.9664 34.5359 70.1584 34.6319C70.3504 34.7173 70.6384 34.7599 71.0224 34.7599H71.3104ZM84.6398 34.5999V37.6879H83.4078V35.5439H77.4398V37.6879H76.2078V34.5999H76.7038C76.9385 34.5999 77.1678 34.4239 77.3918 34.0719C77.6158 33.7093 77.8025 33.1333 77.9518 32.3439C78.1011 31.5439 78.1758 30.5306 78.1758 29.3039V27.7999H83.5518V34.5999H84.6398ZM82.1118 34.5999V28.7439H79.4398V29.8639C79.4398 30.9733 79.3651 31.9279 79.2158 32.7279C79.0771 33.5173 78.8158 34.1413 78.4318 34.5999H82.1118Z" fill="#65B9F4"/>
<defs>
<filter id="filter0_d_477_1444" x="0.419922" y="0.963379" width="125.158" height="59.5005" filterUnits="userSpaceOnUse" color-interpolation-filters="sRGB">
<feFlood flood-opacity="0" result="BackgroundImageFix"/>
<feColorMatrix in="SourceAlpha" type="matrix" values="0 0 0 0 0 0 0 0 0 0 0 0 0 0 0 0 0 0 127 0" result="hardAlpha"/>
<feOffset/>
<feGaussianBlur stdDeviation="2"/>
<feComposite in2="hardAlpha" operator="out"/>
<feColorMatrix type="matrix" values="0 0 0 0 1 0 0 0 0 0.882689 0 0 0 0 0.608333 0 0 0 0.25 0"/>
<feBlend mode="normal" in2="BackgroundImageFix" result="effect1_dropShadow_477_1444"/>
<feBlend mode="normal" in="SourceGraphic" in2="effect1_dropShadow_477_1444" result="shape"/>
</filter>
</defs>
</svg>
