<svg width="220" height="110" viewBox="0 0 220 110" fill="none" xmlns="http://www.w3.org/2000/svg">
<path d="M25.2966 48.9604C24.4097 48.9604 23.5235 48.9129 22.6419 48.818L22.9102 46.4648C26.7524 46.8651 30.6355 46.283 34.1755 44.7761L35.1533 46.9513C32.0478 48.2826 28.6903 48.967 25.2966 48.9604ZM20.1153 48.4166C15.9225 47.5214 12.0463 45.5674 8.87673 42.7514C5.70719 39.9354 3.35629 36.3567 2.06072 32.3756L4.39223 31.6618C5.55917 35.2461 7.67689 38.4679 10.5319 41.0022C13.3869 43.5365 16.8782 45.2939 20.6539 46.097L20.1153 48.4166ZM45.018 39.2235L43.0504 37.8393C43.521 37.2088 43.9572 36.5546 44.3574 35.8796C46.2696 32.6467 47.2781 28.9829 47.2825 25.2529C47.2771 22.2487 46.6277 19.2787 45.3758 16.5324L47.5996 15.5694C48.9896 18.621 49.7103 21.921 49.7156 25.2588C49.7087 29.3968 48.5896 33.461 46.4694 37.0483C46.0255 37.7978 45.541 38.5239 45.018 39.2235ZM3.88405 20.5862L1.50781 20.0701C2.45078 15.9995 4.47337 12.2402 7.37422 9.16648L9.16707 10.7682C6.5513 13.5375 4.72885 16.9265 3.88202 20.596L3.88405 20.5862ZM44.335 14.5352C42.3993 11.2813 39.6148 8.58211 36.2631 6.7105L37.4828 4.65793C41.2076 6.73937 44.3013 9.7408 46.4511 13.3586L44.335 14.5352ZM10.8217 9.19614L9.21382 7.41645C12.4387 4.65832 16.3546 2.77682 20.5661 1.96194C24.7775 1.14706 29.1355 1.42766 33.1998 2.77541L32.403 5.01387C28.7448 3.79979 24.822 3.5468 21.0311 4.28048C17.2401 5.01415 13.7155 6.70849 10.8136 9.19219L10.8217 9.19614Z" fill="#A4E4ED"/>
<path d="M26.022 51.2088H25.962C21.7791 51.2011 17.6562 50.2192 13.9235 48.3418C10.1908 46.4643 6.95197 43.7436 4.46647 40.3973L7.36163 39.0297C9.51828 41.9333 12.3301 44.2929 15.5708 45.9185C18.8114 47.5441 22.3905 48.3905 26.02 48.3894C26.2103 48.3894 26.3965 48.3894 26.5807 48.3894L26.6768 51.2208C26.4585 51.2048 26.2403 51.2088 26.022 51.2088ZM29.2376 51.0097L28.8031 48.2162C32.5003 47.761 36.034 46.4315 39.1084 44.3389L41.1426 46.5349C37.5908 48.951 33.5083 50.4848 29.2376 51.0077V51.0097ZM49.6059 37.8368L46.4224 36.156C48.1716 32.8849 49.1001 29.2418 49.1287 25.5368C49.1573 21.8319 48.2851 18.175 46.5865 14.8775L48.2836 13.2505C50.2457 17.0604 51.2531 21.2854 51.22 25.5659C51.1869 29.8464 50.1142 34.0555 48.0933 37.8348L49.6059 37.8368ZM0.324359 29.4728C0.109388 28.1057 0.000947844 26.7242 5.40912e-06 25.3406C-0.00184605 22.4562 0.471607 19.5911 1.40154 16.859L4.05202 18.0061C2.85917 21.5147 2.53969 25.2588 3.12099 28.9172L0.324359 29.4728ZM4.8709 15.9549L1.59133 15.2425C3.35408 11.3392 6.0366 7.91597 9.41172 5.26269C12.7868 2.6094 16.7551 0.804208 20.9805 0L21.6573 2.75965C18.3813 3.38066 15.2791 4.69877 12.5632 6.62365C9.84722 8.54852 7.58177 11.0347 5.92205 13.9117C5.53763 14.5609 5.17724 15.2519 4.8709 15.9549ZM45.4893 12.9678C42.5024 8.33466 37.9505 4.91452 32.6533 3.32323L32.9392 0.653191C39.0586 2.49158 44.3171 6.44281 47.7674 11.7953L45.4893 12.9678Z" fill="#A6DAFF"/>
<path d="M25.9859 34.6495C31.186 34.6495 35.4015 30.434 35.4015 25.2339C35.4015 20.0339 31.186 15.8184 25.9859 15.8184C20.7858 15.8184 16.5703 20.0339 16.5703 25.2339C16.5703 30.434 20.7858 34.6495 25.9859 34.6495Z" fill="#FF8B60"/>
<path d="M183.89 45.9481H110.093V45.1949H183.89C185.062 45.1927 186.938 43.9925 187.767 42.6678C188.596 41.3431 188.309 39.5468 188.311 37.6729V12.7968C188.31 10.9225 188.596 9.12571 187.768 7.80055C186.939 6.4754 185.062 5.27491 183.89 5.27278H109.975V4.51953H183.89C185.262 4.52166 187.331 5.39413 188.301 6.94552C189.271 8.49691 189.064 10.6005 189.066 12.7948V37.6729C189.064 39.867 189.271 41.9702 188.301 43.5215C187.33 45.0728 185.262 45.9454 183.89 45.9481Z" fill="#A6DAFF"/>
<path d="M214.02 109.973H110.093V109.22H214.02C215.191 109.218 217.068 108.018 217.897 106.693C218.726 105.368 218.439 103.572 218.441 101.698V76.8222C218.439 74.9479 218.726 73.1511 217.897 71.8259C217.069 70.5008 215.192 69.3003 214.02 69.2982H109.975V68.5449H214.02C215.392 68.5471 217.46 69.4195 218.431 70.9709C219.401 72.5223 219.194 74.6259 219.195 76.8202V101.698C219.193 103.892 219.401 105.996 218.43 107.547C217.46 109.098 215.392 109.971 214.02 109.973Z" fill="#A6DAFF"/>
<path d="M185.358 13.5747V37.0106C185.358 38.3446 184.828 39.624 183.885 40.5672C182.942 41.5105 181.662 42.0404 180.328 42.0404H65.3466C64.5753 42.0396 63.8145 41.8611 63.1233 41.5188C62.4321 41.1766 61.8289 40.6797 61.3607 40.0667C60.8925 39.4537 60.5717 38.7412 60.4233 37.9843C60.2749 37.2274 60.3028 36.4464 60.5048 35.702C62.3131 28.8819 62.3131 21.7082 60.5048 14.8881C60.3019 14.1434 60.2733 13.3619 60.4213 12.6044C60.5694 11.8468 60.89 11.1336 61.3583 10.5201C61.8266 9.90652 62.4301 9.40917 63.1218 9.06662C63.8135 8.72408 64.5748 8.54556 65.3466 8.54492H180.328C181.662 8.54492 182.942 9.07485 183.885 10.0181C184.828 10.9614 185.358 12.2407 185.358 13.5747Z" fill="#E7EAEE"/>
<path d="M40.1735 25.6105C40.1735 33.2263 33.8335 39.4222 25.9852 39.4222C18.1369 39.4222 11.7969 33.2263 11.7969 25.6105C11.7969 17.9947 18.1369 11.7988 25.9852 11.7988C33.8335 11.7988 40.1735 17.9947 40.1735 25.6105Z" stroke="#A4E4ED"/>
</svg>
