<svg width="600" height="511" viewBox="0 0 600 511" fill="none" preserveAspectRatio="none" xmlns="http://www.w3.org/2000/svg">
<path d="M1 39.1515C1 38.3634 1.31013 37.6069 1.86334 37.0456L34.5372 3.89413C35.101 3.32208 35.8707 3 36.6739 3H521.898C522.669 3 523.411 3.29711 523.969 3.8296L598.071 74.5416C598.664 75.1077 599 75.892 599 76.712V507C599 508.657 597.657 510 596 510H123.964C123.255 510 122.569 509.749 122.027 509.291L58.7638 455.806C57.8613 455.043 56.7176 454.624 55.5357 454.624H4C2.34314 454.624 1 453.281 1 451.624V381V39.1515Z" fill="#3F5168" stroke="#65B9F4" stroke-width="2"/>
<path d="M539.154 6.19952C537.155 4.34476 538.467 1 541.194 1H596C597.657 1 599 2.34315 599 4V54.8341C599 57.4528 595.88 58.8145 593.96 57.0336L539.154 6.19952Z" fill="#3F5168" stroke="#65B9F4" stroke-width="2"/>
</svg>
